####
#
# OBJ File Generated by Meshlab
#
####
# Object Excavation.obj
#
# Vertices: 16
# Faces: 20
#
####
v 0.0040414519608021 -0.0000000000000862 0.3899999856948853
v 0.0020207259804010 -0.0035000001080334 0.3899999856948853
v 0.0040414519608021 0.0000000000000051 -0.0000000000000338
v 0.0020207259804010 -0.0035000001080334 -0.0000000000000346
v 0.0020207259804010 0.0035000001080334 0.3899999856948853
v 0.0020207259804010 0.0035000001080334 -0.0000000000000331
v 0.0040414519608021 0.0000000000000051 -0.0000000000000340
v -0.0020207259804010 0.0035000001080334 0.3899999856948853
v -0.0020207259804010 0.0035000001080334 -0.0000000000000329
v 0.0020207259804010 0.0035000001080334 -0.0000000000000329
v -0.0040414519608021 -0.0000000000000863 0.3899999856948853
v -0.0040414519608021 0.0000000000000050 -0.0000000000000338
v -0.0020207259804010 -0.0035000001080334 0.3899999856948853
v -0.0020207259804010 -0.0035000001080334 -0.0000000000000349
v -0.0040414519608021 0.0000000000000050 -0.0000000000000340
v -0.0020207259804010 -0.0035000001080334 -0.0000000000000346
# 16 vertices, 0 vertices normals

f 1 2 3
f 3 2 4
f 5 1 6
f 6 1 7
f 8 5 9
f 9 5 10
f 11 8 12
f 12 8 9
f 13 11 14
f 14 11 15
f 2 13 4
f 4 13 16
f 1 5 2
f 2 5 8
f 2 8 13
f 13 8 11
f 16 12 4
f 4 12 9
f 4 9 3
f 3 9 10
# 20 faces, 0 coords texture

# End of File
