####
#
# OBJ File Generated by Meshlab
#
####
# Object Hopper_Door.obj
#
# Vertices: 900
# Faces: 1856
#
####
v -0.0020525739528239 0.3372737169265747 -0.3361845314502716
v -0.0020525739528239 0.3372737169265747 -0.3400000035762787
v -0.0020525739528239 -0.0000000000000002 -0.3400000035762787
v -0.0020525739528239 0.3382999897003174 -0.0038154609501362
v -0.0020525739528239 0.3382999897003174 -0.0027891739737242
v -0.0020525739528239 0.3890999853610992 -0.0027891739737242
v -0.0020525739528239 -0.0000000000000002 -0.0000000000000311
v -0.0020525739528239 0.3372737169265747 -0.0000000000000311
v -0.0020525739528239 0.3372737169265747 -0.0038154609501362
v -0.0020525739528239 0.3890999853610992 -0.3372108340263367
v -0.0020525739528239 0.3382999897003174 -0.3372108340263367
v -0.0020525739528239 0.3382999897003174 -0.3361845314502716
v 0.0000000000000011 0.3382999897003174 -0.3361845314502716
v 0.0000000000000011 0.3382999897003174 -0.3372108340263367
v 0.0000000000000011 0.3890999853610992 -0.3372108340263367
v -0.0000000000000025 0.3372737169265747 -0.0038154609501362
v -0.0000000000000026 0.3372737169265747 -0.0000000000000309
v -0.0000000000000022 -0.0000000000000004 -0.0000000000000311
v -0.0000000000000026 0.3890999853610992 -0.0027891739737242
v -0.0000000000000025 0.3382999897003174 -0.0027891739737242
v -0.0000000000000025 0.3382999897003174 -0.0038154609501362
v 0.0000000000000014 -0.0000000000000002 -0.3400000035762787
v 0.0000000000000011 0.3372737169265747 -0.3400000035762787
v 0.0000000000000011 0.3372737169265747 -0.3361845314502716
v -0.0000000000000025 0.3890999853610992 -0.0027891739737242
v 0.0000000000000012 0.3382999897003174 -0.3372108340263367
v -0.0021512596867979 0.3382999897003174 -0.0024208740796894
v -0.0003736784565262 0.3382999897003174 -0.0013945869868621
v -0.0024208740796894 0.3382999897003174 -0.0021512596867979
v -0.0013945869868621 0.3382999897003174 -0.0003736784565262
v -0.0027891739737242 0.3382999897003174 -0.0020525739528239
v -0.0027891739737242 0.3382999897003174 -0.0000000000000311
v -0.0027891739737242 0.3890999853610992 -0.0020525739528239
v -0.0027891739737242 0.3890999853610992 -0.0000000000000311
v -0.0024208740796894 0.3890999853610992 -0.0021512596867979
v -0.0013945869868621 0.3890999853610992 -0.0003736784565262
v -0.0021512596867979 0.3890999853610992 -0.0024208740796894
v -0.0003736784565262 0.3890999853610992 -0.0013945869868621
v -0.0282145738601685 0.3890999853610992 -0.0000000000000311
v -0.0282145738601685 0.3890999853610992 -0.0020525739528239
v -0.0282145738601685 0.3382999897003174 -0.0020525739528239
v -0.0282145738601685 0.3382999897003174 -0.0000000000000311
v -0.0302668940275908 0.3677000105381012 -0.0000000000000311
v -0.0282668936997652 0.3671641051769257 -0.0000000000000311
v -0.0268027931451797 0.3657000064849854 -0.0000000000000311
v -0.0262668933719397 0.3637000024318695 -0.0000000000000311
v -0.0268027931451797 0.3616999983787537 -0.0000000000000311
v -0.0282668936997652 0.3602358996868134 -0.0000000000000311
v -0.0302668940275908 0.3596999943256378 -0.0000000000000311
v -0.0379347316920757 0.3402334451675415 -0.0000000000000313
v -0.0322668924927711 0.3602358996868134 -0.0000000000000313
v -0.0379347316920757 0.3871665298938751 -0.0000000000000313
v -0.0322668924927711 0.3671641051769257 -0.0000000000000313
v -0.0461750850081444 0.3816605210304260 -0.0000000000000313
v -0.0337309949100018 0.3657000064849854 -0.0000000000000313
v -0.0516811124980450 0.3734201490879059 -0.0000000000000313
v -0.0342668928205967 0.3637000024318695 -0.0000000000000313
v -0.0536145754158497 0.3637000024318695 -0.0000000000000313
v -0.0337309949100018 0.3616999983787537 -0.0000000000000313
v -0.0516811124980450 0.3539798259735107 -0.0000000000000313
v -0.0461750850081444 0.3457394838333130 -0.0000000000000313
v -0.0322668924927711 0.3671641051769257 -0.0020525739528239
v -0.0379347316920757 0.3871665298938751 -0.0020525739528239
v -0.0302668940275908 0.3677000105381012 -0.0020525739528239
v -0.0282668936997652 0.3671641051769257 -0.0020525739528239
v -0.0268027931451797 0.3657000064849854 -0.0020525739528239
v -0.0302668940275908 0.3596999943256378 -0.0020525739528239
v -0.0282668936997652 0.3602358996868134 -0.0020525739528239
v -0.0268027931451797 0.3616999983787537 -0.0020525739528239
v -0.0262668933719397 0.3637000024318695 -0.0020525739528239
v -0.0379347316920757 0.3402334451675415 -0.0020525739528239
v -0.0322668924927711 0.3602358996868134 -0.0020525739528239
v -0.0461750850081444 0.3457394838333130 -0.0020525739528239
v -0.0337309949100018 0.3616999983787537 -0.0020525739528239
v -0.0516811124980450 0.3539798259735107 -0.0020525739528239
v -0.0342668928205967 0.3637000024318695 -0.0020525739528239
v -0.0536145754158497 0.3637000024318695 -0.0020525739528239
v -0.0337309949100018 0.3657000064849854 -0.0020525739528239
v -0.0516811124980450 0.3734201490879059 -0.0020525739528239
v -0.0461750850081444 0.3816605210304260 -0.0020525739528239
v -0.0021512596867979 0.3890999853610992 -0.3375791311264038
v -0.0003736784565262 0.3890999853610992 -0.3386054039001465
v -0.0024208740796894 0.3890999853610992 -0.3378487527370453
v -0.0013945869868621 0.3890999853610992 -0.3396263122558594
v -0.0027891739737242 0.3890999853610992 -0.3379474282264709
v -0.0027891739737242 0.3890999853610992 -0.3400000035762787
v -0.0027891739737242 0.3382999897003174 -0.3379474282264709
v -0.0027891739737242 0.3382999897003174 -0.3400000035762787
v -0.0024208740796894 0.3382999897003174 -0.3378487527370453
v -0.0013945869868621 0.3382999897003174 -0.3396263122558594
v -0.0021512596867979 0.3382999897003174 -0.3375791311264038
v -0.0003736784565262 0.3382999897003174 -0.3386054039001465
v -0.0282145738601685 0.3890999853610992 -0.3379474282264709
v -0.0282145738601685 0.3890999853610992 -0.3400000035762787
v -0.0282145738601685 0.3382999897003174 -0.3400000035762787
v -0.0282145738601685 0.3382999897003174 -0.3379474282264709
v -0.0322668924927711 0.3671641051769257 -0.3400000035762787
v -0.0379347316920757 0.3871665298938751 -0.3400000035762787
v -0.0302668940275908 0.3677000105381012 -0.3400000035762787
v -0.0282668936997652 0.3671641051769257 -0.3400000035762787
v -0.0268027931451797 0.3657000064849854 -0.3400000035762787
v -0.0302668940275908 0.3596999943256378 -0.3400000035762787
v -0.0282668936997652 0.3602358996868134 -0.3400000035762787
v -0.0268027931451797 0.3616999983787537 -0.3400000035762787
v -0.0262668933719397 0.3637000024318695 -0.3400000035762787
v -0.0379347316920757 0.3402334451675415 -0.3400000035762787
v -0.0322668924927711 0.3602358996868134 -0.3400000035762787
v -0.0461750850081444 0.3457394838333130 -0.3400000035762787
v -0.0337309949100018 0.3616999983787537 -0.3400000035762787
v -0.0516811124980450 0.3539798259735107 -0.3400000035762787
v -0.0342668928205967 0.3637000024318695 -0.3400000035762787
v -0.0536145754158497 0.3637000024318695 -0.3400000035762787
v -0.0337309949100018 0.3657000064849854 -0.3400000035762787
v -0.0516811124980450 0.3734201490879059 -0.3400000035762787
v -0.0461750850081444 0.3816605210304260 -0.3400000035762787
v -0.0302668940275908 0.3677000105381012 -0.3379474282264709
v -0.0282668936997652 0.3671641051769257 -0.3379474282264709
v -0.0268027931451797 0.3657000064849854 -0.3379474282264709
v -0.0262668933719397 0.3637000024318695 -0.3379474282264709
v -0.0268027931451797 0.3616999983787537 -0.3379474282264709
v -0.0282668936997652 0.3602358996868134 -0.3379474282264709
v -0.0302668940275908 0.3596999943256378 -0.3379474282264709
v -0.0379347316920757 0.3402334451675415 -0.3379474282264709
v -0.0322668924927711 0.3602358996868134 -0.3379474282264709
v -0.0379347316920757 0.3871665298938751 -0.3379474282264709
v -0.0322668924927711 0.3671641051769257 -0.3379474282264709
v -0.0461750850081444 0.3816605210304260 -0.3379474282264709
v -0.0337309949100018 0.3657000064849854 -0.3379474282264709
v -0.0516811124980450 0.3734201490879059 -0.3379474282264709
v -0.0342668928205967 0.3637000024318695 -0.3379474282264709
v -0.0536145754158497 0.3637000024318695 -0.3379474282264709
v -0.0337309949100018 0.3616999983787537 -0.3379474282264709
v -0.0516811124980450 0.3539798259735107 -0.3379474282264709
v -0.0461750850081444 0.3457394838333130 -0.3379474282264709
v -0.0322668924927711 0.3671641051769257 -0.0000000000000311
v -0.0322668924927711 0.3602358996868134 -0.0000000000000311
v 0.0387933813035488 0.0576547458767891 -0.0006560133188032
v 0.0378462411463261 0.0537347570061684 -0.0006560133188032
v 0.0387933813035488 0.0576547458767891 -0.3308559954166412
v 0.0378462411463261 0.0537347570061684 -0.3308559954166412
v 0.0358721427619457 0.0604349896311760 -0.0006560133188032
v 0.0358721427619457 0.0604349896311760 -0.3308559954166412
v 0.0320037603378296 0.0592952445149422 -0.0006560133188032
v 0.0320037603378296 0.0592952445149422 -0.3308559954166412
v 0.0310566183179617 0.0553752519190311 -0.0006560133188032
v 0.0310566183179617 0.0553752519190311 -0.3308559954166412
v 0.0339778587222099 0.0525950081646442 -0.0006560133188032
v 0.0339778587222099 0.0525950081646442 -0.3308559954166412
v 0.0025400000158697 0.1485899984836578 -0.2658320069313049
v 0.0000000000000003 0.1511300057172775 -0.2658320069313049
v 0.0025400000158697 0.0190499965101480 -0.2658320069313049
v 0.0000000000000004 0.0165100041776896 -0.2658320069313049
v 0.0673099979758263 0.0190499965101480 -0.2658320069313049
v 0.0698499977588654 0.0165100041776896 -0.2658320069313049
v 0.0673099979758263 0.1485899984836578 -0.2658320069313049
v 0.0698499977588654 0.1511300057172775 -0.2658320069313049
v 0.0076199998147786 0.1511300057172775 -0.2709119915962219
v 0.0066674998961389 0.1511300057172775 -0.2711672186851501
v 0.0085725001990795 0.1511300057172775 -0.2711672186851501
v 0.0092697786167264 0.1511300057172775 -0.2718645036220551
v 0.0612775012850761 0.1511300057172775 -0.2744667828083038
v 0.0622299984097481 0.1511300057172775 -0.2747220098972321
v 0.0698499977588654 0.1511300057172775 -0.3308559954166412
v 0.0638797804713249 0.1511300057172775 -0.2718645036220551
v 0.0631825029850006 0.1511300057172775 -0.2711672186851501
v 0.0059702214784920 0.1511300057172775 -0.2718645036220551
v 0.0057149999774992 0.1511300057172775 -0.2728170156478882
v 0.0000000000000011 0.1511300057172775 -0.3308559954166412
v 0.0059702214784920 0.1511300057172775 -0.2737694978713989
v 0.0605802200734615 0.1511300057172775 -0.2737694978713989
v 0.0622299984097481 0.1511300057172775 -0.2709119915962219
v 0.0612775012850761 0.1511300057172775 -0.2711672186851501
v 0.0605802200734615 0.1511300057172775 -0.2718645036220551
v 0.0095250001177192 0.1511300057172775 -0.2728170156478882
v 0.0603250004351139 0.1511300057172775 -0.2728170156478882
v 0.0092697786167264 0.1511300057172775 -0.2737694978713989
v 0.0085725001990795 0.1511300057172775 -0.2744667828083038
v 0.0076199998147786 0.1511300057172775 -0.2747220098972321
v 0.0066674998961389 0.1511300057172775 -0.2744667828083038
v 0.0631825029850006 0.1511300057172775 -0.2744667828083038
v 0.0638797804713249 0.1511300057172775 -0.2737694978713989
v 0.0641350001096725 0.1511300057172775 -0.2728170156478882
v 0.0000000000000008 0.0403224974870682 -0.3010936379432678
v 0.0000000000000008 0.0419100001454353 -0.3015190064907074
v 0.0000000000000011 0.0165100041776896 -0.3308559954166412
v 0.0000000000000008 0.0434974953532219 -0.3010936379432678
v 0.0000000000000008 0.0446596294641495 -0.2999314963817596
v 0.0000000000000008 0.0403224974870682 -0.2955943644046783
v 0.0000000000000008 0.0391603708267212 -0.2967565059661865
v 0.0000000000000008 0.0387349948287010 -0.2983439862728119
v 0.0000000000000008 0.0391603708267212 -0.2999314963817596
v 0.0000000000000007 0.0954596325755119 -0.2967565059661865
v 0.0000000000000007 0.0958850011229515 -0.2983439862728119
v 0.0000000000000008 0.0954596325755119 -0.2999314963817596
v 0.0000000000000007 0.0942974984645844 -0.2955943644046783
v 0.0000000000000007 0.0927100032567978 -0.2951689958572388
v 0.0000000000000007 0.0911225005984306 -0.2955943644046783
v 0.0000000000000007 0.0899603664875031 -0.2967565059661865
v 0.0000000000000008 0.0899603664875031 -0.2999314963817596
v 0.0000000000000008 0.0911225005984306 -0.3010936379432678
v 0.0000000000000007 0.0927100032567978 -0.3015190064907074
v 0.0000000000000008 0.0942974984645844 -0.3010936379432678
v 0.0000000000000008 0.0895349979400635 -0.2983439862728119
v 0.0000000000000008 0.0450849980115891 -0.2983439862728119
v 0.0000000000000008 0.0446596294641495 -0.2967565059661865
v 0.0000000000000007 0.0434974953532219 -0.2955943644046783
v 0.0000000000000008 0.0419100001454353 -0.2951689958572388
v 0.0698499977588654 0.0165100041776896 -0.3308559954166412
v 0.0698499977588654 0.0804067924618721 -0.2721819877624512
v 0.0698499977588654 0.0806449949741364 -0.2730709910392761
v 0.0698499977588654 0.0788669958710670 -0.2748489975929260
v 0.0698499977588654 0.0797559991478920 -0.2746107876300812
v 0.0698499977588654 0.0804067924618721 -0.2739599943161011
v 0.0698499977588654 0.0773272067308426 -0.2721819877624512
v 0.0698499977588654 0.0779780000448227 -0.2715311944484711
v 0.0698499977588654 0.0788669958710670 -0.2712930142879486
v 0.0698499977588654 0.0797559991478920 -0.2715311944484711
v 0.0698499977588654 0.0779780000448227 -0.2746107876300812
v 0.0698499977588654 0.0773272067308426 -0.2739599943161011
v 0.0698499977588654 0.0770889967679977 -0.2730709910392761
v 0.0403860919177532 0.0521599203348160 -0.3308559954166412
v 0.0417348705232143 0.0549606904387474 -0.3308559954166412
v 0.0281151290982962 0.0580693036317825 -0.3308559954166412
v 0.0281151290982962 0.0549606904387474 -0.3308559954166412
v 0.0294639077037573 0.0521599203348160 -0.3308559954166412
v 0.0417348705232143 0.0580693036317825 -0.3308559954166412
v 0.0403860919177532 0.0608700737357140 -0.3308559954166412
v 0.0400049984455109 0.0825499966740608 -0.3308559954166412
v 0.0379556789994240 0.0628082677721977 -0.3308559954166412
v 0.0298449993133545 0.0825499966740608 -0.3308559954166412
v 0.0400049984455109 0.0876299962401390 -0.3308559954166412
v 0.0298449993133545 0.0876299962401390 -0.3308559954166412
v 0.0349249988794327 0.0634999945759773 -0.3308559954166412
v 0.0318943224847317 0.0628082677721977 -0.3308559954166412
v 0.0294639077037573 0.0608700737357140 -0.3308559954166412
v 0.0318943224847317 0.0502217337489128 -0.3308559954166412
v 0.0349249988794327 0.0495299994945526 -0.3308559954166412
v 0.0379556789994240 0.0502217337489128 -0.3308559954166412
v 0.0673099979758263 0.1485899984836578 -0.3283160030841827
v 0.0085725001990795 0.1485899984836578 -0.2744667828083038
v 0.0025400000158697 0.1485899984836578 -0.3283160030841827
v 0.0076199998147786 0.1485899984836578 -0.2747220098972321
v 0.0066674998961389 0.1485899984836578 -0.2744667828083038
v 0.0631825029850006 0.1485899984836578 -0.2744667828083038
v 0.0622299984097481 0.1485899984836578 -0.2747220098972321
v 0.0612775012850761 0.1485899984836578 -0.2744667828083038
v 0.0605802200734615 0.1485899984836578 -0.2737694978713989
v 0.0092697786167264 0.1485899984836578 -0.2737694978713989
v 0.0059702214784920 0.1485899984836578 -0.2737694978713989
v 0.0057149999774992 0.1485899984836578 -0.2728170156478882
v 0.0059702214784920 0.1485899984836578 -0.2718645036220551
v 0.0066674998961389 0.1485899984836578 -0.2711672186851501
v 0.0076199998147786 0.1485899984836578 -0.2709119915962219
v 0.0085725001990795 0.1485899984836578 -0.2711672186851501
v 0.0092697786167264 0.1485899984836578 -0.2718645036220551
v 0.0095250001177192 0.1485899984836578 -0.2728170156478882
v 0.0603250004351139 0.1485899984836578 -0.2728170156478882
v 0.0631825029850006 0.1485899984836578 -0.2711672186851501
v 0.0638797804713249 0.1485899984836578 -0.2718645036220551
v 0.0641350001096725 0.1485899984836578 -0.2728170156478882
v 0.0638797804713249 0.1485899984836578 -0.2737694978713989
v 0.0605802200734615 0.1485899984836578 -0.2718645036220551
v 0.0612775012850761 0.1485899984836578 -0.2711672186851501
v 0.0622299984097481 0.1485899984836578 -0.2709119915962219
v 0.0025400000158697 0.0954596325755119 -0.2999314963817596
v 0.0025400000158697 0.0942974984645844 -0.3010936379432678
v 0.0025400000158697 0.0927100032567978 -0.3015190064907074
v 0.0025400000158697 0.0403224974870682 -0.3010936379432678
v 0.0025400000158697 0.0391603708267212 -0.2999314963817596
v 0.0025400000158697 0.0190499965101480 -0.3283160030841827
v 0.0025400000158697 0.0387349948287010 -0.2983439862728119
v 0.0025400000158697 0.0391603708267212 -0.2967565059661865
v 0.0025400000158697 0.0403224974870682 -0.2955943644046783
v 0.0025400000158697 0.0954596325755119 -0.2967565059661865
v 0.0025400000158697 0.0958850011229515 -0.2983439862728119
v 0.0025400000158697 0.0446596294641495 -0.2999314963817596
v 0.0025400000158697 0.0434974953532219 -0.3010936379432678
v 0.0025400000158697 0.0419100001454353 -0.3015190064907074
v 0.0025400000158697 0.0899603664875031 -0.2967565059661865
v 0.0025400000158697 0.0911225005984306 -0.2955943644046783
v 0.0025400000158697 0.0927100032567978 -0.2951689958572388
v 0.0025400000158697 0.0942974984645844 -0.2955943644046783
v 0.0025400000158697 0.0911225005984306 -0.3010936379432678
v 0.0025400000158697 0.0899603664875031 -0.2999314963817596
v 0.0025400000158697 0.0450849980115891 -0.2983439862728119
v 0.0025400000158697 0.0895349979400635 -0.2983439862728119
v 0.0025400000158697 0.0446596294641495 -0.2967565059661865
v 0.0025400000158697 0.0434974953532219 -0.2955943644046783
v 0.0025400000158697 0.0419100001454353 -0.2951689958572388
v 0.0673099979758263 0.0190499965101480 -0.3283160030841827
v 0.0673099979758263 0.0779780000448227 -0.2746107876300812
v 0.0673099979758263 0.0788669958710670 -0.2748489975929260
v 0.0673099979758263 0.0797559991478920 -0.2746107876300812
v 0.0673099979758263 0.0804067924618721 -0.2739599943161011
v 0.0673099979758263 0.0806449949741364 -0.2730709910392761
v 0.0673099979758263 0.0804067924618721 -0.2721819877624512
v 0.0673099979758263 0.0797559991478920 -0.2715311944484711
v 0.0673099979758263 0.0788669958710670 -0.2712930142879486
v 0.0673099979758263 0.0779780000448227 -0.2715311944484711
v 0.0673099979758263 0.0773272067308426 -0.2721819877624512
v 0.0673099979758263 0.0770889967679977 -0.2730709910392761
v 0.0673099979758263 0.0773272067308426 -0.2739599943161011
v 0.0281151290982962 0.0580693036317825 -0.3283160030841827
v 0.0294639077037573 0.0608700737357140 -0.3283160030841827
v 0.0298449993133545 0.0825499966740608 -0.3283160030841827
v 0.0318943224847317 0.0502217337489128 -0.3283160030841827
v 0.0294639077037573 0.0521599203348160 -0.3283160030841827
v 0.0281151290982962 0.0549606904387474 -0.3283160030841827
v 0.0298449993133545 0.0876299962401390 -0.3283160030841827
v 0.0400049984455109 0.0876299962401390 -0.3283160030841827
v 0.0400049984455109 0.0825499966740608 -0.3283160030841827
v 0.0318943224847317 0.0628082677721977 -0.3283160030841827
v 0.0349249988794327 0.0634999945759773 -0.3283160030841827
v 0.0379556789994240 0.0628082677721977 -0.3283160030841827
v 0.0403860919177532 0.0608700737357140 -0.3283160030841827
v 0.0417348705232143 0.0580693036317825 -0.3283160030841827
v 0.0417348705232143 0.0549606904387474 -0.3283160030841827
v 0.0403860919177532 0.0521599203348160 -0.3283160030841827
v 0.0379556789994240 0.0502217337489128 -0.3283160030841827
v 0.0349249988794327 0.0495299994945526 -0.3283160030841827
v 0.0571499988436699 0.1485899984836578 -0.2687529921531677
v 0.0571499988436699 0.1455419957637787 -0.2687529921531677
v 0.0551179982721806 0.1455419957637787 -0.2687529921531677
v 0.0025400021113455 0.0190499965101480 -0.2687529921531677
v 0.0551179982721806 0.0455930009484291 -0.2687529921531677
v 0.0673099979758263 0.0190499965101480 -0.2687529921531677
v 0.0596899986267090 0.0455930009484291 -0.2687529921531677
v 0.0147320013493299 0.0455930009484291 -0.2687529921531677
v 0.0101600009948015 0.0455930009484291 -0.2687529921531677
v 0.0025400021113455 0.1435099989175797 -0.2687529921531677
v 0.0101600009948015 0.1435099989175797 -0.2687529921531677
v 0.0127000007778406 0.1485899984836578 -0.2687529921531677
v 0.0147320013493299 0.1455419957637787 -0.2687529921531677
v 0.0127000007778406 0.1455419957637787 -0.2687529921531677
v 0.0673099979758263 0.0736600011587143 -0.2687529921531677
v 0.0622299984097481 0.0736600011587143 -0.2687529921531677
v 0.0622299984097481 0.0838200002908707 -0.2687529921531677
v 0.0596899986267090 0.1435099989175797 -0.2687529921531677
v 0.0673099979758263 0.0838200002908707 -0.2687529921531677
v 0.0673099979758263 0.1435099989175797 -0.2687529921531677
v 0.0330002605915070 0.0820737481117249 -0.2687529921531677
v 0.0327025018632412 0.0809625014662743 -0.2687529921531677
v 0.0379556789994240 0.0628082677721977 -0.2687529921531677
v 0.0349250026047230 0.0634999945759773 -0.2687529921531677
v 0.0349250026047230 0.0787400007247925 -0.2687529921531677
v 0.0545224845409393 0.0840104967355728 -0.2687529921531677
v 0.0551179982721806 0.0862329974770546 -0.2687529921531677
v 0.0147320013493299 0.0862329974770546 -0.2687529921531677
v 0.0153275150805712 0.0840104967355728 -0.2687529921531677
v 0.0169544983655214 0.0823835134506226 -0.2687529921531677
v 0.0330002605915070 0.0798512473702431 -0.2687529921531677
v 0.0338137522339821 0.0790377557277679 -0.2687529921531677
v 0.0294639077037573 0.0608700737357140 -0.2687529921531677
v 0.0153275150805712 0.1329054981470108 -0.2687529921531677
v 0.0191769991070032 0.0906779989600182 -0.2687529921531677
v 0.0169544983655214 0.0900824815034866 -0.2687529921531677
v 0.0318943224847317 0.0628082677721977 -0.2687529921531677
v 0.0281151290982962 0.0580693036317825 -0.2687529921531677
v 0.0281151290982962 0.0549606904387474 -0.2687529921531677
v 0.0294639077037573 0.0521599203348160 -0.2687529921531677
v 0.0318943224847317 0.0502217337489128 -0.2687529921531677
v 0.0349250026047230 0.0495299994945526 -0.2687529921531677
v 0.0379556789994240 0.0502217337489128 -0.2687529921531677
v 0.0403860919177532 0.0521599203348160 -0.2687529921531677
v 0.0417348705232143 0.0549606904387474 -0.2687529921531677
v 0.0417348705232143 0.0580693036317825 -0.2687529921531677
v 0.0528955012559891 0.0823835134506226 -0.2687529921531677
v 0.0191769991070032 0.1395729929208755 -0.2687529921531677
v 0.0169544983655214 0.1389774829149246 -0.2687529921531677
v 0.0153275150805712 0.1373504996299744 -0.2687529921531677
v 0.0147320013493299 0.1351280063390732 -0.2687529921531677
v 0.0191769991070032 0.0817879959940910 -0.2687529921531677
v 0.0213994998484850 0.0823835134506226 -0.2687529921531677
v 0.0230264831334352 0.0840104967355728 -0.2687529921531677
v 0.0338137522339821 0.0828872397542000 -0.2687529921531677
v 0.0153275150805712 0.0884554982185364 -0.2687529921531677
v 0.0551179982721806 0.1351280063390732 -0.2687529921531677
v 0.0545224845409393 0.1329054981470108 -0.2687529921531677
v 0.0528955012559891 0.1312785148620605 -0.2687529921531677
v 0.0213994998484850 0.1389774829149246 -0.2687529921531677
v 0.0230264831334352 0.1373504996299744 -0.2687529921531677
v 0.0236220005899668 0.0862329974770546 -0.2687529921531677
v 0.0230264831334352 0.0884554982185364 -0.2687529921531677
v 0.0213994998484850 0.0900824815034866 -0.2687529921531677
v 0.0528955012559891 0.1389774829149246 -0.2687529921531677
v 0.0545224845409393 0.1373504996299744 -0.2687529921531677
v 0.0468235164880753 0.0840104967355728 -0.2687529921531677
v 0.0484504997730255 0.0823835134506226 -0.2687529921531677
v 0.0506730005145073 0.0817879959940910 -0.2687529921531677
v 0.0368497446179390 0.0820737481117249 -0.2687529921531677
v 0.0462279990315437 0.0862329974770546 -0.2687529921531677
v 0.0371475033462048 0.0809625014662743 -0.2687529921531677
v 0.0368497446179390 0.0798512473702431 -0.2687529921531677
v 0.0360362529754639 0.0790377557277679 -0.2687529921531677
v 0.0403860919177532 0.0608700737357140 -0.2687529921531677
v 0.0545224845409393 0.0884554982185364 -0.2687529921531677
v 0.0528955012559891 0.0900824815034866 -0.2687529921531677
v 0.0506730005145073 0.1306830048561096 -0.2687529921531677
v 0.0506730005145073 0.0906779989600182 -0.2687529921531677
v 0.0484504997730255 0.1312785148620605 -0.2687529921531677
v 0.0484504997730255 0.0900824815034866 -0.2687529921531677
v 0.0462279990315437 0.1351280063390732 -0.2687529921531677
v 0.0468235164880753 0.1329054981470108 -0.2687529921531677
v 0.0169544983655214 0.1312785148620605 -0.2687529921531677
v 0.0191769991070032 0.1306830048561096 -0.2687529921531677
v 0.0349250026047230 0.0831849947571754 -0.2687529921531677
v 0.0213994998484850 0.1312785148620605 -0.2687529921531677
v 0.0360362529754639 0.0828872397542000 -0.2687529921531677
v 0.0468235164880753 0.0884554982185364 -0.2687529921531677
v 0.0506730005145073 0.1395729929208755 -0.2687529921531677
v 0.0484504997730255 0.1389774829149246 -0.2687529921531677
v 0.0468235164880753 0.1373504996299744 -0.2687529921531677
v 0.0236220005899668 0.1351280063390732 -0.2687529921531677
v 0.0230264831334352 0.1329054981470108 -0.2687529921531677
v 0.0551179982721806 0.1455419957637787 -0.2712930142879486
v 0.0571499988436699 0.1455419957637787 -0.2712930142879486
v 0.0596899986267090 0.0455930009484291 -0.2712930142879486
v 0.0596899986267090 0.1435099989175797 -0.2712930142879486
v 0.0571499988436699 0.1435099989175797 -0.2712930142879486
v 0.0551179982721806 0.0455930009484291 -0.2712930142879486
v 0.0101600009948015 0.0455930009484291 -0.2712930142879486
v 0.0101600009948015 0.1435099989175797 -0.2712930142879486
v 0.0025400021113455 0.0190499965101480 -0.2658320069313049
v 0.0000000022411351 0.0165100041776896 -0.2658320069313049
v 0.0025400021113455 0.1485899984836578 -0.2658320069313049
v 0.0000000022411348 0.1511300057172775 -0.2658320069313049
v 0.0698499977588654 0.1511300057172775 -0.2613869905471802
v 0.0000000022411348 0.1511300057172775 -0.2613869905471802
v 0.0698499977588654 0.0165100041776896 -0.2613869905471802
v 0.0000000022411348 0.0165100041776896 -0.2613869905471802
v 0.0338137522339821 0.0828872397542000 -0.2613869905471802
v 0.0349250026047230 0.0831849947571754 -0.2613869905471802
v 0.0360362529754639 0.0828872397542000 -0.2613869905471802
v 0.0368497446179390 0.0820737481117249 -0.2613869905471802
v 0.0371475033462048 0.0809625014662743 -0.2613869905471802
v 0.0368497446179390 0.0798512473702431 -0.2613869905471802
v 0.0360362529754639 0.0790377557277679 -0.2613869905471802
v 0.0338137522339821 0.0790377557277679 -0.2613869905471802
v 0.0330002605915070 0.0798512473702431 -0.2613869905471802
v 0.0327025018632412 0.0809625014662743 -0.2613869905471802
v 0.0330002605915070 0.0820737481117249 -0.2613869905471802
v 0.0403860919177532 0.0608700737357140 -0.2613869905471802
v 0.0417348705232143 0.0580693036317825 -0.2613869905471802
v 0.0417348705232143 0.0549606904387474 -0.2613869905471802
v 0.0403860919177532 0.0521599203348160 -0.2613869905471802
v 0.0379556789994240 0.0502217337489128 -0.2613869905471802
v 0.0349250026047230 0.0495299994945526 -0.2613869905471802
v 0.0318943224847317 0.0502217337489128 -0.2613869905471802
v 0.0294639077037573 0.0521599203348160 -0.2613869905471802
v 0.0281151290982962 0.0549606904387474 -0.2613869905471802
v 0.0281151290982962 0.0580693036317825 -0.2613869905471802
v 0.0294639077037573 0.0608700737357140 -0.2613869905471802
v 0.0318943224847317 0.0628082677721977 -0.2613869905471802
v 0.0349250026047230 0.0787400007247925 -0.2613869905471802
v 0.0349250026047230 0.0634999945759773 -0.2613869905471802
v 0.0379556789994240 0.0628082677721977 -0.2613869905471802
v 0.0025400021113455 0.1435099989175797 -0.2731980085372925
v 0.0025400021113455 0.1485899984836578 -0.2731980085372925
v 0.0085724983364344 0.1485899984836578 -0.2715482115745544
v 0.0076200016774237 0.1485899984836578 -0.2712930142879486
v 0.0631825029850006 0.1485899984836578 -0.2715482115745544
v 0.0622299984097481 0.1485899984836578 -0.2712930142879486
v 0.0612775012850761 0.1485899984836578 -0.2715482115745544
v 0.0605802200734615 0.1485899984836578 -0.2722454965114594
v 0.0571499988436699 0.1485899984836578 -0.2731980085372925
v 0.0603250004351139 0.1485899984836578 -0.2731980085372925
v 0.0578305907547474 0.1485899984836578 -0.2757380008697510
v 0.0605802200734615 0.1485899984836578 -0.2741504907608032
v 0.0596899986267090 0.1485899984836578 -0.2775973975658417
v 0.0612775012850761 0.1485899984836578 -0.2748477756977081
v 0.0622299984097481 0.1485899984836578 -0.2782779932022095
v 0.0622299984097481 0.1485899984836578 -0.2751030027866364
v 0.0647699981927872 0.1485899984836578 -0.2775973975658417
v 0.0631825029850006 0.1485899984836578 -0.2748477756977081
v 0.0666294097900391 0.1485899984836578 -0.2757380008697510
v 0.0638797804713249 0.1485899984836578 -0.2741504907608032
v 0.0673099979758263 0.1485899984836578 -0.2731980085372925
v 0.0641350001096725 0.1485899984836578 -0.2731980085372925
v 0.0638797804713249 0.1485899984836578 -0.2722454965114594
v 0.0066674971021712 0.1485899984836578 -0.2715482115745544
v 0.0059702196158469 0.1485899984836578 -0.2722454965114594
v 0.0057149999774992 0.1485899984836578 -0.2731980085372925
v 0.0032205902971327 0.1485899984836578 -0.2757380008697510
v 0.0059702196158469 0.1485899984836578 -0.2741504907608032
v 0.0050800018943846 0.1485899984836578 -0.2775973975658417
v 0.0066674971021712 0.1485899984836578 -0.2748477756977081
v 0.0076200016774237 0.1485899984836578 -0.2782779932022095
v 0.0076200016774237 0.1485899984836578 -0.2751030027866364
v 0.0101600009948015 0.1485899984836578 -0.2775973975658417
v 0.0085724983364344 0.1485899984836578 -0.2748477756977081
v 0.0120194088667631 0.1485899984836578 -0.2757380008697510
v 0.0092697795480490 0.1485899984836578 -0.2741504907608032
v 0.0127000007778406 0.1485899984836578 -0.2731980085372925
v 0.0095249991863966 0.1485899984836578 -0.2731980085372925
v 0.0092697795480490 0.1485899984836578 -0.2722454965114594
v 0.0673099979758263 0.1435099989175797 -0.2731980085372925
v 0.0673099979758263 0.0787400007247925 -0.2712930142879486
v 0.0673099979758263 0.0777874961495399 -0.2715482115745544
v 0.0673099979758263 0.0796924978494644 -0.2715482115745544
v 0.0673099979758263 0.0803897753357887 -0.2722454965114594
v 0.0673099979758263 0.0838200002908707 -0.2731980085372925
v 0.0673099979758263 0.0806449949741364 -0.2731980085372925
v 0.0673099979758263 0.0831394046545029 -0.2757380008697510
v 0.0673099979758263 0.0803897753357887 -0.2741504907608032
v 0.0673099979758263 0.0812800005078316 -0.2775973975658417
v 0.0673099979758263 0.0796924978494644 -0.2748477756977081
v 0.0673099979758263 0.0787400007247925 -0.2782779932022095
v 0.0673099979758263 0.0787400007247925 -0.2751030027866364
v 0.0673099979758263 0.0762000009417534 -0.2775973975658417
v 0.0673099979758263 0.0777874961495399 -0.2748477756977081
v 0.0673099979758263 0.0743405893445015 -0.2757380008697510
v 0.0673099979758263 0.0770902186632156 -0.2741504907608032
v 0.0673099979758263 0.0736600011587143 -0.2731980085372925
v 0.0673099979758263 0.0768349990248680 -0.2731980085372925
v 0.0673099979758263 0.0770902186632156 -0.2722454965114594
v 0.0127000007778406 0.1455419957637787 -0.2712930142879486
v 0.0147320013493299 0.1455419957637787 -0.2712930142879486
v 0.0147320013493299 0.0455930009484291 -0.2712930142879486
v 0.0127000007778406 0.1435099989175797 -0.2712930142879486
v 0.0127000007778406 0.1435099989175797 -0.2731980085372925
v 0.0092697795480490 0.1435099989175797 -0.2722454965114594
v 0.0095249991863966 0.1435099989175797 -0.2731980085372925
v 0.0120194088667631 0.1435099989175797 -0.2757380008697510
v 0.0092697795480490 0.1435099989175797 -0.2741504907608032
v 0.0101600009948015 0.1435099989175797 -0.2775973975658417
v 0.0085724983364344 0.1435099989175797 -0.2748477756977081
v 0.0076200016774237 0.1435099989175797 -0.2782779932022095
v 0.0076200016774237 0.1435099989175797 -0.2751030027866364
v 0.0050800018943846 0.1435099989175797 -0.2775973975658417
v 0.0066674971021712 0.1435099989175797 -0.2748477756977081
v 0.0032205902971327 0.1435099989175797 -0.2757380008697510
v 0.0059702196158469 0.1435099989175797 -0.2741504907608032
v 0.0057149999774992 0.1435099989175797 -0.2731980085372925
v 0.0059702196158469 0.1435099989175797 -0.2722454965114594
v 0.0066674971021712 0.1435099989175797 -0.2715482115745544
v 0.0076200016774237 0.1435099989175797 -0.2712930142879486
v 0.0085724983364344 0.1435099989175797 -0.2715482115745544
v 0.0571499988436699 0.1435099989175797 -0.2731980085372925
v 0.0605802200734615 0.1435099989175797 -0.2741504907608032
v 0.0603250004351139 0.1435099989175797 -0.2731980085372925
v 0.0605802200734615 0.1435099989175797 -0.2722454965114594
v 0.0612775012850761 0.1435099989175797 -0.2715482115745544
v 0.0622299984097481 0.1435099989175797 -0.2712930142879486
v 0.0631825029850006 0.1435099989175797 -0.2715482115745544
v 0.0638797804713249 0.1435099989175797 -0.2722454965114594
v 0.0641350001096725 0.1435099989175797 -0.2731980085372925
v 0.0666294097900391 0.1435099989175797 -0.2757380008697510
v 0.0638797804713249 0.1435099989175797 -0.2741504907608032
v 0.0647699981927872 0.1435099989175797 -0.2775973975658417
v 0.0631825029850006 0.1435099989175797 -0.2748477756977081
v 0.0622299984097481 0.1435099989175797 -0.2782779932022095
v 0.0622299984097481 0.1435099989175797 -0.2751030027866364
v 0.0596899986267090 0.1435099989175797 -0.2775973975658417
v 0.0612775012850761 0.1435099989175797 -0.2748477756977081
v 0.0578305907547474 0.1435099989175797 -0.2757380008697510
v 0.0622299984097481 0.0838200002908707 -0.2731980085372925
v 0.0622299984097481 0.0831394046545029 -0.2757380008697510
v 0.0622299984097481 0.0812800005078316 -0.2775973975658417
v 0.0622299984097481 0.0787400007247925 -0.2782779932022095
v 0.0622299984097481 0.0762000009417534 -0.2775973975658417
v 0.0622299984097481 0.0743405893445015 -0.2757380008697510
v 0.0622299984097481 0.0736600011587143 -0.2731980085372925
v 0.0622299984097481 0.0787400007247925 -0.2712930142879486
v 0.0622299984097481 0.0796924978494644 -0.2715482115745544
v 0.0622299984097481 0.0777874961495399 -0.2715482115745544
v 0.0622299984097481 0.0770902186632156 -0.2722454965114594
v 0.0622299984097481 0.0768349990248680 -0.2731980085372925
v 0.0622299984097481 0.0770902186632156 -0.2741504907608032
v 0.0622299984097481 0.0777874961495399 -0.2748477756977081
v 0.0622299984097481 0.0787400007247925 -0.2751030027866364
v 0.0622299984097481 0.0796924978494644 -0.2748477756977081
v 0.0622299984097481 0.0803897753357887 -0.2741504907608032
v 0.0622299984097481 0.0806449949741364 -0.2731980085372925
v 0.0622299984097481 0.0803897753357887 -0.2722454965114594
v 0.0191769991070032 0.1306830048561096 -0.2636730074882507
v 0.0169544983655214 0.1312785148620605 -0.2636730074882507
v 0.0153275150805712 0.1329054981470108 -0.2636730074882507
v 0.0147320013493299 0.1351280063390732 -0.2636730074882507
v 0.0153275150805712 0.1373504996299744 -0.2636730074882507
v 0.0169544983655214 0.1389774829149246 -0.2636730074882507
v 0.0191769991070032 0.1395729929208755 -0.2636730074882507
v 0.0213994998484850 0.1389774829149246 -0.2636730074882507
v 0.0230264831334352 0.1373504996299744 -0.2636730074882507
v 0.0236220005899668 0.1351280063390732 -0.2636730074882507
v 0.0230264831334352 0.1329054981470108 -0.2636730074882507
v 0.0213994998484850 0.1312785148620605 -0.2636730074882507
v 0.0191769991070032 0.1351280063390732 -0.2636730074882507
v 0.0191769991070032 0.0817879959940910 -0.2636730074882507
v 0.0169544983655214 0.0823835134506226 -0.2636730074882507
v 0.0153275150805712 0.0840104967355728 -0.2636730074882507
v 0.0147320013493299 0.0862329974770546 -0.2636730074882507
v 0.0153275150805712 0.0884554982185364 -0.2636730074882507
v 0.0169544983655214 0.0900824815034866 -0.2636730074882507
v 0.0191769991070032 0.0906779989600182 -0.2636730074882507
v 0.0213994998484850 0.0900824815034866 -0.2636730074882507
v 0.0230264831334352 0.0884554982185364 -0.2636730074882507
v 0.0236220005899668 0.0862329974770546 -0.2636730074882507
v 0.0230264831334352 0.0840104967355728 -0.2636730074882507
v 0.0213994998484850 0.0823835134506226 -0.2636730074882507
v 0.0191769991070032 0.0862329974770546 -0.2636730074882507
v 0.0506730005145073 0.0817879959940910 -0.2636730074882507
v 0.0484504997730255 0.0823835134506226 -0.2636730074882507
v 0.0468235164880753 0.0840104967355728 -0.2636730074882507
v 0.0462279990315437 0.0862329974770546 -0.2636730074882507
v 0.0468235164880753 0.0884554982185364 -0.2636730074882507
v 0.0484504997730255 0.0900824815034866 -0.2636730074882507
v 0.0506730005145073 0.0906779989600182 -0.2636730074882507
v 0.0528955012559891 0.0900824815034866 -0.2636730074882507
v 0.0545224845409393 0.0884554982185364 -0.2636730074882507
v 0.0551179982721806 0.0862329974770546 -0.2636730074882507
v 0.0545224845409393 0.0840104967355728 -0.2636730074882507
v 0.0528955012559891 0.0823835134506226 -0.2636730074882507
v 0.0506730005145073 0.0862329974770546 -0.2636730074882507
v 0.0506730005145073 0.1306830048561096 -0.2636730074882507
v 0.0484504997730255 0.1312785148620605 -0.2636730074882507
v 0.0468235164880753 0.1329054981470108 -0.2636730074882507
v 0.0462279990315437 0.1351280063390732 -0.2636730074882507
v 0.0468235164880753 0.1373504996299744 -0.2636730074882507
v 0.0484504997730255 0.1389774829149246 -0.2636730074882507
v 0.0506730005145073 0.1395729929208755 -0.2636730074882507
v 0.0528955012559891 0.1389774829149246 -0.2636730074882507
v 0.0545224845409393 0.1373504996299744 -0.2636730074882507
v 0.0551179982721806 0.1351280063390732 -0.2636730074882507
v 0.0545224845409393 0.1329054981470108 -0.2636730074882507
v 0.0528955012559891 0.1312785148620605 -0.2636730074882507
v 0.0506730005145073 0.1351280063390732 -0.2636730074882507
v 0.0290194954723120 0.0645794942975044 -0.1727954447269440
v 0.0290194954723120 0.0645794942975044 -0.1677154451608658
v 0.0287302434444427 0.0656589940190315 -0.1727954447269440
v 0.0287302434444427 0.0656589940190315 -0.1677154451608658
v 0.0279399938881397 0.0664492473006248 -0.1727954447269440
v 0.0279399938881397 0.0664492473006248 -0.1677154451608658
v 0.0268604941666126 0.0667384937405586 -0.1727954447269440
v 0.0268604941666126 0.0667384937405586 -0.1677154451608658
v 0.0257809944450855 0.0664492473006248 -0.1727954447269440
v 0.0257809944450855 0.0664492473006248 -0.1677154451608658
v 0.0249907467514277 0.0656589940190315 -0.1727954447269440
v 0.0249907467514277 0.0656589940190315 -0.1677154451608658
v 0.0247014947235584 0.0645794942975044 -0.1727954447269440
v 0.0247014947235584 0.0645794942975044 -0.1677154451608658
v 0.0249907467514277 0.0634999945759773 -0.1727954447269440
v 0.0249907467514277 0.0634999945759773 -0.1677154451608658
v 0.0257809963077307 0.0627097487449646 -0.1727954447269440
v 0.0257809963077307 0.0627097487449646 -0.1677154451608658
v 0.0268604960292578 0.0624204948544502 -0.1727954447269440
v 0.0268604960292578 0.0624204948544502 -0.1677154451608658
v 0.0279399957507849 0.0627097487449646 -0.1727954447269440
v 0.0279399957507849 0.0627097487449646 -0.1677154451608658
v 0.0287302453070879 0.0634999945759773 -0.1727954447269440
v 0.0287302453070879 0.0634999945759773 -0.1677154451608658
v 0.0451484955847263 0.0645795017480850 -0.1727954447269440
v 0.0451484955847263 0.0645795017480850 -0.1677154451608658
v 0.0448592416942120 0.0656590014696121 -0.1727954447269440
v 0.0448592416942120 0.0656590014696121 -0.1677154451608658
v 0.0440689958631992 0.0664492547512054 -0.1727954447269440
v 0.0440689958631992 0.0664492547512054 -0.1677154451608658
v 0.0429894924163818 0.0667385011911392 -0.1727954447269440
v 0.0429894924163818 0.0667385011911392 -0.1677154451608658
v 0.0419099926948547 0.0664492547512054 -0.1727954447269440
v 0.0419099926948547 0.0664492547512054 -0.1677154451608658
v 0.0411197468638420 0.0656590014696121 -0.1727954447269440
v 0.0411197468638420 0.0656590014696121 -0.1677154451608658
v 0.0408304966986179 0.0645795017480850 -0.1727954447269440
v 0.0408304966986179 0.0645795017480850 -0.1677154451608658
v 0.0411197468638420 0.0635000020265579 -0.1727954447269440
v 0.0411197468638420 0.0635000020265579 -0.1677154451608658
v 0.0419099964201450 0.0627097561955452 -0.1727954447269440
v 0.0419099964201450 0.0627097561955452 -0.1677154451608658
v 0.0429894961416721 0.0624205023050308 -0.1727954447269440
v 0.0429894961416721 0.0624205023050308 -0.1677154451608658
v 0.0440689958631992 0.0627097561955452 -0.1727954447269440
v 0.0440689958631992 0.0627097561955452 -0.1677154451608658
v 0.0448592454195023 0.0635000020265579 -0.1727954447269440
v 0.0448592454195023 0.0635000020265579 -0.1677154451608658
v 0.0451485067605972 0.0484505072236061 -0.1727954447269440
v 0.0451485067605972 0.0484505072236061 -0.1677154451608658
v 0.0448592528700829 0.0495300069451332 -0.1727954447269440
v 0.0448592528700829 0.0495300069451332 -0.1677154451608658
v 0.0440690033137798 0.0503202527761459 -0.1727954447269440
v 0.0440690033137798 0.0503202527761459 -0.1677154451608658
v 0.0429895035922527 0.0506095066666603 -0.1727954447269440
v 0.0429895035922527 0.0506095066666603 -0.1677154451608658
v 0.0419100038707256 0.0503202527761459 -0.1727954447269440
v 0.0419100038707256 0.0503202527761459 -0.1677154451608658
v 0.0411197543144226 0.0495300069451332 -0.1727954447269440
v 0.0411197543144226 0.0495300069451332 -0.1677154451608658
v 0.0408305041491985 0.0484505072236061 -0.1727954447269440
v 0.0408305041491985 0.0484505072236061 -0.1677154451608658
v 0.0411197580397129 0.0473710075020790 -0.1727954447269440
v 0.0411197580397129 0.0473710075020790 -0.1677154451608658
v 0.0419100038707256 0.0465807542204857 -0.1727954447269440
v 0.0419100038707256 0.0465807542204857 -0.1677154451608658
v 0.0429895073175430 0.0462915077805519 -0.1727954447269440
v 0.0429895073175430 0.0462915077805519 -0.1677154451608658
v 0.0440690070390701 0.0465807542204857 -0.1727954447269440
v 0.0440690070390701 0.0465807542204857 -0.1677154451608658
v 0.0448592528700829 0.0473710075020790 -0.1727954447269440
v 0.0448592528700829 0.0473710075020790 -0.1677154451608658
v 0.0290195047855377 0.0484504997730255 -0.1727954447269440
v 0.0290195047855377 0.0484504997730255 -0.1677154451608658
v 0.0287302527576685 0.0495299994945526 -0.1727954447269440
v 0.0287302527576685 0.0495299994945526 -0.1677154451608658
v 0.0279400032013655 0.0503202453255653 -0.1727954447269440
v 0.0279400032013655 0.0503202453255653 -0.1677154451608658
v 0.0268605034798384 0.0506094992160797 -0.1727954447269440
v 0.0268605034798384 0.0506094992160797 -0.1677154451608658
v 0.0257810037583113 0.0503202416002750 -0.1727954447269440
v 0.0257810037583113 0.0503202416002750 -0.1677154451608658
v 0.0249907560646534 0.0495299957692623 -0.1727954447269440
v 0.0249907560646534 0.0495299957692623 -0.1677154451608658
v 0.0247015040367842 0.0484504960477352 -0.1727954447269440
v 0.0247015040367842 0.0484504960477352 -0.1677154451608658
v 0.0249907560646534 0.0473709963262081 -0.1727954447269440
v 0.0249907560646534 0.0473709963262081 -0.1677154451608658
v 0.0257810056209564 0.0465807430446148 -0.1727954447269440
v 0.0257810056209564 0.0465807430446148 -0.1677154451608658
v 0.0268605053424835 0.0462915003299713 -0.1727954447269440
v 0.0268605053424835 0.0462915003299713 -0.1677154451608658
v 0.0279400050640106 0.0465807467699051 -0.1727954447269440
v 0.0279400050640106 0.0465807467699051 -0.1677154451608658
v 0.0287302546203136 0.0473710000514984 -0.1727954447269440
v 0.0287302546203136 0.0473710000514984 -0.1677154451608658
v 0.0399732515215874 0.0514667555689812 -0.1727954447269440
v 0.0400039330124855 0.0726243257522583 -0.1727954447269440
v 0.0518160052597523 0.0514667630195618 -0.1727954447269440
v 0.0518160015344620 0.0565150082111359 -0.1727954447269440
v 0.0512404516339302 0.0608867220580578 -0.1727954447269440
v 0.0495530292391777 0.0649605095386505 -0.1727954447269440
v 0.0468687340617180 0.0684587433934212 -0.1727954447269440
v 0.0433704927563667 0.0711430385708809 -0.1727954447269440
v 0.0349250026047230 0.0523240007460117 -0.1727954447269440
v 0.0370205007493496 0.0528854914009571 -0.1727954447269440
v 0.0229812525212765 0.0684587359428406 -0.1727954447269440
v 0.0202969610691071 0.0649604871869087 -0.1727954447269440
v 0.0307340007275343 0.0565149933099747 -0.1727954447269440
v 0.0312954895198345 0.0544194951653481 -0.1727954447269440
v 0.0180340018123388 0.0514667406678200 -0.1727954447269440
v 0.0328295007348061 0.0528854914009571 -0.1727954447269440
v 0.0312954857945442 0.0586104989051819 -0.1727954447269440
v 0.0186095442622900 0.0608867034316063 -0.1727954447269440
v 0.0180339999496937 0.0565149858593941 -0.1727954447269440
v 0.0392967015504837 0.0728304535150528 -0.1727954447269440
v 0.0349249914288521 0.0734059959650040 -0.1727954447269440
v 0.0264794919639826 0.0711430311203003 -0.1727954447269440
v 0.0305532775819302 0.0728304460644722 -0.1727954447269440
v 0.0328294970095158 0.0601445101201534 -0.1727954447269440
v 0.0385545119643211 0.0544194988906384 -0.1727954447269440
v 0.0391159988939762 0.0565150007605553 -0.1727954447269440
v 0.0385545119643211 0.0586105026304722 -0.1727954447269440
v 0.0370204970240593 0.0601445101201534 -0.1727954447269440
v 0.0349249988794327 0.0607060007750988 -0.1727954447269440
v 0.0399732962250710 -0.0260349977761507 -0.1727954447269440
v -0.0403859689831734 0.0082549573853612 -0.1727954447269440
v -0.0361469462513924 0.0077773369848728 -0.1727954447269440
v -0.0403859503567219 -0.0260350424796343 -0.1727954447269440
v -0.0321204885840416 0.0063684196211398 -0.1727954447269440
v -0.0285084899514914 0.0040988535620272 -0.1727954447269440
v -0.0254920795559883 0.0010824467753991 -0.1727954447269440
v -0.0232225079089403 -0.0025295487139374 -0.1727954447269440
v 0.0180340372025967 -0.0107950102537870 -0.1727954447269440
v -0.0213359612971544 -0.0107950326055288 -0.1727954447269440
v -0.0218135863542557 -0.0065560094080865 -0.1727954447269440
v 0.0518160499632359 -0.0260349903255701 -0.1727954447269440
v 0.0285115055739880 0.0455908775329590 -0.1626354455947876
v 0.0268605072051287 0.0451484993100166 -0.1626354455947876
v 0.0180340372025967 -0.0107950102537870 -0.1626354455947876
v -0.0403859503567219 -0.0260350424796343 -0.1626354455947876
v -0.0213359612971544 -0.0107950326055288 -0.1626354455947876
v -0.0218135863542557 -0.0065560094080865 -0.1626354455947876
v 0.0394017957150936 -0.0260349977761507 -0.1626354455947876
v 0.0252095051109791 0.0455908738076687 -0.1626354455947876
v 0.0240008905529976 0.0467994920909405 -0.1626354455947876
v 0.0180340018123388 0.0520382374525070 -0.1626354455947876
v 0.0235585048794746 0.0484504960477352 -0.1626354455947876
v 0.0240008886903524 0.0501014925539494 -0.1626354455947876
v 0.0285115037113428 0.0513101145625114 -0.1626354455947876
v 0.0394017510116100 0.0520382523536682 -0.1626354455947876
v 0.0268605034798384 0.0517525002360344 -0.1626354455947876
v 0.0252095032483339 0.0513101108372211 -0.1626354455947876
v 0.0297201201319695 0.0501014962792397 -0.1626354455947876
v 0.0301625039428473 0.0484504997730255 -0.1626354455947876
v 0.0297201219946146 0.0467994958162308 -0.1626354455947876
v -0.0232225079089403 -0.0025295487139374 -0.1626354455947876
v -0.0254920795559883 0.0010824467753991 -0.1626354455947876
v -0.0285084899514914 0.0040988535620272 -0.1626354455947876
v -0.0321204885840416 0.0063684196211398 -0.1626354455947876
v -0.0361469462513924 0.0077773369848728 -0.1626354455947876
v -0.0403859689831734 0.0082549573853612 -0.1626354455947876
v 0.0391159988939762 0.0565150007605553 -0.1626354455947876
v 0.0385545119643211 0.0544194988906384 -0.1626354455947876
v 0.0312954895198345 0.0544194951653481 -0.1626354455947876
v 0.0268604978919029 0.0612774938344955 -0.1626354455947876
v 0.0252094957977533 0.0617198757827282 -0.1626354455947876
v 0.0240008812397718 0.0629284977912903 -0.1626354455947876
v 0.0235584955662489 0.0645794942975044 -0.1626354455947876
v 0.0202969610691071 0.0649604871869087 -0.1626354455947876
v 0.0229812525212765 0.0684587359428406 -0.1626354455947876
v 0.0394073203206062 0.0728004127740860 -0.1626354455947876
v 0.0297201108187437 0.0662304982542992 -0.1626354455947876
v 0.0301624946296215 0.0645794942975044 -0.1626354455947876
v 0.0307340007275343 0.0565149933099747 -0.1626354455947876
v 0.0312954857945442 0.0586104989051819 -0.1626354455947876
v 0.0285114962607622 0.0617198795080185 -0.1626354455947876
v 0.0297201126813889 0.0629284977912903 -0.1626354455947876
v 0.0385545119643211 0.0586105026304722 -0.1626354455947876
v 0.0370204970240593 0.0601445101201534 -0.1626354455947876
v 0.0349249988794327 0.0607060007750988 -0.1626354455947876
v 0.0328294970095158 0.0601445101201534 -0.1626354455947876
v 0.0328295007348061 0.0528854914009571 -0.1626354455947876
v 0.0349250026047230 0.0523240007460117 -0.1626354455947876
v 0.0370205007493496 0.0528854914009571 -0.1626354455947876
v 0.0240008793771267 0.0662304982542992 -0.1626354455947876
v 0.0252094939351082 0.0674391090869904 -0.1626354455947876
v 0.0264794919639826 0.0711430311203003 -0.1626354455947876
v 0.0268604941666126 0.0678814947605133 -0.1626354455947876
v 0.0305532775819302 0.0728304460644722 -0.1626354455947876
v 0.0285114943981171 0.0674391090869904 -0.1626354455947876
v 0.0349249914288521 0.0734059959650040 -0.1626354455947876
v 0.0392967015504837 0.0728304535150528 -0.1626354455947876
v 0.0180339999496937 0.0565149858593941 -0.1626354455947876
v 0.0186095442622900 0.0608867034316063 -0.1626354455947876
v 0.0446404963731766 0.0617198869585991 -0.1626354455947876
v 0.0429894961416721 0.0612775012850761 -0.1626354455947876
v 0.0413384959101677 0.0617198869585991 -0.1626354455947876
v 0.0401298813521862 0.0629285052418709 -0.1626354455947876
v 0.0396874956786633 0.0645795017480850 -0.1626354455947876
v 0.0401298776268959 0.0662305057048798 -0.1626354455947876
v 0.0413384921848774 0.0674391165375710 -0.1626354455947876
v 0.0433704927563667 0.0711430385708809 -0.1626354455947876
v 0.0429894924163818 0.0678815022110939 -0.1626354455947876
v 0.0468687340617180 0.0684587433934212 -0.1626354455947876
v 0.0518160499632359 -0.0260349903255701 -0.1626354455947876
v 0.0446405075490475 0.0455908849835396 -0.1626354455947876
v 0.0429895073175430 0.0451485067605972 -0.1626354455947876
v 0.0413385070860386 0.0455908849835396 -0.1626354455947876
v 0.0429895035922527 0.0517525076866150 -0.1626354455947876
v 0.0446405038237572 0.0513101220130920 -0.1626354455947876
v 0.0518160015344620 0.0520382598042488 -0.1626354455947876
v 0.0401298888027668 0.0467995032668114 -0.1626354455947876
v 0.0396875031292439 0.0484505072236061 -0.1626354455947876
v 0.0401298888027668 0.0501015037298203 -0.1626354455947876
v 0.0413385033607483 0.0513101220130920 -0.1626354455947876
v 0.0518160015344620 0.0565150082111359 -0.1626354455947876
v 0.0458491109311581 0.0629285052418709 -0.1626354455947876
v 0.0512404516339302 0.0608867220580578 -0.1626354455947876
v 0.0462914966046810 0.0645795017480850 -0.1626354455947876
v 0.0495530292391777 0.0649605095386505 -0.1626354455947876
v 0.0458491109311581 0.0662305057048798 -0.1626354455947876
v 0.0446404926478863 0.0674391165375710 -0.1626354455947876
v 0.0458491183817387 0.0501015074551105 -0.1626354455947876
v 0.0462915040552616 0.0484505109488964 -0.1626354455947876
v 0.0458491221070290 0.0467995069921017 -0.1626354455947876
v 0.0301625039428473 0.0484504997730255 -0.1677154451608658
v 0.0297201201319695 0.0501014962792397 -0.1677154451608658
v 0.0285115037113428 0.0513101145625114 -0.1677154451608658
v 0.0268605034798384 0.0517525002360344 -0.1677154451608658
v 0.0252095032483339 0.0513101108372211 -0.1677154451608658
v 0.0240008886903524 0.0501014925539494 -0.1677154451608658
v 0.0235585048794746 0.0484504960477352 -0.1677154451608658
v 0.0240008905529976 0.0467994920909405 -0.1677154451608658
v 0.0252095051109791 0.0455908738076687 -0.1677154451608658
v 0.0268605072051287 0.0451484993100166 -0.1677154451608658
v 0.0285115055739880 0.0455908775329590 -0.1677154451608658
v 0.0297201219946146 0.0467994958162308 -0.1677154451608658
v 0.0462915040552616 0.0484505109488964 -0.1677154451608658
v 0.0458491183817387 0.0501015074551105 -0.1677154451608658
v 0.0446405038237572 0.0513101220130920 -0.1677154451608658
v 0.0429895035922527 0.0517525076866150 -0.1677154451608658
v 0.0413385033607483 0.0513101220130920 -0.1677154451608658
v 0.0401298888027668 0.0501015037298203 -0.1677154451608658
v 0.0396875031292439 0.0484505072236061 -0.1677154451608658
v 0.0401298888027668 0.0467995032668114 -0.1677154451608658
v 0.0413385070860386 0.0455908849835396 -0.1677154451608658
v 0.0429895073175430 0.0451485067605972 -0.1677154451608658
v 0.0446405075490475 0.0455908849835396 -0.1677154451608658
v 0.0458491221070290 0.0467995069921017 -0.1677154451608658
v 0.0462914966046810 0.0645795017480850 -0.1677154451608658
v 0.0458491109311581 0.0662305057048798 -0.1677154451608658
v 0.0446404926478863 0.0674391165375710 -0.1677154451608658
v 0.0429894924163818 0.0678815022110939 -0.1677154451608658
v 0.0413384921848774 0.0674391165375710 -0.1677154451608658
v 0.0401298776268959 0.0662305057048798 -0.1677154451608658
v 0.0396874956786633 0.0645795017480850 -0.1677154451608658
v 0.0401298813521862 0.0629285052418709 -0.1677154451608658
v 0.0413384959101677 0.0617198869585991 -0.1677154451608658
v 0.0429894961416721 0.0612775012850761 -0.1677154451608658
v 0.0446404963731766 0.0617198869585991 -0.1677154451608658
v 0.0458491109311581 0.0629285052418709 -0.1677154451608658
v 0.0301624946296215 0.0645794942975044 -0.1677154451608658
v 0.0297201108187437 0.0662304982542992 -0.1677154451608658
v 0.0285114943981171 0.0674391090869904 -0.1677154451608658
v 0.0268604941666126 0.0678814947605133 -0.1677154451608658
v 0.0252094939351082 0.0674391090869904 -0.1677154451608658
v 0.0240008793771267 0.0662304982542992 -0.1677154451608658
v 0.0235584955662489 0.0645794942975044 -0.1677154451608658
v 0.0240008812397718 0.0629284977912903 -0.1677154451608658
v 0.0252094957977533 0.0617198757827282 -0.1677154451608658
v 0.0268604978919029 0.0612774938344955 -0.1677154451608658
v 0.0285114962607622 0.0617198795080185 -0.1677154451608658
v 0.0297201126813889 0.0629284977912903 -0.1677154451608658
# 900 vertices, 0 vertices normals

f 1 2 3
f 4 5 6
f 7 8 9
f 10 11 12
f 3 7 1
f 1 7 9
f 1 9 12
f 12 9 4
f 12 4 10
f 10 4 6
f 13 14 15
f 16 17 18
f 19 20 21
f 22 23 24
f 15 19 13
f 13 19 21
f 13 21 24
f 24 21 16
f 24 16 22
f 22 16 18
f 23 22 2
f 2 22 3
f 6 25 10
f 10 25 15
f 8 7 17
f 17 7 18
f 7 3 18
f 18 3 22
f 20 5 21
f 21 5 4
f 21 4 16
f 16 4 9
f 16 9 17
f 17 9 8
f 24 1 13
f 13 1 12
f 13 12 26
f 26 12 11
f 23 2 24
f 24 2 1
f 5 20 27
f 27 20 28
f 27 28 29
f 29 28 30
f 29 30 31
f 31 30 32
f 33 34 35
f 35 34 36
f 35 36 37
f 37 36 38
f 37 38 6
f 6 38 25
f 20 25 38
f 20 38 28
f 28 38 36
f 28 36 30
f 30 36 34
f 30 34 32
f 31 33 29
f 29 33 35
f 29 35 27
f 27 35 37
f 27 37 5
f 5 37 6
f 39 34 40
f 40 34 33
f 41 31 42
f 42 31 32
f 43 44 34
f 44 45 34
f 34 45 46
f 34 46 32
f 46 47 32
f 32 47 48
f 32 48 42
f 42 48 49
f 42 49 50
f 50 49 51
f 34 39 43
f 43 39 52
f 43 52 53
f 53 52 54
f 53 54 55
f 55 54 56
f 55 56 57
f 57 56 58
f 57 58 59
f 59 58 60
f 59 60 51
f 51 60 61
f 51 61 50
f 62 63 64
f 64 63 40
f 64 40 65
f 65 40 33
f 65 33 66
f 67 68 31
f 31 68 69
f 31 69 33
f 33 69 70
f 33 70 66
f 31 41 67
f 67 41 71
f 67 71 72
f 72 71 73
f 72 73 74
f 74 73 75
f 74 75 76
f 76 75 77
f 76 77 78
f 78 77 79
f 78 79 62
f 62 79 80
f 62 80 63
f 10 15 81
f 81 15 82
f 81 82 83
f 83 82 84
f 83 84 85
f 85 84 86
f 87 88 89
f 89 88 90
f 89 90 91
f 91 90 92
f 91 92 11
f 11 92 26
f 15 26 92
f 15 92 82
f 82 92 90
f 82 90 84
f 84 90 88
f 84 88 86
f 85 87 83
f 83 87 89
f 83 89 81
f 81 89 91
f 81 91 10
f 10 91 11
f 93 85 94
f 94 85 86
f 95 88 96
f 96 88 87
f 97 98 99
f 99 98 94
f 99 94 100
f 100 94 86
f 100 86 101
f 102 103 88
f 88 103 104
f 88 104 86
f 86 104 105
f 86 105 101
f 88 95 102
f 102 95 106
f 102 106 107
f 107 106 108
f 107 108 109
f 109 108 110
f 109 110 111
f 111 110 112
f 111 112 113
f 113 112 114
f 113 114 97
f 97 114 115
f 97 115 98
f 116 117 85
f 117 118 85
f 85 118 119
f 85 119 87
f 119 120 87
f 87 120 121
f 87 121 96
f 96 121 122
f 96 122 123
f 123 122 124
f 85 93 116
f 116 93 125
f 116 125 126
f 126 125 127
f 126 127 128
f 128 127 129
f 128 129 130
f 130 129 131
f 130 131 132
f 132 131 133
f 132 133 124
f 124 133 134
f 124 134 123
f 105 119 101
f 101 119 118
f 101 118 100
f 100 118 117
f 100 117 99
f 99 117 116
f 99 116 97
f 97 116 126
f 97 126 113
f 113 126 128
f 113 128 111
f 111 128 130
f 111 130 109
f 109 130 132
f 109 132 107
f 107 132 124
f 107 124 102
f 102 124 122
f 102 122 103
f 103 122 121
f 103 121 104
f 104 121 120
f 104 120 105
f 105 120 119
f 70 46 66
f 66 46 45
f 66 45 65
f 65 45 44
f 65 44 64
f 64 44 43
f 64 43 62
f 62 43 135
f 62 135 78
f 78 135 55
f 78 55 76
f 76 55 57
f 76 57 74
f 74 57 59
f 74 59 72
f 72 59 136
f 72 136 67
f 67 136 49
f 67 49 68
f 68 49 48
f 68 48 69
f 69 48 47
f 69 47 70
f 70 47 46
f 95 96 123
f 95 123 106
f 106 123 134
f 106 134 108
f 108 134 133
f 108 133 110
f 110 133 131
f 110 131 112
f 112 131 129
f 112 129 114
f 114 129 127
f 114 127 115
f 115 127 125
f 115 125 98
f 98 125 93
f 98 93 94
f 39 40 63
f 39 63 52
f 52 63 80
f 52 80 54
f 54 80 79
f 54 79 56
f 56 79 77
f 56 77 58
f 58 77 75
f 58 75 60
f 60 75 73
f 60 73 61
f 61 73 71
f 61 71 50
f 50 71 41
f 50 41 42
f 137 138 139
f 139 138 140
f 141 137 142
f 142 137 139
f 143 141 144
f 144 141 142
f 145 143 146
f 146 143 144
f 147 145 148
f 148 145 146
f 138 147 140
f 140 147 148
f 141 143 137
f 137 143 145
f 137 145 138
f 138 145 147
f 148 146 140
f 140 146 144
f 140 144 139
f 139 144 142
f 149 150 151
f 151 150 152
f 151 152 153
f 153 152 154
f 153 154 155
f 155 154 156
f 155 156 149
f 149 156 150
f 150 157 158
f 157 150 159
f 159 150 156
f 159 156 160
f 161 162 163
f 164 165 156
f 158 166 150
f 150 166 167
f 150 167 168
f 168 167 169
f 161 163 170
f 165 171 156
f 156 171 172
f 156 172 160
f 160 172 173
f 160 173 174
f 174 173 175
f 174 175 176
f 176 175 170
f 176 170 177
f 177 170 163
f 177 163 178
f 178 163 168
f 178 168 179
f 179 168 169
f 162 180 163
f 163 180 181
f 163 181 156
f 156 181 182
f 156 182 164
f 183 184 185
f 185 184 168
f 168 184 186
f 168 186 187
f 188 189 152
f 152 189 190
f 152 190 185
f 185 190 191
f 185 191 183
f 192 150 193
f 193 150 168
f 193 168 194
f 192 195 150
f 150 195 196
f 150 196 152
f 152 196 197
f 152 197 198
f 199 200 187
f 187 200 201
f 187 201 168
f 168 201 202
f 168 202 194
f 199 187 203
f 203 187 204
f 203 204 198
f 204 205 198
f 198 205 206
f 198 206 152
f 152 206 207
f 152 207 188
f 154 152 208
f 208 152 185
f 156 209 210
f 156 210 163
f 211 208 212
f 212 208 163
f 212 163 213
f 213 163 210
f 214 215 154
f 154 215 216
f 154 216 156
f 156 216 217
f 156 217 209
f 211 218 208
f 208 218 219
f 208 219 154
f 154 219 220
f 154 220 214
f 221 222 208
f 168 223 185
f 185 223 224
f 185 224 225
f 226 227 228
f 228 227 229
f 228 229 230
f 222 226 208
f 208 226 228
f 208 228 163
f 163 228 231
f 163 231 168
f 168 231 232
f 168 232 230
f 229 233 230
f 230 233 234
f 230 234 168
f 168 234 235
f 168 235 223
f 225 236 185
f 185 236 237
f 185 237 208
f 208 237 238
f 208 238 221
f 239 240 241
f 241 240 242
f 241 242 243
f 244 245 239
f 239 245 246
f 239 246 240
f 240 246 247
f 240 247 248
f 243 249 241
f 241 249 250
f 241 250 149
f 149 250 251
f 251 252 149
f 149 252 253
f 149 253 155
f 155 253 254
f 155 254 255
f 248 247 256
f 256 247 257
f 256 257 255
f 258 259 155
f 155 259 260
f 155 260 239
f 239 260 261
f 239 261 244
f 257 262 255
f 255 262 263
f 255 263 155
f 155 263 264
f 155 264 258
f 265 266 241
f 241 266 267
f 268 269 270
f 270 269 271
f 270 271 151
f 151 271 272
f 151 272 273
f 149 274 241
f 241 274 275
f 241 275 265
f 267 276 241
f 241 276 277
f 241 277 270
f 270 277 278
f 270 278 268
f 279 280 151
f 151 280 281
f 151 281 149
f 149 281 282
f 149 282 274
f 267 283 276
f 276 283 284
f 276 284 285
f 285 284 286
f 285 286 287
f 287 286 279
f 287 279 288
f 288 279 151
f 288 151 289
f 289 151 273
f 151 153 270
f 270 153 290
f 291 292 290
f 290 292 239
f 292 293 239
f 239 293 294
f 239 294 155
f 155 294 295
f 155 295 296
f 296 297 155
f 155 297 298
f 155 298 153
f 153 298 299
f 299 300 153
f 153 300 301
f 153 301 290
f 290 301 302
f 290 302 291
f 303 304 305
f 306 307 270
f 270 307 308
f 308 303 270
f 270 303 305
f 270 305 241
f 241 305 309
f 241 309 239
f 239 309 310
f 239 310 290
f 290 310 311
f 304 312 305
f 305 312 313
f 305 313 311
f 311 313 314
f 314 315 311
f 311 315 316
f 311 316 290
f 290 316 317
f 317 318 290
f 290 318 319
f 290 319 270
f 270 319 320
f 270 320 306
f 230 305 228
f 228 305 311
f 228 311 231
f 231 311 310
f 231 310 232
f 232 310 309
f 232 309 230
f 230 309 305
f 313 233 314
f 314 233 229
f 314 229 315
f 315 229 227
f 315 227 316
f 316 227 226
f 316 226 317
f 317 226 222
f 317 222 318
f 318 222 221
f 318 221 319
f 319 221 238
f 319 238 320
f 320 238 237
f 320 237 306
f 306 237 236
f 306 236 307
f 307 236 225
f 307 225 308
f 308 225 224
f 308 224 303
f 303 224 223
f 303 223 304
f 304 223 235
f 304 235 312
f 312 235 234
f 312 234 313
f 313 234 233
f 253 157 254
f 254 157 159
f 254 159 255
f 255 159 160
f 255 160 256
f 256 160 174
f 256 174 248
f 248 174 176
f 248 176 240
f 240 176 177
f 240 177 242
f 242 177 178
f 242 178 243
f 243 178 179
f 243 179 249
f 249 179 169
f 249 169 250
f 250 169 167
f 250 167 251
f 251 167 166
f 251 166 252
f 252 166 158
f 252 158 253
f 253 158 157
f 264 171 258
f 258 171 165
f 258 165 259
f 259 165 164
f 259 164 260
f 260 164 182
f 260 182 261
f 261 182 181
f 261 181 244
f 244 181 180
f 244 180 245
f 245 180 162
f 245 162 246
f 246 162 161
f 246 161 247
f 247 161 170
f 247 170 257
f 257 170 175
f 257 175 262
f 262 175 173
f 262 173 263
f 263 173 172
f 263 172 264
f 264 172 171
f 298 216 299
f 299 216 215
f 299 215 300
f 300 215 214
f 300 214 301
f 301 214 220
f 301 220 302
f 302 220 219
f 302 219 291
f 291 219 218
f 291 218 292
f 292 218 211
f 292 211 293
f 293 211 212
f 293 212 294
f 294 212 213
f 294 213 295
f 295 213 210
f 295 210 296
f 296 210 209
f 296 209 297
f 297 209 217
f 297 217 298
f 298 217 216
f 278 184 268
f 268 184 183
f 268 183 269
f 269 183 191
f 269 191 271
f 271 191 190
f 271 190 272
f 272 190 189
f 272 189 273
f 273 189 188
f 273 188 289
f 289 188 207
f 289 207 288
f 288 207 206
f 288 206 287
f 287 206 205
f 287 205 285
f 285 205 204
f 285 204 276
f 276 204 187
f 276 187 277
f 277 187 186
f 277 186 278
f 278 186 184
f 267 201 283
f 283 201 200
f 283 200 284
f 284 200 199
f 284 199 286
f 286 199 203
f 286 203 279
f 279 203 198
f 279 198 280
f 280 198 197
f 280 197 281
f 281 197 196
f 281 196 282
f 282 196 195
f 282 195 274
f 274 195 192
f 274 192 275
f 275 192 193
f 275 193 265
f 265 193 194
f 265 194 266
f 266 194 202
f 266 202 267
f 267 202 201
f 321 322 323
f 324 325 326
f 326 325 327
f 328 324 329
f 329 324 330
f 329 330 331
f 321 323 332
f 332 323 333
f 332 333 334
f 335 326 336
f 336 326 327
f 336 327 337
f 337 327 338
f 337 338 339
f 339 338 340
f 328 341 342
f 343 344 345
f 346 347 325
f 348 349 328
f 328 349 350
f 342 351 328
f 328 351 352
f 328 352 353
f 354 355 356
f 345 344 352
f 352 344 357
f 352 357 353
f 353 358 328
f 328 358 359
f 328 359 324
f 324 359 360
f 360 361 324
f 324 361 362
f 324 362 325
f 325 362 363
f 363 364 325
f 325 364 365
f 325 365 366
f 346 325 367
f 368 369 333
f 333 369 370
f 333 370 371
f 350 372 328
f 328 372 373
f 328 373 341
f 341 373 374
f 341 374 375
f 354 356 371
f 371 356 376
f 371 376 348
f 377 347 378
f 378 347 379
f 368 333 380
f 380 333 323
f 380 323 381
f 374 382 375
f 375 382 383
f 375 383 354
f 354 383 384
f 354 384 355
f 385 323 386
f 386 323 377
f 387 388 325
f 325 388 389
f 325 389 367
f 390 391 392
f 392 391 387
f 392 387 393
f 393 387 325
f 393 325 394
f 394 325 366
f 394 366 345
f 345 366 395
f 345 395 343
f 347 396 379
f 379 396 397
f 379 397 398
f 398 397 399
f 398 399 400
f 401 402 399
f 399 402 403
f 399 403 400
f 354 404 375
f 375 404 405
f 375 405 406
f 405 407 406
f 406 407 402
f 406 402 408
f 408 402 401
f 408 401 390
f 390 401 409
f 390 409 391
f 385 410 323
f 323 410 411
f 323 411 381
f 381 411 412
f 381 412 413
f 413 412 402
f 413 402 414
f 414 402 407
f 415 323 416
f 416 323 322
f 327 417 338
f 338 417 418
f 415 416 419
f 418 417 419
f 419 417 420
f 419 420 415
f 421 329 422
f 422 329 331
f 423 424 425
f 425 424 426
f 425 426 155
f 155 426 156
f 155 156 153
f 153 156 154
f 153 154 423
f 423 154 424
f 156 426 427
f 427 426 428
f 154 156 429
f 429 156 427
f 424 154 430
f 430 154 429
f 426 424 428
f 428 424 430
f 428 431 427
f 427 431 432
f 427 432 433
f 433 434 427
f 427 434 435
f 427 435 429
f 429 435 436
f 429 436 437
f 438 439 430
f 430 439 440
f 430 440 428
f 428 440 441
f 428 441 431
f 437 442 443
f 437 443 429
f 429 443 444
f 429 444 445
f 445 446 429
f 429 446 447
f 429 447 430
f 430 447 448
f 430 448 449
f 449 450 430
f 430 450 451
f 430 451 438
f 451 452 438
f 438 452 453
f 438 453 454
f 454 453 455
f 454 455 437
f 437 455 456
f 437 456 442
f 406 432 375
f 375 432 431
f 375 431 341
f 341 431 441
f 341 441 342
f 342 441 440
f 342 440 351
f 351 440 439
f 351 439 352
f 352 439 438
f 352 438 345
f 345 438 454
f 345 454 394
f 394 454 437
f 394 437 393
f 393 437 436
f 393 436 392
f 392 436 435
f 392 435 390
f 390 435 434
f 390 434 408
f 408 434 433
f 408 433 406
f 406 433 432
f 344 455 357
f 357 455 453
f 357 453 353
f 353 453 452
f 353 452 358
f 358 452 451
f 358 451 359
f 359 451 450
f 359 450 360
f 360 450 449
f 360 449 361
f 361 449 448
f 361 448 362
f 362 448 447
f 362 447 363
f 363 447 446
f 363 446 364
f 364 446 445
f 364 445 365
f 365 445 444
f 365 444 366
f 366 444 443
f 366 443 395
f 395 443 442
f 395 442 343
f 343 442 456
f 343 456 344
f 344 456 455
f 324 326 423
f 423 326 153
f 324 423 330
f 330 423 425
f 330 425 457
f 457 425 458
f 459 460 425
f 461 462 155
f 155 462 321
f 155 321 425
f 425 321 332
f 425 332 459
f 462 463 321
f 321 463 464
f 321 464 465
f 465 464 466
f 465 466 467
f 467 466 468
f 467 468 469
f 469 468 470
f 469 470 471
f 471 470 472
f 471 472 473
f 473 472 474
f 473 474 475
f 475 474 476
f 475 476 477
f 477 476 478
f 477 478 155
f 155 478 479
f 155 479 461
f 460 480 425
f 425 480 481
f 425 481 458
f 458 481 482
f 458 482 483
f 483 482 484
f 483 484 485
f 485 484 486
f 485 486 487
f 487 486 488
f 487 488 489
f 489 488 490
f 489 490 491
f 491 490 492
f 491 492 493
f 493 492 494
f 493 494 332
f 332 494 495
f 332 495 459
f 155 153 335
f 335 153 326
f 496 477 340
f 340 477 155
f 340 155 339
f 339 155 335
f 339 335 497
f 497 335 498
f 497 499 339
f 339 499 500
f 339 500 501
f 501 500 502
f 501 502 503
f 503 502 504
f 503 504 505
f 505 504 506
f 505 506 507
f 507 506 508
f 507 508 509
f 509 508 510
f 509 510 511
f 511 510 512
f 511 512 513
f 513 512 514
f 513 514 335
f 335 514 515
f 335 515 498
f 420 417 325
f 325 417 327
f 377 323 415
f 377 415 347
f 347 415 420
f 347 420 325
f 334 333 516
f 516 333 517
f 333 371 517
f 517 371 348
f 517 348 518
f 518 348 328
f 421 518 329
f 329 518 328
f 516 517 519
f 519 517 518
f 519 518 422
f 422 518 421
f 519 520 516
f 516 520 493
f 516 493 334
f 334 493 332
f 521 519 422
f 519 521 520
f 520 521 522
f 520 522 523
f 523 522 524
f 523 524 525
f 525 524 526
f 525 526 527
f 527 526 528
f 527 528 529
f 529 528 530
f 529 530 531
f 531 530 532
f 531 532 457
f 457 532 533
f 457 533 330
f 533 534 330
f 330 534 535
f 330 535 331
f 331 535 536
f 331 536 422
f 422 536 537
f 422 537 521
f 528 488 530
f 530 488 486
f 530 486 532
f 532 486 484
f 532 484 533
f 533 484 482
f 533 482 534
f 534 482 481
f 534 481 535
f 535 481 480
f 535 480 536
f 536 480 460
f 536 460 537
f 537 460 459
f 537 459 521
f 521 459 495
f 521 495 522
f 522 495 494
f 522 494 524
f 524 494 492
f 524 492 526
f 526 492 490
f 526 490 528
f 528 490 488
f 457 458 483
f 457 483 531
f 531 483 485
f 531 485 529
f 529 485 487
f 529 487 527
f 527 487 489
f 527 489 525
f 525 489 491
f 525 491 523
f 523 491 493
f 523 493 520
f 322 321 416
f 416 321 465
f 416 465 419
f 419 465 538
f 539 540 418
f 418 540 541
f 418 541 338
f 541 542 338
f 338 542 543
f 338 543 340
f 543 544 340
f 340 544 545
f 340 545 496
f 496 545 546
f 496 546 547
f 547 546 548
f 547 548 549
f 549 548 550
f 549 550 551
f 551 550 552
f 551 552 553
f 553 552 554
f 553 554 555
f 555 554 539
f 555 539 538
f 538 539 418
f 538 418 419
f 552 472 554
f 554 472 470
f 554 470 539
f 539 470 468
f 539 468 540
f 540 468 466
f 540 466 541
f 541 466 464
f 541 464 542
f 542 464 463
f 542 463 543
f 543 463 462
f 543 462 544
f 544 462 461
f 544 461 545
f 545 461 479
f 545 479 546
f 546 479 478
f 546 478 548
f 548 478 476
f 548 476 550
f 550 476 474
f 550 474 552
f 552 474 472
f 538 465 467
f 538 467 555
f 555 467 469
f 555 469 553
f 553 469 471
f 553 471 551
f 551 471 473
f 551 473 549
f 549 473 475
f 549 475 547
f 547 475 477
f 547 477 496
f 556 337 501
f 501 337 339
f 556 501 503
f 556 503 557
f 557 503 505
f 557 505 558
f 558 505 507
f 558 507 559
f 559 507 509
f 559 509 560
f 560 509 511
f 560 511 561
f 561 511 513
f 561 513 562
f 336 562 335
f 335 562 513
f 336 337 563
f 563 337 564
f 563 565 336
f 336 565 566
f 336 566 562
f 562 566 567
f 562 567 561
f 561 567 568
f 561 568 560
f 560 568 569
f 560 569 559
f 559 569 570
f 559 570 558
f 558 570 571
f 558 571 557
f 557 571 572
f 557 572 556
f 556 572 573
f 556 573 337
f 337 573 574
f 337 574 564
f 563 497 565
f 565 497 498
f 565 498 566
f 566 498 515
f 566 515 567
f 567 515 514
f 567 514 568
f 568 514 512
f 568 512 569
f 569 512 510
f 569 510 570
f 570 510 508
f 570 508 571
f 571 508 506
f 571 506 572
f 572 506 504
f 572 504 573
f 573 504 502
f 573 502 574
f 574 502 500
f 574 500 564
f 564 500 499
f 564 499 563
f 563 499 497
f 575 405 576
f 576 405 404
f 576 404 577
f 577 404 354
f 577 354 578
f 578 354 371
f 578 371 579
f 579 371 370
f 579 370 580
f 580 370 369
f 580 369 581
f 581 369 368
f 581 368 582
f 582 368 380
f 582 380 583
f 583 380 381
f 583 381 584
f 584 381 413
f 584 413 585
f 585 413 414
f 585 414 586
f 586 414 407
f 586 407 575
f 575 407 405
f 585 586 587
f 587 586 575
f 587 575 576
f 582 583 587
f 587 583 584
f 587 584 585
f 579 580 587
f 587 580 581
f 587 581 582
f 576 577 587
f 587 577 578
f 587 578 579
f 588 372 589
f 589 372 350
f 589 350 590
f 590 350 349
f 590 349 591
f 591 349 348
f 591 348 592
f 592 348 376
f 592 376 593
f 593 376 356
f 593 356 594
f 594 356 355
f 594 355 595
f 595 355 384
f 595 384 596
f 596 384 383
f 596 383 597
f 597 383 382
f 597 382 598
f 598 382 374
f 598 374 599
f 599 374 373
f 599 373 588
f 588 373 372
f 598 599 600
f 600 599 588
f 600 588 589
f 595 596 600
f 600 596 597
f 600 597 598
f 592 593 600
f 600 593 594
f 600 594 595
f 589 590 600
f 600 590 591
f 600 591 592
f 601 389 602
f 602 389 388
f 602 388 603
f 603 388 387
f 603 387 604
f 604 387 391
f 604 391 605
f 605 391 409
f 605 409 606
f 606 409 401
f 606 401 607
f 607 401 399
f 607 399 608
f 608 399 397
f 608 397 609
f 609 397 396
f 609 396 610
f 610 396 347
f 610 347 611
f 611 347 346
f 611 346 612
f 612 346 367
f 612 367 601
f 601 367 389
f 611 612 613
f 613 612 601
f 613 601 602
f 608 609 613
f 613 609 610
f 613 610 611
f 605 606 613
f 613 606 607
f 613 607 608
f 602 603 613
f 613 603 604
f 613 604 605
f 614 398 615
f 615 398 400
f 615 400 616
f 616 400 403
f 616 403 617
f 617 403 402
f 617 402 618
f 618 402 412
f 618 412 619
f 619 412 411
f 619 411 620
f 620 411 410
f 620 410 621
f 621 410 385
f 621 385 622
f 622 385 386
f 622 386 623
f 623 386 377
f 623 377 624
f 624 377 378
f 624 378 625
f 625 378 379
f 625 379 614
f 614 379 398
f 624 625 626
f 626 625 614
f 626 614 615
f 621 622 626
f 626 622 623
f 626 623 624
f 618 619 626
f 626 619 620
f 626 620 621
f 615 616 626
f 626 616 617
f 626 617 618
f 627 628 629
f 629 628 630
f 629 630 631
f 631 630 632
f 631 632 633
f 633 632 634
f 633 634 635
f 635 634 636
f 635 636 637
f 637 636 638
f 637 638 639
f 639 638 640
f 639 640 641
f 641 640 642
f 641 642 643
f 643 642 644
f 643 644 645
f 645 644 646
f 645 646 647
f 647 646 648
f 647 648 649
f 649 648 650
f 649 650 627
f 627 650 628
f 651 652 653
f 653 652 654
f 653 654 655
f 655 654 656
f 655 656 657
f 657 656 658
f 657 658 659
f 659 658 660
f 659 660 661
f 661 660 662
f 661 662 663
f 663 662 664
f 663 664 665
f 665 664 666
f 665 666 667
f 667 666 668
f 667 668 669
f 669 668 670
f 669 670 671
f 671 670 672
f 671 672 673
f 673 672 674
f 673 674 651
f 651 674 652
f 675 676 677
f 677 676 678
f 677 678 679
f 679 678 680
f 679 680 681
f 681 680 682
f 681 682 683
f 683 682 684
f 683 684 685
f 685 684 686
f 685 686 687
f 687 686 688
f 687 688 689
f 689 688 690
f 689 690 691
f 691 690 692
f 691 692 693
f 693 692 694
f 693 694 695
f 695 694 696
f 695 696 697
f 697 696 698
f 697 698 675
f 675 698 676
f 699 700 701
f 701 700 702
f 701 702 703
f 703 702 704
f 703 704 705
f 705 704 706
f 705 706 707
f 707 706 708
f 707 708 709
f 709 708 710
f 709 710 711
f 711 710 712
f 711 712 713
f 713 712 714
f 713 714 715
f 715 714 716
f 715 716 717
f 717 716 718
f 717 718 719
f 719 718 720
f 719 720 721
f 721 720 722
f 721 722 699
f 699 722 700
f 685 687 723
f 665 723 663
f 663 723 724
f 663 724 661
f 665 667 723
f 723 667 669
f 723 669 725
f 725 669 671
f 725 671 726
f 726 671 673
f 726 673 727
f 727 673 728
f 728 673 651
f 728 651 729
f 651 653 729
f 729 653 655
f 729 655 730
f 730 655 657
f 730 657 724
f 724 657 659
f 724 659 661
f 731 732 723
f 635 637 733
f 733 637 734
f 734 637 639
f 734 639 641
f 735 736 737
f 737 736 738
f 641 643 734
f 734 643 739
f 734 739 740
f 740 739 735
f 740 735 741
f 741 735 737
f 742 629 743
f 743 629 631
f 635 733 633
f 633 733 744
f 633 744 631
f 631 744 745
f 631 745 743
f 643 645 739
f 739 645 647
f 739 647 746
f 746 647 649
f 746 649 627
f 732 747 723
f 723 747 748
f 723 748 724
f 724 748 749
f 724 749 750
f 742 724 629
f 629 724 750
f 629 750 627
f 627 750 751
f 627 751 746
f 701 703 723
f 717 719 752
f 705 707 737
f 753 754 755
f 755 754 756
f 756 757 755
f 755 757 758
f 755 758 759
f 719 721 723
f 723 721 699
f 723 699 701
f 738 731 737
f 737 731 723
f 737 723 705
f 705 723 703
f 707 709 737
f 737 709 711
f 737 711 760
f 760 711 713
f 760 713 715
f 715 717 760
f 760 717 752
f 760 752 761
f 761 752 755
f 761 755 762
f 762 755 759
f 719 723 752
f 752 723 687
f 752 687 689
f 689 691 752
f 752 691 693
f 752 693 763
f 693 695 763
f 763 695 697
f 763 697 725
f 725 697 675
f 725 675 677
f 677 679 725
f 725 679 681
f 725 681 723
f 723 681 683
f 723 683 685
f 764 765 766
f 767 768 769
f 768 767 766
f 766 767 770
f 766 770 764
f 765 771 766
f 766 771 772
f 766 772 773
f 773 772 774
f 773 774 775
f 776 777 778
f 778 777 773
f 778 773 779
f 779 773 775
f 776 780 777
f 777 780 781
f 777 781 770
f 770 781 782
f 770 782 764
f 769 783 767
f 767 783 784
f 767 784 785
f 785 786 767
f 767 786 787
f 767 787 788
f 777 789 790
f 791 792 793
f 794 795 796
f 796 795 797
f 798 799 800
f 791 801 792
f 792 801 802
f 792 802 803
f 803 802 804
f 805 798 806
f 806 798 800
f 806 800 807
f 807 800 804
f 807 804 808
f 808 804 802
f 809 773 810
f 810 773 777
f 810 777 811
f 811 777 790
f 795 812 797
f 797 812 813
f 797 813 814
f 814 813 815
f 814 815 816
f 816 815 817
f 816 817 818
f 818 817 799
f 818 799 819
f 819 799 798
f 809 791 773
f 773 791 793
f 773 793 820
f 820 793 794
f 820 794 821
f 821 794 796
f 822 823 777
f 777 823 824
f 777 824 825
f 805 789 798
f 798 789 777
f 798 777 826
f 826 777 825
f 826 827 798
f 798 827 828
f 798 828 829
f 829 828 830
f 829 830 831
f 832 833 770
f 770 833 834
f 770 834 835
f 836 837 838
f 835 839 770
f 770 839 840
f 770 840 777
f 777 840 841
f 777 841 842
f 842 836 777
f 777 836 838
f 777 838 822
f 822 838 843
f 822 843 844
f 844 843 845
f 844 845 846
f 846 845 847
f 846 847 848
f 848 847 831
f 848 831 849
f 849 831 830
f 837 850 838
f 838 850 851
f 838 851 832
f 832 851 852
f 832 852 833
f 767 755 770
f 770 755 752
f 770 752 832
f 832 752 763
f 753 755 788
f 788 755 767
f 753 788 787
f 753 787 754
f 754 787 786
f 754 786 756
f 756 786 785
f 756 785 757
f 757 785 784
f 757 784 758
f 758 784 783
f 758 783 759
f 759 783 769
f 759 769 762
f 762 769 768
f 762 768 761
f 760 761 766
f 766 761 768
f 820 741 773
f 773 741 737
f 773 737 766
f 766 737 760
f 741 820 821
f 741 821 740
f 740 821 796
f 740 796 734
f 734 796 797
f 734 797 733
f 733 797 814
f 733 814 744
f 744 814 816
f 744 816 745
f 745 816 818
f 745 818 743
f 743 818 819
f 743 819 742
f 742 819 724
f 724 819 798
f 724 798 730
f 798 829 730
f 730 829 831
f 730 831 729
f 729 831 847
f 729 847 728
f 728 847 845
f 728 845 727
f 727 845 843
f 727 843 726
f 832 763 838
f 838 763 725
f 838 725 843
f 843 725 726
f 748 789 749
f 749 789 805
f 749 805 750
f 750 805 806
f 750 806 751
f 751 806 807
f 751 807 746
f 746 807 808
f 746 808 739
f 739 808 802
f 739 802 735
f 735 802 801
f 735 801 736
f 736 801 791
f 736 791 738
f 738 791 809
f 738 809 731
f 731 809 810
f 731 810 732
f 732 810 811
f 732 811 747
f 747 811 790
f 747 790 748
f 748 790 789
f 853 781 854
f 854 781 780
f 854 780 855
f 855 780 776
f 855 776 856
f 856 776 778
f 856 778 857
f 857 778 779
f 857 779 858
f 858 779 775
f 858 775 859
f 859 775 774
f 859 774 860
f 860 774 772
f 860 772 861
f 861 772 771
f 861 771 862
f 862 771 765
f 862 765 863
f 863 765 764
f 863 764 864
f 864 764 782
f 864 782 853
f 853 782 781
f 716 861 718
f 718 861 862
f 718 862 720
f 720 862 863
f 720 863 722
f 722 863 864
f 722 864 700
f 700 864 853
f 700 853 702
f 702 853 854
f 702 854 704
f 704 854 855
f 704 855 706
f 706 855 856
f 706 856 708
f 708 856 857
f 708 857 710
f 710 857 858
f 710 858 712
f 712 858 859
f 712 859 714
f 714 859 860
f 714 860 716
f 716 860 861
f 865 851 866
f 866 851 850
f 866 850 867
f 867 850 837
f 867 837 868
f 868 837 836
f 868 836 869
f 869 836 842
f 869 842 870
f 870 842 841
f 870 841 871
f 871 841 840
f 871 840 872
f 872 840 839
f 872 839 873
f 873 839 835
f 873 835 874
f 874 835 834
f 874 834 875
f 875 834 833
f 875 833 876
f 876 833 852
f 876 852 865
f 865 852 851
f 684 869 686
f 686 869 870
f 686 870 688
f 688 870 871
f 688 871 690
f 690 871 872
f 690 872 692
f 692 872 873
f 692 873 694
f 694 873 874
f 694 874 696
f 696 874 875
f 696 875 698
f 698 875 876
f 698 876 676
f 676 876 865
f 676 865 678
f 678 865 866
f 678 866 680
f 680 866 867
f 680 867 682
f 682 867 868
f 682 868 684
f 684 868 869
f 877 846 878
f 878 846 848
f 878 848 879
f 879 848 849
f 879 849 880
f 880 849 830
f 880 830 881
f 881 830 828
f 881 828 882
f 882 828 827
f 882 827 883
f 883 827 826
f 883 826 884
f 884 826 825
f 884 825 885
f 885 825 824
f 885 824 886
f 886 824 823
f 886 823 887
f 887 823 822
f 887 822 888
f 888 822 844
f 888 844 877
f 877 844 846
f 660 881 662
f 662 881 882
f 662 882 664
f 664 882 883
f 664 883 666
f 666 883 884
f 666 884 668
f 668 884 885
f 668 885 670
f 670 885 886
f 670 886 672
f 672 886 887
f 672 887 674
f 674 887 888
f 674 888 652
f 652 888 877
f 652 877 654
f 654 877 878
f 654 878 656
f 656 878 879
f 656 879 658
f 658 879 880
f 658 880 660
f 660 880 881
f 889 800 890
f 890 800 799
f 890 799 891
f 891 799 817
f 891 817 892
f 892 817 815
f 892 815 893
f 893 815 813
f 893 813 894
f 894 813 812
f 894 812 895
f 895 812 795
f 895 795 896
f 896 795 794
f 896 794 897
f 897 794 793
f 897 793 898
f 898 793 792
f 898 792 899
f 899 792 803
f 899 803 900
f 900 803 804
f 900 804 889
f 889 804 800
f 644 897 646
f 646 897 898
f 646 898 648
f 648 898 899
f 648 899 650
f 650 899 900
f 650 900 628
f 628 900 889
f 628 889 630
f 630 889 890
f 630 890 632
f 632 890 891
f 632 891 634
f 634 891 892
f 634 892 636
f 636 892 893
f 636 893 638
f 638 893 894
f 638 894 640
f 640 894 895
f 640 895 642
f 642 895 896
f 642 896 644
f 644 896 897
# 1856 faces, 0 coords texture

# End of File
