####
#
# OBJ File Generated by Meshlab
#
####
# Object Hopper_Latch.obj
#
# Vertices: 274
# Faces: 564
#
####
v 0.0059055001474917 0.0906144976615906 0.0101600000634789
v 0.0059055001474917 0.0906144976615906 0.0050800000317395
v 0.0061947512440383 0.0916939973831177 0.0101600000634789
v 0.0061947512440383 0.0916939973831177 0.0050800000317395
v 0.0069849998690188 0.0924842506647110 0.0101600000634789
v 0.0069849998690188 0.0924842506647110 0.0050800000317395
v 0.0080645000562072 0.0927734971046448 0.0101600000634789
v 0.0080645000562072 0.0927734971046448 0.0050800000317395
v 0.0091439997777343 0.0924842506647110 0.0101600000634789
v 0.0091439997777343 0.0924842506647110 0.0050800000317395
v 0.0099342484027147 0.0916939973831177 0.0101600000634789
v 0.0099342484027147 0.0916939973831177 0.0050800000317395
v 0.0102235004305840 0.0906144976615906 0.0101600000634789
v 0.0102235004305840 0.0906144976615906 0.0050800000317395
v 0.0099342484027147 0.0895349979400635 0.0101600000634789
v 0.0099342484027147 0.0895349979400635 0.0050800000317395
v 0.0091439997777343 0.0887447521090508 0.0101600000634789
v 0.0091439997777343 0.0887447521090508 0.0050800000317395
v 0.0080645000562072 0.0884554982185364 0.0101600000634789
v 0.0080645000562072 0.0884554982185364 0.0050800000317395
v 0.0069849998690188 0.0887447521090508 0.0101600000634789
v 0.0069849998690188 0.0887447521090508 0.0050800000317395
v 0.0061947512440383 0.0895349979400635 0.0101600000634789
v 0.0061947512440383 0.0895349979400635 0.0050800000317395
v -0.0102235004305840 0.0906144976615906 0.0101600000634789
v -0.0102235004305840 0.0906144976615906 0.0050800000317395
v -0.0099342484027147 0.0916939973831177 0.0101600000634789
v -0.0099342484027147 0.0916939973831177 0.0050800000317395
v -0.0091439997777343 0.0924842506647110 0.0101600000634789
v -0.0091439997777343 0.0924842506647110 0.0050800000317395
v -0.0080645000562072 0.0927734971046448 0.0101600000634789
v -0.0080645000562072 0.0927734971046448 0.0050800000317395
v -0.0069849998690188 0.0924842506647110 0.0101600000634789
v -0.0069849998690188 0.0924842506647110 0.0050800000317395
v -0.0061947512440383 0.0916939973831177 0.0101600000634789
v -0.0061947512440383 0.0916939973831177 0.0050800000317395
v -0.0059055001474917 0.0906144976615906 0.0101600000634789
v -0.0059055001474917 0.0906144976615906 0.0050800000317395
v -0.0061947512440383 0.0895349979400635 0.0101600000634789
v -0.0061947512440383 0.0895349979400635 0.0050800000317395
v -0.0069849998690188 0.0887447521090508 0.0101600000634789
v -0.0069849998690188 0.0887447521090508 0.0050800000317395
v -0.0080645000562072 0.0884554982185364 0.0101600000634789
v -0.0080645000562072 0.0884554982185364 0.0050800000317395
v -0.0091439997777343 0.0887447521090508 0.0101600000634789
v -0.0091439997777343 0.0887447521090508 0.0050800000317395
v -0.0099342484027147 0.0895349979400635 0.0101600000634789
v -0.0099342484027147 0.0895349979400635 0.0050800000317395
v -0.0102235004305840 0.0744855031371117 0.0101600000634789
v -0.0102235004305840 0.0744855031371117 0.0050800000317395
v -0.0099342484027147 0.0755650028586388 0.0101600000634789
v -0.0099342484027147 0.0755650028586388 0.0050800000317395
v -0.0091439997777343 0.0763552486896515 0.0101600000634789
v -0.0091439997777343 0.0763552486896515 0.0050800000317395
v -0.0080645000562072 0.0766445025801659 0.0101600000634789
v -0.0080645000562072 0.0766445025801659 0.0050800000317395
v -0.0069849998690188 0.0763552486896515 0.0101600000634789
v -0.0069849998690188 0.0763552486896515 0.0050800000317395
v -0.0061947512440383 0.0755650028586388 0.0101600000634789
v -0.0061947512440383 0.0755650028586388 0.0050800000317395
v -0.0059055001474917 0.0744855031371117 0.0101600000634789
v -0.0059055001474917 0.0744855031371117 0.0050800000317395
v -0.0061947512440383 0.0734060034155846 0.0101600000634789
v -0.0061947512440383 0.0734060034155846 0.0050800000317395
v -0.0069849998690188 0.0726157501339912 0.0101600000634789
v -0.0069849998690188 0.0726157501339912 0.0050800000317395
v -0.0080645000562072 0.0723265036940575 0.0101600000634789
v -0.0080645000562072 0.0723265036940575 0.0050800000317395
v -0.0091439997777343 0.0726157501339912 0.0101600000634789
v -0.0091439997777343 0.0726157501339912 0.0050800000317395
v -0.0099342484027147 0.0734060034155846 0.0101600000634789
v -0.0099342484027147 0.0734060034155846 0.0050800000317395
v 0.0059055001474917 0.0744855031371117 0.0101600000634789
v 0.0059055001474917 0.0744855031371117 0.0050800000317395
v 0.0061947512440383 0.0755650028586388 0.0101600000634789
v 0.0061947512440383 0.0755650028586388 0.0050800000317395
v 0.0069849998690188 0.0763552486896515 0.0101600000634789
v 0.0069849998690188 0.0763552486896515 0.0050800000317395
v 0.0080645000562072 0.0766445025801659 0.0101600000634789
v 0.0080645000562072 0.0766445025801659 0.0050800000317395
v 0.0091439997777343 0.0763552486896515 0.0101600000634789
v 0.0091439997777343 0.0763552486896515 0.0050800000317395
v 0.0099342484027147 0.0755650028586388 0.0101600000634789
v 0.0099342484027147 0.0755650028586388 0.0050800000317395
v 0.0102235004305840 0.0744855031371117 0.0101600000634789
v 0.0102235004305840 0.0744855031371117 0.0050800000317395
v 0.0099342484027147 0.0734060034155846 0.0101600000634789
v 0.0099342484027147 0.0734060034155846 0.0050800000317395
v 0.0091439997777343 0.0726157501339912 0.0101600000634789
v 0.0091439997777343 0.0726157501339912 0.0050800000317395
v 0.0080645000562072 0.0723265036940575 0.0101600000634789
v 0.0080645000562072 0.0723265036940575 0.0050800000317395
v 0.0069849998690188 0.0726157501339912 0.0101600000634789
v 0.0069849998690188 0.0726157501339912 0.0050800000317395
v 0.0061947512440383 0.0734060034155846 0.0101600000634789
v 0.0061947512440383 0.0734060034155846 0.0050800000317395
v -0.0050482498481870 0.0775017514824867 0.0101600000634789
v -0.0050789425149560 0.0986593216657639 0.0101600000634789
v -0.0168910007923841 0.0775017514824867 0.0101600000634789
v -0.0168910007923841 0.0825499966740608 0.0101600000634789
v -0.0163154527544975 0.0869217142462730 0.0101600000634789
v -0.0146280350163579 0.0909954980015755 0.0101600000634789
v -0.0119437407702208 0.0944937393069267 0.0101600000634789
v -0.0084455003961921 0.0971780344843864 0.0101600000634789
v -0.0000000000000025 0.0783590003848076 0.0101600000634789
v -0.0020955000072718 0.0789204910397530 0.0101600000634789
v 0.0119437407702208 0.0944937393069267 0.0101600000634789
v 0.0146280350163579 0.0909954980015755 0.0101600000634789
v 0.0041910000145435 0.0825499966740608 0.0101600000634789
v 0.0036295123863965 0.0804544985294342 0.0101600000634789
v 0.0168910007923841 0.0775017514824867 0.0101600000634789
v 0.0020955000072718 0.0789204910397530 0.0101600000634789
v 0.0036295123863965 0.0846455022692680 0.0101600000634789
v 0.0163154527544975 0.0869217142462730 0.0101600000634789
v 0.0168910007923841 0.0825499966740608 0.0101600000634789
v -0.0043717124499381 0.0988654494285583 0.0101600000634789
v -0.0000000000000025 0.0994409993290901 0.0101600000634789
v 0.0084455003961921 0.0971780344843864 0.0101600000634789
v 0.0043717124499381 0.0988654494285583 0.0101600000634789
v 0.0020955000072718 0.0861795097589493 0.0101600000634789
v -0.0036295123863965 0.0804544985294342 0.0101600000634789
v -0.0041910000145435 0.0825499966740608 0.0101600000634789
v -0.0036295123863965 0.0846455022692680 0.0101600000634789
v -0.0020955000072718 0.0861795097589493 0.0101600000634789
v -0.0000000000000025 0.0867410004138947 0.0101600000634789
v -0.0050482498481870 -0.0000000000000004 0.0101600000634789
v 0.0753109976649284 0.0342900007963181 0.0101600000634789
v 0.0710719749331474 0.0338123776018620 0.0101600000634789
v 0.0753109976649284 -0.0000000000000004 0.0101600000634789
v 0.0670455172657967 0.0324034579098225 0.0101600000634789
v 0.0634335204958916 0.0301338899880648 0.0101600000634789
v 0.0604171119630337 0.0271174814552069 0.0101600000634789
v 0.0581475421786308 0.0235054846853018 0.0101600000634789
v 0.0168910007923841 0.0152399996295571 0.0101600000634789
v 0.0562609992921352 0.0152399996295571 0.0101600000634789
v 0.0567386224865913 0.0194790232926607 0.0101600000634789
v -0.0168910007923841 -0.0000000000000004 0.0101600000634789
v 0.0064134998247027 0.0716258808970451 0.0000000000000284
v 0.0080645000562072 0.0711835026741028 0.0000000000000284
v 0.0168910007923841 0.0152399996295571 0.0000000000000286
v 0.0753109976649284 -0.0000000000000004 0.0000000000000293
v 0.0562609992921352 0.0152399996295571 0.0000000000000291
v 0.0567386224865913 0.0194790232926607 0.0000000000000291
v -0.0044767498038709 -0.0000000000000004 0.0000000000000284
v 0.0097155002877116 0.0716258808970451 0.0000000000000284
v 0.0109241157770157 0.0728344991803169 0.0000000000000284
v 0.0168910007923841 0.0780732482671738 0.0000000000000286
v 0.0113664995878935 0.0744855031371117 0.0000000000000284
v 0.0109241157770157 0.0761364996433258 0.0000000000000284
v 0.0064134998247027 0.0773451179265976 0.0000000000000284
v -0.0044767498038709 0.0780732482671738 0.0000000000000284
v 0.0080645000562072 0.0777875036001205 0.0000000000000284
v 0.0097155002877116 0.0773451179265976 0.0000000000000284
v 0.0052048843353987 0.0761364996433258 0.0000000000000284
v 0.0047625000588596 0.0744855031371117 0.0000000000000284
v 0.0052048843353987 0.0728344991803169 0.0000000000000284
v 0.0581475421786308 0.0235054846853018 0.0000000000000291
v 0.0604171119630337 0.0271174814552069 0.0000000000000291
v 0.0634335204958916 0.0301338899880648 0.0000000000000291
v 0.0670455172657967 0.0324034579098225 0.0000000000000291
v 0.0710719749331474 0.0338123776018620 0.0000000000000291
v 0.0753109976649284 0.0342900007963181 0.0000000000000293
v -0.0041910000145435 0.0825499966740608 0.0000000000000284
v -0.0036295123863965 0.0804544985294342 0.0000000000000284
v 0.0036295123863965 0.0804544985294342 0.0000000000000284
v 0.0080645000562072 0.0873124971985817 0.0000000000000284
v 0.0097155002877116 0.0877548828721046 0.0000000000000284
v 0.0109241157770157 0.0889635011553764 0.0000000000000284
v 0.0113664995878935 0.0906144976615906 0.0000000000000284
v 0.0146280350163579 0.0909954980015755 0.0000000000000286
v 0.0119437407702208 0.0944937393069267 0.0000000000000284
v -0.0044823279604316 0.0988354086875916 0.0000000000000284
v 0.0052048843353987 0.0922655016183853 0.0000000000000284
v 0.0047625000588596 0.0906144976615906 0.0000000000000284
v 0.0041910000145435 0.0825499966740608 0.0000000000000284
v 0.0036295123863965 0.0846455022692680 0.0000000000000284
v 0.0064134998247027 0.0877548828721046 0.0000000000000284
v 0.0052048843353987 0.0889635011553764 0.0000000000000284
v -0.0036295123863965 0.0846455022692680 0.0000000000000284
v -0.0020955000072718 0.0861795097589493 0.0000000000000284
v -0.0000000000000024 0.0867410004138947 0.0000000000000284
v 0.0020955000072718 0.0861795097589493 0.0000000000000284
v 0.0020955000072718 0.0789204910397530 0.0000000000000284
v -0.0000000000000024 0.0783590003848076 0.0000000000000284
v -0.0020955000072718 0.0789204910397530 0.0000000000000284
v 0.0109241157770157 0.0922655016183853 0.0000000000000284
v 0.0097155002877116 0.0934741124510765 0.0000000000000284
v 0.0084455003961921 0.0971780344843864 0.0000000000000284
v 0.0080645000562072 0.0939164981245995 0.0000000000000284
v 0.0043717124499381 0.0988654494285583 0.0000000000000284
v 0.0064134998247027 0.0934741124510765 0.0000000000000284
v -0.0000000000000024 0.0994409993290901 0.0000000000000284
v -0.0043717124499381 0.0988654494285583 0.0000000000000284
v 0.0168910007923841 0.0825499966740608 0.0000000000000286
v 0.0163154527544975 0.0869217142462730 0.0000000000000286
v -0.0097155002877116 0.0877548828721046 0.0000000000000282
v -0.0080645000562072 0.0873124971985817 0.0000000000000282
v -0.0064134998247027 0.0877548828721046 0.0000000000000284
v -0.0052048843353987 0.0889635011553764 0.0000000000000284
v -0.0047625000588596 0.0906144976615906 0.0000000000000284
v -0.0052048843353987 0.0922655016183853 0.0000000000000284
v -0.0064134998247027 0.0934741124510765 0.0000000000000284
v -0.0084455003961921 0.0971780344843864 0.0000000000000282
v -0.0080645000562072 0.0939164981245995 0.0000000000000282
v -0.0119437407702208 0.0944937393069267 0.0000000000000282
v -0.0168910007923841 -0.0000000000000004 0.0000000000000282
v -0.0097155002877116 0.0716258808970451 0.0000000000000282
v -0.0080645000562072 0.0711835026741028 0.0000000000000282
v -0.0064134998247027 0.0716258808970451 0.0000000000000284
v -0.0080645000562072 0.0777875036001205 0.0000000000000282
v -0.0097155002877116 0.0773451179265976 0.0000000000000282
v -0.0168910007923841 0.0780732482671738 0.0000000000000282
v -0.0052048843353987 0.0728344991803169 0.0000000000000284
v -0.0047625000588596 0.0744855031371117 0.0000000000000284
v -0.0052048843353987 0.0761364996433258 0.0000000000000284
v -0.0064134998247027 0.0773451179265976 0.0000000000000284
v -0.0168910007923841 0.0825499966740608 0.0000000000000282
v -0.0109241157770157 0.0889635011553764 0.0000000000000282
v -0.0163154527544975 0.0869217142462730 0.0000000000000282
v -0.0113664995878935 0.0906144976615906 0.0000000000000282
v -0.0146280350163579 0.0909954980015755 0.0000000000000282
v -0.0109241157770157 0.0922655016183853 0.0000000000000282
v -0.0097155002877116 0.0934741124510765 0.0000000000000282
v -0.0109241157770157 0.0761364996433258 0.0000000000000282
v -0.0113664995878935 0.0744855031371117 0.0000000000000282
v -0.0109241157770157 0.0728344991803169 0.0000000000000282
v 0.0047625000588596 0.0744855031371117 0.0050800000317395
v 0.0052048843353987 0.0761364996433258 0.0050800000317395
v 0.0064134998247027 0.0773451179265976 0.0050800000317395
v 0.0080645000562072 0.0777875036001205 0.0050800000317395
v 0.0097155002877116 0.0773451179265976 0.0050800000317395
v 0.0109241157770157 0.0761364996433258 0.0050800000317395
v 0.0113664995878935 0.0744855031371117 0.0050800000317395
v 0.0109241157770157 0.0728344991803169 0.0050800000317395
v 0.0097155002877116 0.0716258808970451 0.0050800000317395
v 0.0080645000562072 0.0711835026741028 0.0050800000317395
v 0.0064134998247027 0.0716258808970451 0.0050800000317395
v 0.0052048843353987 0.0728344991803169 0.0050800000317395
v -0.0113664995878935 0.0744855031371117 0.0050800000317395
v -0.0109241157770157 0.0761364996433258 0.0050800000317395
v -0.0097155002877116 0.0773451179265976 0.0050800000317395
v -0.0080645000562072 0.0777875036001205 0.0050800000317395
v -0.0064134998247027 0.0773451179265976 0.0050800000317395
v -0.0052048843353987 0.0761364996433258 0.0050800000317395
v -0.0047625000588596 0.0744855031371117 0.0050800000317395
v -0.0052048843353987 0.0728344991803169 0.0050800000317395
v -0.0064134998247027 0.0716258808970451 0.0050800000317395
v -0.0080645000562072 0.0711835026741028 0.0050800000317395
v -0.0097155002877116 0.0716258808970451 0.0050800000317395
v -0.0109241157770157 0.0728344991803169 0.0050800000317395
v -0.0113664995878935 0.0906144976615906 0.0050800000317395
v -0.0109241157770157 0.0922655016183853 0.0050800000317395
v -0.0097155002877116 0.0934741124510765 0.0050800000317395
v -0.0080645000562072 0.0939164981245995 0.0050800000317395
v -0.0064134998247027 0.0934741124510765 0.0050800000317395
v -0.0052048843353987 0.0922655016183853 0.0050800000317395
v -0.0047625000588596 0.0906144976615906 0.0050800000317395
v -0.0052048843353987 0.0889635011553764 0.0050800000317395
v -0.0064134998247027 0.0877548828721046 0.0050800000317395
v -0.0080645000562072 0.0873124971985817 0.0050800000317395
v -0.0097155002877116 0.0877548828721046 0.0050800000317395
v -0.0109241157770157 0.0889635011553764 0.0050800000317395
v 0.0047625000588596 0.0906144976615906 0.0050800000317395
v 0.0052048843353987 0.0922655016183853 0.0050800000317395
v 0.0064134998247027 0.0934741124510765 0.0050800000317395
v 0.0080645000562072 0.0939164981245995 0.0050800000317395
v 0.0097155002877116 0.0934741124510765 0.0050800000317395
v 0.0109241157770157 0.0922655016183853 0.0050800000317395
v 0.0113664995878935 0.0906144976615906 0.0050800000317395
v 0.0109241157770157 0.0889635011553764 0.0050800000317395
v 0.0097155002877116 0.0877548828721046 0.0050800000317395
v 0.0080645000562072 0.0873124971985817 0.0050800000317395
v 0.0064134998247027 0.0877548828721046 0.0050800000317395
v 0.0052048843353987 0.0889635011553764 0.0050800000317395
# 274 vertices, 0 vertices normals

f 1 2 3
f 3 2 4
f 3 4 5
f 5 4 6
f 5 6 7
f 7 6 8
f 7 8 9
f 9 8 10
f 9 10 11
f 11 10 12
f 11 12 13
f 13 12 14
f 13 14 15
f 15 14 16
f 15 16 17
f 17 16 18
f 17 18 19
f 19 18 20
f 19 20 21
f 21 20 22
f 21 22 23
f 23 22 24
f 23 24 1
f 1 24 2
f 25 26 27
f 27 26 28
f 27 28 29
f 29 28 30
f 29 30 31
f 31 30 32
f 31 32 33
f 33 32 34
f 33 34 35
f 35 34 36
f 35 36 37
f 37 36 38
f 37 38 39
f 39 38 40
f 39 40 41
f 41 40 42
f 41 42 43
f 43 42 44
f 43 44 45
f 45 44 46
f 45 46 47
f 47 46 48
f 47 48 25
f 25 48 26
f 49 50 51
f 51 50 52
f 51 52 53
f 53 52 54
f 53 54 55
f 55 54 56
f 55 56 57
f 57 56 58
f 57 58 59
f 59 58 60
f 59 60 61
f 61 60 62
f 61 62 63
f 63 62 64
f 63 64 65
f 65 64 66
f 65 66 67
f 67 66 68
f 67 68 69
f 69 68 70
f 69 70 71
f 71 70 72
f 71 72 49
f 49 72 50
f 73 74 75
f 75 74 76
f 75 76 77
f 77 76 78
f 77 78 79
f 79 78 80
f 79 80 81
f 81 80 82
f 81 82 83
f 83 82 84
f 83 84 85
f 85 84 86
f 85 86 87
f 87 86 88
f 87 88 89
f 89 88 90
f 89 90 91
f 91 90 92
f 91 92 93
f 93 92 94
f 93 94 95
f 95 94 96
f 95 96 73
f 73 96 74
f 59 61 97
f 39 97 37
f 37 97 98
f 37 98 35
f 39 41 97
f 97 41 43
f 97 43 99
f 99 43 45
f 99 45 100
f 100 45 47
f 100 47 101
f 101 47 102
f 102 47 25
f 102 25 103
f 25 27 103
f 103 27 29
f 103 29 104
f 104 29 31
f 104 31 98
f 98 31 33
f 98 33 35
f 105 106 97
f 9 11 107
f 107 11 108
f 108 11 13
f 108 13 15
f 109 110 111
f 111 110 112
f 15 17 108
f 108 17 113
f 108 113 114
f 114 113 109
f 114 109 115
f 115 109 111
f 116 3 117
f 117 3 5
f 9 107 7
f 7 107 118
f 7 118 5
f 5 118 119
f 5 119 117
f 17 19 113
f 113 19 21
f 113 21 120
f 120 21 23
f 120 23 1
f 106 121 97
f 97 121 122
f 97 122 98
f 98 122 123
f 98 123 124
f 116 98 3
f 3 98 124
f 3 124 1
f 1 124 125
f 1 125 120
f 75 77 97
f 91 93 126
f 79 81 111
f 127 128 129
f 129 128 130
f 130 131 129
f 129 131 132
f 129 132 133
f 93 95 97
f 97 95 73
f 97 73 75
f 112 105 111
f 111 105 97
f 111 97 79
f 79 97 77
f 81 83 111
f 111 83 85
f 111 85 134
f 134 85 87
f 134 87 89
f 89 91 134
f 134 91 126
f 134 126 135
f 135 126 129
f 135 129 136
f 136 129 133
f 93 97 126
f 126 97 61
f 126 61 63
f 63 65 126
f 126 65 67
f 126 67 137
f 67 69 137
f 137 69 71
f 137 71 99
f 99 71 49
f 99 49 51
f 51 53 99
f 99 53 55
f 99 55 97
f 97 55 57
f 97 57 59
f 138 139 140
f 141 142 143
f 142 141 140
f 140 141 144
f 140 144 138
f 139 145 140
f 140 145 146
f 140 146 147
f 147 146 148
f 147 148 149
f 150 151 152
f 152 151 147
f 152 147 153
f 153 147 149
f 150 154 151
f 151 154 155
f 151 155 144
f 144 155 156
f 144 156 138
f 143 157 141
f 141 157 158
f 141 158 159
f 159 160 141
f 141 160 161
f 141 161 162
f 151 163 164
f 165 166 167
f 168 169 170
f 170 169 171
f 172 173 174
f 165 175 166
f 166 175 176
f 166 176 177
f 177 176 178
f 179 172 180
f 180 172 174
f 180 174 181
f 181 174 178
f 181 178 182
f 182 178 176
f 183 147 184
f 184 147 151
f 184 151 185
f 185 151 164
f 169 186 171
f 171 186 187
f 171 187 188
f 188 187 189
f 188 189 190
f 190 189 191
f 190 191 192
f 192 191 173
f 192 173 193
f 193 173 172
f 183 165 147
f 147 165 167
f 147 167 194
f 194 167 168
f 194 168 195
f 195 168 170
f 196 197 151
f 151 197 198
f 151 198 199
f 179 163 172
f 172 163 151
f 172 151 200
f 200 151 199
f 200 201 172
f 172 201 202
f 172 202 203
f 203 202 204
f 203 204 205
f 206 207 144
f 144 207 208
f 144 208 209
f 210 211 212
f 209 213 144
f 144 213 214
f 144 214 151
f 151 214 215
f 151 215 216
f 216 210 151
f 151 210 212
f 151 212 196
f 196 212 217
f 196 217 218
f 218 217 219
f 218 219 220
f 220 219 221
f 220 221 222
f 222 221 205
f 222 205 223
f 223 205 204
f 211 224 212
f 212 224 225
f 212 225 206
f 206 225 226
f 206 226 207
f 141 129 144
f 144 129 126
f 144 126 206
f 206 126 137
f 127 129 162
f 162 129 141
f 127 162 161
f 127 161 128
f 128 161 160
f 128 160 130
f 130 160 159
f 130 159 131
f 131 159 158
f 131 158 132
f 132 158 157
f 132 157 133
f 133 157 143
f 133 143 136
f 136 143 142
f 136 142 135
f 134 135 140
f 140 135 142
f 194 115 147
f 147 115 111
f 147 111 140
f 140 111 134
f 115 194 195
f 115 195 114
f 114 195 170
f 114 170 108
f 108 170 171
f 108 171 107
f 107 171 188
f 107 188 118
f 118 188 190
f 118 190 119
f 119 190 192
f 119 192 117
f 117 192 193
f 117 193 116
f 116 193 98
f 98 193 172
f 98 172 104
f 172 203 104
f 104 203 205
f 104 205 103
f 103 205 221
f 103 221 102
f 102 221 219
f 102 219 101
f 101 219 217
f 101 217 100
f 206 137 212
f 212 137 99
f 212 99 217
f 217 99 100
f 122 163 123
f 123 163 179
f 123 179 124
f 124 179 180
f 124 180 125
f 125 180 181
f 125 181 120
f 120 181 182
f 120 182 113
f 113 182 176
f 113 176 109
f 109 176 175
f 109 175 110
f 110 175 165
f 110 165 112
f 112 165 183
f 112 183 105
f 105 183 184
f 105 184 106
f 106 184 185
f 106 185 121
f 121 185 164
f 121 164 122
f 122 164 163
f 227 155 228
f 228 155 154
f 228 154 229
f 229 154 150
f 229 150 230
f 230 150 152
f 230 152 231
f 231 152 153
f 231 153 232
f 232 153 149
f 232 149 233
f 233 149 148
f 233 148 234
f 234 148 146
f 234 146 235
f 235 146 145
f 235 145 236
f 236 145 139
f 236 139 237
f 237 139 138
f 237 138 238
f 238 138 156
f 238 156 227
f 227 156 155
f 90 235 92
f 92 235 236
f 92 236 94
f 94 236 237
f 94 237 96
f 96 237 238
f 96 238 74
f 74 238 227
f 74 227 76
f 76 227 228
f 76 228 78
f 78 228 229
f 78 229 80
f 80 229 230
f 80 230 82
f 82 230 231
f 82 231 84
f 84 231 232
f 84 232 86
f 86 232 233
f 86 233 88
f 88 233 234
f 88 234 90
f 90 234 235
f 239 225 240
f 240 225 224
f 240 224 241
f 241 224 211
f 241 211 242
f 242 211 210
f 242 210 243
f 243 210 216
f 243 216 244
f 244 216 215
f 244 215 245
f 245 215 214
f 245 214 246
f 246 214 213
f 246 213 247
f 247 213 209
f 247 209 248
f 248 209 208
f 248 208 249
f 249 208 207
f 249 207 250
f 250 207 226
f 250 226 239
f 239 226 225
f 58 243 60
f 60 243 244
f 60 244 62
f 62 244 245
f 62 245 64
f 64 245 246
f 64 246 66
f 66 246 247
f 66 247 68
f 68 247 248
f 68 248 70
f 70 248 249
f 70 249 72
f 72 249 250
f 72 250 50
f 50 250 239
f 50 239 52
f 52 239 240
f 52 240 54
f 54 240 241
f 54 241 56
f 56 241 242
f 56 242 58
f 58 242 243
f 251 220 252
f 252 220 222
f 252 222 253
f 253 222 223
f 253 223 254
f 254 223 204
f 254 204 255
f 255 204 202
f 255 202 256
f 256 202 201
f 256 201 257
f 257 201 200
f 257 200 258
f 258 200 199
f 258 199 259
f 259 199 198
f 259 198 260
f 260 198 197
f 260 197 261
f 261 197 196
f 261 196 262
f 262 196 218
f 262 218 251
f 251 218 220
f 34 255 36
f 36 255 256
f 36 256 38
f 38 256 257
f 38 257 40
f 40 257 258
f 40 258 42
f 42 258 259
f 42 259 44
f 44 259 260
f 44 260 46
f 46 260 261
f 46 261 48
f 48 261 262
f 48 262 26
f 26 262 251
f 26 251 28
f 28 251 252
f 28 252 30
f 30 252 253
f 30 253 32
f 32 253 254
f 32 254 34
f 34 254 255
f 263 174 264
f 264 174 173
f 264 173 265
f 265 173 191
f 265 191 266
f 266 191 189
f 266 189 267
f 267 189 187
f 267 187 268
f 268 187 186
f 268 186 269
f 269 186 169
f 269 169 270
f 270 169 168
f 270 168 271
f 271 168 167
f 271 167 272
f 272 167 166
f 272 166 273
f 273 166 177
f 273 177 274
f 274 177 178
f 274 178 263
f 263 178 174
f 18 271 20
f 20 271 272
f 20 272 22
f 22 272 273
f 22 273 24
f 24 273 274
f 24 274 2
f 2 274 263
f 2 263 4
f 4 263 264
f 4 264 6
f 6 264 265
f 6 265 8
f 8 265 266
f 8 266 10
f 10 266 267
f 10 267 12
f 12 267 268
f 12 268 14
f 14 268 269
f 14 269 16
f 16 269 270
f 16 270 18
f 18 270 271
# 564 faces, 0 coords texture

# End of File
