####
#
# OBJ File Generated by Meshlab
#
####
# Object TL_Wheel.obj
#
# Vertices: 409
# Faces: 836
#
####
v -0.0142874997109175 0.0000000000003173 0.0039687501266599
v -0.0142874997109175 0.0000000000003173 -0.0039687501266599
v -0.0137087563052773 0.0040252539329231 0.0039687501266599
v -0.0137087563052773 0.0040252539329231 -0.0039687501266599
v -0.0120194097980857 0.0077244057320058 0.0039687501266599
v -0.0120194097980857 0.0077244057320058 -0.0039687501266599
v -0.0093563226982951 0.0107977716252208 0.0039687501266599
v -0.0093563226982951 0.0107977716252208 -0.0039687501266599
v -0.0059352419339120 0.0129963671788573 0.0039687501266599
v -0.0059352419339120 0.0129963671788573 -0.0039687501266599
v -0.0020333232823759 0.0141420736908913 0.0039687501266599
v -0.0020333232823759 0.0141420736908913 -0.0039687501266599
v 0.0020333232823759 0.0141420736908913 0.0039687501266599
v 0.0020333232823759 0.0141420736908913 -0.0039687501266599
v 0.0059352419339120 0.0129963671788573 0.0039687501266599
v 0.0059352419339120 0.0129963671788573 -0.0039687501266599
v 0.0093563226982951 0.0107977716252208 0.0039687501266599
v 0.0093563226982951 0.0107977716252208 -0.0039687501266599
v 0.0120194097980857 0.0077244057320058 0.0039687501266599
v 0.0120194097980857 0.0077244057320058 -0.0039687501266599
v 0.0137087563052773 0.0040252539329231 0.0039687501266599
v 0.0137087563052773 0.0040252539329231 -0.0039687501266599
v 0.0142874997109175 -0.0000000000003175 0.0039687501266599
v 0.0142874997109175 -0.0000000000003175 -0.0039687501266599
v 0.0137087563052773 -0.0040252539329231 0.0039687501266599
v 0.0137087563052773 -0.0040252539329231 -0.0039687501266599
v 0.0120194097980857 -0.0077244057320058 0.0039687501266599
v 0.0120194097980857 -0.0077244057320058 -0.0039687501266599
v 0.0093563226982951 -0.0107977716252208 0.0039687501266599
v 0.0093563226982951 -0.0107977716252208 -0.0039687501266599
v 0.0059352419339120 -0.0129963671788573 0.0039687501266599
v 0.0059352419339120 -0.0129963671788573 -0.0039687501266599
v 0.0020333232823759 -0.0141420736908913 0.0039687501266599
v 0.0020333232823759 -0.0141420736908913 -0.0039687501266599
v -0.0020333232823759 -0.0141420736908913 0.0039687501266599
v -0.0020333232823759 -0.0141420736908913 -0.0039687501266599
v -0.0059352419339120 -0.0129963671788573 0.0039687501266599
v -0.0059352419339120 -0.0129963671788573 -0.0039687501266599
v -0.0093563226982951 -0.0107977716252208 0.0039687501266599
v -0.0093563226982951 -0.0107977716252208 -0.0039687501266599
v -0.0120194097980857 -0.0077244057320058 0.0039687501266599
v -0.0120194097980857 -0.0077244057320058 -0.0039687501266599
v -0.0137087563052773 -0.0040252539329231 0.0039687501266599
v -0.0137087563052773 -0.0040252539329231 -0.0039687501266599
v 0.0063499999232590 -0.0000000000001410 -0.0152399996295571
v 0.0063499999232590 -0.0000000000001412 -0.0055562499910593
v 0.0058010136708617 0.0025827777571976 -0.0152399996295571
v 0.0058010136708617 0.0025827777571976 -0.0055562499910593
v 0.0042489795014262 0.0047189695760608 -0.0152399996295571
v 0.0042489795014262 0.0047189695760608 -0.0055562499910593
v 0.0019622580148280 0.0060392087325454 -0.0152399996295571
v 0.0019622580148280 0.0060392087325454 -0.0055562499910593
v -0.0006637557526119 0.0063152140937746 -0.0152399996295571
v -0.0006637557526119 0.0063152140937746 -0.0055562499910593
v -0.0031749999616295 0.0054992614313960 -0.0152399996295571
v -0.0031749999616295 0.0054992614313960 -0.0055562499910593
v -0.0051372577436268 0.0037324363365769 -0.0152399996295571
v -0.0051372577436268 0.0037324363365769 -0.0055562499910593
v -0.0062112370505929 0.0013202392728999 -0.0152399996295571
v -0.0062112370505929 0.0013202392728999 -0.0055562499910593
v -0.0062112370505929 -0.0013202392728999 -0.0152399996295571
v -0.0062112370505929 -0.0013202392728999 -0.0055562499910593
v -0.0051372577436268 -0.0037324363365769 -0.0152399996295571
v -0.0051372577436268 -0.0037324363365769 -0.0055562499910593
v -0.0031749999616295 -0.0054992614313960 -0.0152399996295571
v -0.0031749999616295 -0.0054992614313960 -0.0055562499910593
v -0.0006637557526119 -0.0063152140937746 -0.0152399996295571
v -0.0006637557526119 -0.0063152140937746 -0.0055562499910593
v 0.0019622580148280 -0.0060392087325454 -0.0152399996295571
v 0.0019622580148280 -0.0060392087325454 -0.0055562499910593
v 0.0042489795014262 -0.0047189695760608 -0.0152399996295571
v 0.0042489795014262 -0.0047189695760608 -0.0055562499910593
v 0.0058010136708617 -0.0025827777571976 -0.0152399996295571
v 0.0058010136708617 -0.0025827777571976 -0.0055562499910593
v 0.0037492080591619 0.0427619554102421 -0.0152399996295571
v 0.0035448009148240 0.0427793860435486 -0.0152399996295571
v 0.0035448009148240 0.0427793860435486 0.0152399996295571
v -0.0035448009148240 0.0427793860435486 -0.0152399996295571
v -0.0035448009148240 0.0427793860435486 0.0152399996295571
v -0.0105377100408077 0.0416124761104584 -0.0152399996295571
v -0.0105377100408077 0.0416124761104584 0.0152399996295571
v -0.0172431785613298 0.0393104851245880 -0.0152399996295571
v -0.0172431785613298 0.0393104851245880 0.0152399996295571
v -0.0234782975167036 0.0359362065792084 -0.0152399996295571
v -0.0234782975167036 0.0359362065792084 0.0152399996295571
v -0.0290729887783527 0.0315816849470139 -0.0152399996295571
v -0.0290729887783527 0.0315816849470139 0.0152399996295571
v -0.0338746458292007 0.0263656955212355 -0.0152399996295571
v -0.0338746458292007 0.0263656955212355 0.0152399996295571
v -0.0377522893249989 0.0204305183142424 -0.0152399996295571
v -0.0377522893249989 0.0204305183142424 0.0152399996295571
v -0.0406001508235931 0.0139380497857928 -0.0152399996295571
v -0.0406001508235931 0.0139380497857928 0.0152399996295571
v -0.0423405468463898 0.0070653874427080 -0.0152399996295571
v -0.0423405468463898 0.0070653874427080 0.0152399996295571
v -0.0429259985685349 0.0000000000009535 -0.0152399996295571
v -0.0429259985685349 0.0000000000009532 0.0152399996295571
v -0.0423405468463898 -0.0070653874427080 -0.0152399996295571
v -0.0423405468463898 -0.0070653874427080 0.0152399996295571
v -0.0406001508235931 -0.0139380497857928 -0.0152399996295571
v -0.0406001508235931 -0.0139380497857928 0.0152399996295571
v -0.0377522893249989 -0.0204305183142424 -0.0152399996295571
v -0.0377522893249989 -0.0204305183142424 0.0152399996295571
v -0.0338746458292007 -0.0263656955212355 -0.0152399996295571
v -0.0338746458292007 -0.0263656955212355 0.0152399996295571
v -0.0290729887783527 -0.0315816849470139 -0.0152399996295571
v -0.0290729887783527 -0.0315816849470139 0.0152399996295571
v -0.0234782975167036 -0.0359362065792084 -0.0152399996295571
v -0.0234782975167036 -0.0359362065792084 0.0152399996295571
v -0.0172431785613298 -0.0393104851245880 -0.0152399996295571
v -0.0172431785613298 -0.0393104851245880 0.0152399996295571
v -0.0105377100408077 -0.0416124761104584 -0.0152399996295571
v -0.0105377100408077 -0.0416124761104584 0.0152399996295571
v -0.0035448009148240 -0.0427793860435486 -0.0152399996295571
v -0.0035448009148240 -0.0427793860435486 0.0152399996295571
v 0.0035448009148240 -0.0427793860435486 -0.0152399996295571
v 0.0035448009148240 -0.0427793860435486 0.0152399996295571
v 0.0105377100408077 -0.0416124761104584 -0.0152399996295571
v 0.0105377100408077 -0.0416124761104584 0.0152399996295571
v 0.0172431785613298 -0.0393104851245880 -0.0152399996295571
v 0.0172431785613298 -0.0393104851245880 0.0152399996295571
v 0.0234782975167036 -0.0359362065792084 -0.0152399996295571
v 0.0234782975167036 -0.0359362065792084 0.0152399996295571
v 0.0290729887783527 -0.0315816849470139 -0.0152399996295571
v 0.0290729887783527 -0.0315816849470139 0.0152399996295571
v 0.0338746458292007 -0.0263656955212355 -0.0152399996295571
v 0.0338746458292007 -0.0263656955212355 0.0152399996295571
v 0.0377522893249989 -0.0204305183142424 -0.0152399996295571
v 0.0377522893249989 -0.0204305183142424 0.0152399996295571
v 0.0406001508235931 -0.0139380497857928 -0.0152399996295571
v 0.0406001508235931 -0.0139380497857928 0.0152399996295571
v 0.0423405468463898 -0.0070653874427080 -0.0152399996295571
v 0.0423405468463898 -0.0070653874427080 0.0152399996295571
v 0.0429259985685349 -0.0000000000009535 -0.0152399996295571
v 0.0429259985685349 -0.0000000000009537 0.0152399996295571
v 0.0423405468463898 0.0070653874427080 -0.0152399996295571
v 0.0423405468463898 0.0070653874427080 0.0152399996295571
v 0.0406001508235931 0.0139380497857928 -0.0152399996295571
v 0.0406001508235931 0.0139380497857928 0.0152399996295571
v 0.0377522893249989 0.0204305183142424 -0.0152399996295571
v 0.0377522893249989 0.0204305183142424 0.0152399996295571
v 0.0338746458292007 0.0263656955212355 -0.0152399996295571
v 0.0338746458292007 0.0263656955212355 0.0152399996295571
v 0.0290729887783527 0.0315816849470139 -0.0152399996295571
v 0.0290729887783527 0.0315816849470139 0.0152399996295571
v 0.0234782975167036 0.0359362065792084 -0.0152399996295571
v 0.0234782975167036 0.0359362065792084 0.0152399996295571
v 0.0172431785613298 0.0393104851245880 -0.0152399996295571
v 0.0172431785613298 0.0393104851245880 0.0152399996295571
v 0.0105377100408077 0.0416124761104584 -0.0152399996295571
v 0.0105377100408077 0.0416124761104584 0.0152399996295571
v 0.0152681954205036 -0.0300614647567272 -0.0152399996295571
v -0.0152681954205036 -0.0300614647567272 -0.0152399996295571
v -0.0314707644283772 0.0129879033192992 -0.0152399996295571
v -0.0314707644283772 0.0068125277757645 -0.0152399996295571
v 0.0183010268956423 0.0071219229139388 -0.0152399996295571
v 0.0178826600313187 0.0067035560496151 -0.0152399996295571
v 0.0152681954205036 0.0068125277757645 -0.0152399996295571
v 0.0177295282483101 0.0061320560052991 -0.0152399996295571
v 0.0178826600313187 0.0055605559609830 -0.0152399996295571
v 0.0152681954205036 -0.0006804720032960 -0.0152399996295571
v 0.0183010268956423 0.0051421890966594 -0.0152399996295571
v 0.0188725274056196 0.0049890559166670 -0.0152399996295571
v 0.0194440279155970 0.0051421890966594 -0.0152399996295571
v 0.0198623947799206 0.0055605559609830 -0.0152399996295571
v 0.0200155284255743 0.0061320560052991 -0.0152399996295571
v 0.0198623947799206 0.0067035560496151 -0.0152399996295571
v 0.0194440279155970 0.0071219229139388 -0.0152399996295571
v 0.0152681954205036 0.0129879033192992 -0.0152399996295571
v 0.0188725274056196 0.0072750560939312 -0.0152399996295571
v 0.0009898670250550 0.0204152502119541 -0.0152399996295571
v 0.0005714999861084 0.0208336170762777 -0.0152399996295571
v -0.0011429999722168 0.0198437497019768 -0.0152399996295571
v -0.0009898670250550 0.0192722491919994 -0.0152399996295571
v -0.0037465000059456 0.0129879033192992 -0.0152399996295571
v 0.0037465000059456 0.0129879033192992 -0.0152399996295571
v 0.0009898670250550 0.0192722491919994 -0.0152399996295571
v 0.0011429999722168 0.0198437497019768 -0.0152399996295571
v 0.0000000000004662 0.0209867507219315 -0.0152399996295571
v -0.0005714999861084 0.0208336170762777 -0.0152399996295571
v -0.0009898670250550 0.0204152502119541 -0.0152399996295571
v -0.0005714999861084 0.0188538823276758 -0.0152399996295571
v 0.0000000000004154 0.0187007505446672 -0.0152399996295571
v 0.0005714999861084 0.0188538823276758 -0.0152399996295571
v 0.0084354318678379 0.0129879033192992 -0.0152399996295571
v -0.0152681954205036 0.0129879033192992 -0.0152399996295571
v -0.0314707644283772 -0.0006804720032960 -0.0152399996295571
v -0.0152681954205036 -0.0106304651126266 -0.0152399996295571
v -0.0314707644283772 -0.0106304651126266 -0.0152399996295571
v 0.0084354318678379 -0.0300614647567272 -0.0152399996295571
v 0.0037465000059456 -0.0300614647567272 -0.0152399996295571
v -0.0037465000059456 -0.0300614647567272 -0.0152399996295571
v 0.0152681954205036 -0.0106304651126266 -0.0152399996295571
v 0.0037465000059456 0.0068125277757645 -0.0152399996295571
v 0.0084354318678379 0.0068125277757645 -0.0152399996295571
v 0.0084354318678379 -0.0106304651126266 -0.0152399996295571
v 0.0037465000059456 -0.0106304651126266 -0.0152399996295571
v -0.0037465000059456 -0.0106304651126266 -0.0152399996295571
v -0.0152681954205036 -0.0006804720032960 -0.0152399996295571
v -0.0152681954205036 0.0068125277757645 -0.0152399996295571
v -0.0037465000059456 0.0068125277757645 -0.0152399996295571
v -0.0200155284255743 0.0061320560052991 -0.0152399996295571
v -0.0188725274056196 0.0049890559166670 -0.0152399996295571
v -0.0194440279155970 0.0051421890966594 -0.0152399996295571
v -0.0198623947799206 0.0055605559609830 -0.0152399996295571
v -0.0183010268956423 0.0051421890966594 -0.0152399996295571
v -0.0178826600313187 0.0055605559609830 -0.0152399996295571
v -0.0177295282483101 0.0061320560052991 -0.0152399996295571
v -0.0178826600313187 0.0067035560496151 -0.0152399996295571
v -0.0183010268956423 0.0071219229139388 -0.0152399996295571
v -0.0188725274056196 0.0072750560939312 -0.0152399996295571
v -0.0194440279155970 0.0071219229139388 -0.0152399996295571
v -0.0198623947799206 0.0067035560496151 -0.0152399996295571
v 0.0105208633467555 -0.0160539317876101 -0.0152399996295571
v 0.0106739969924092 -0.0166254304349422 -0.0152399996295571
v 0.0110923638567328 -0.0170437972992659 -0.0152399996295571
v 0.0116638634353876 -0.0171969309449196 -0.0152399996295571
v 0.0122353639453650 -0.0170437972992659 -0.0152399996295571
v 0.0126537308096886 -0.0166254304349422 -0.0152399996295571
v 0.0128068635240197 -0.0160539317876101 -0.0152399996295571
v 0.0110923638567328 -0.0150640634819865 -0.0152399996295571
v 0.0106739969924092 -0.0154824312776327 -0.0152399996295571
v 0.0126537308096886 -0.0154824312776327 -0.0152399996295571
v 0.0122353639453650 -0.0150640634819865 -0.0152399996295571
v 0.0116638634353876 -0.0149109307676554 -0.0152399996295571
v -0.0122353639453650 -0.0170437972992659 -0.0152399996295571
v -0.0116638634353876 -0.0171969309449196 -0.0152399996295571
v -0.0106739969924092 -0.0166254304349422 -0.0152399996295571
v -0.0105208633467555 -0.0160539317876101 -0.0152399996295571
v -0.0110923638567328 -0.0170437972992659 -0.0152399996295571
v -0.0122353639453650 -0.0150640634819865 -0.0152399996295571
v -0.0126537308096886 -0.0154824312776327 -0.0152399996295571
v -0.0128068635240197 -0.0160539317876101 -0.0152399996295571
v -0.0126537308096886 -0.0166254304349422 -0.0152399996295571
v -0.0106739969924092 -0.0154824312776327 -0.0152399996295571
v -0.0110923638567328 -0.0150640634819865 -0.0152399996295571
v -0.0116638634353876 -0.0149109307676554 -0.0152399996295571
v 0.0084354318678379 -0.0006804720032960 -0.0152399996295571
v 0.0248061623424292 0.0054602492600679 0.0152399996295571
v 0.0230524148792028 0.0106651829555631 0.0152399996295571
v 0.0202207639813423 0.0153714250773191 0.0152399996295571
v 0.0164436120539904 0.0193589162081480 0.0152399996295571
v 0.0230524148792028 -0.0106651829555631 0.0152399996295571
v 0.0248061623424292 -0.0054602492600679 0.0152399996295571
v 0.0253999996930361 -0.0000000000005644 0.0152399996295571
v 0.0118975741788745 -0.0224412064999342 0.0152399996295571
v 0.0164436120539904 -0.0193589162081480 0.0152399996295571
v 0.0202207639813423 -0.0153714250773191 0.0152399996295571
v -0.0094015095382929 -0.0235960092395544 0.0152399996295571
v -0.0041092624887824 -0.0250653941184282 0.0152399996295571
v 0.0013751282822341 -0.0253627486526966 0.0152399996295571
v 0.0067952196113765 -0.0244741700589657 0.0152399996295571
v -0.0217641722410917 -0.0130950678139925 0.0152399996295571
v -0.0184402856975794 -0.0174675658345222 0.0152399996295571
v -0.0142541518434882 -0.0210233014076948 0.0152399996295571
v 0.0118975741788745 0.0224412064999342 0.0152399996295571
v 0.0067952196113765 0.0244741700589657 0.0152399996295571
v 0.0013751282822341 0.0253627486526966 0.0152399996295571
v -0.0041092624887824 0.0250653941184282 0.0152399996295571
v -0.0094015095382929 0.0235960092395544 0.0152399996295571
v -0.0142541518434882 0.0210233014076948 0.0152399996295571
v -0.0184402856975794 0.0174675658345222 0.0152399996295571
v -0.0252511035650969 0.0027462230063975 0.0152399996295571
v -0.0252511035650969 -0.0027462230063975 0.0152399996295571
v -0.0240703914314508 -0.0081102587282658 0.0152399996295571
v -0.0217641722410917 0.0130950678139925 0.0152399996295571
v -0.0240703914314508 0.0081102587282658 0.0152399996295571
v 0.0047625000588596 -0.0082488916814327 -0.0039687501266599
v 0.0072965733706951 -0.0061225518584251 -0.0039687501266599
v 0.0089505724608898 -0.0032577419187874 -0.0039687501266599
v 0.0095250001177192 -0.0000000000002116 -0.0039687501266599
v 0.0089505724608898 0.0032577419187874 -0.0039687501266599
v 0.0072965733706951 0.0061225518584251 -0.0039687501266599
v -0.0072965733706951 -0.0061225518584251 -0.0039687501266599
v -0.0047625000588596 -0.0082488916814327 -0.0039687501266599
v -0.0016539988573641 -0.0093802940100431 -0.0039687501266599
v 0.0016539988573641 -0.0093802940100431 -0.0039687501266599
v -0.0047625000588596 0.0082488916814327 -0.0039687501266599
v -0.0072965733706951 0.0061225518584251 -0.0039687501266599
v -0.0089505724608898 0.0032577419187874 -0.0039687501266599
v -0.0095250001177192 0.0000000000002114 -0.0039687501266599
v -0.0089505724608898 -0.0032577419187874 -0.0039687501266599
v 0.0047625000588596 0.0082488916814327 -0.0039687501266599
v 0.0016539988573641 0.0093802940100431 -0.0039687501266599
v -0.0016539988573641 0.0093802940100431 -0.0039687501266599
v -0.0095250001177192 0.0000000000002116 -0.0055562499910593
v -0.0089505724608898 -0.0032577419187874 -0.0055562499910593
v -0.0072965733706951 -0.0061225518584251 -0.0055562499910593
v -0.0047625000588596 -0.0082488916814327 -0.0055562499910593
v -0.0016539988573641 -0.0093802940100431 -0.0055562499910593
v 0.0016539988573641 0.0093802940100431 -0.0055562499910593
v -0.0016539988573641 0.0093802940100431 -0.0055562499910593
v -0.0047625000588596 0.0082488916814327 -0.0055562499910593
v -0.0072965733706951 0.0061225518584251 -0.0055562499910593
v -0.0089505724608898 0.0032577419187874 -0.0055562499910593
v 0.0016539988573641 -0.0093802940100431 -0.0055562499910593
v 0.0047625000588596 -0.0082488916814327 -0.0055562499910593
v 0.0072965733706951 -0.0061225518584251 -0.0055562499910593
v 0.0089505724608898 -0.0032577419187874 -0.0055562499910593
v 0.0063499999232590 -0.0000000000001410 -0.0055562499910593
v 0.0095250001177192 -0.0000000000002116 -0.0055562499910593
v 0.0089505724608898 0.0032577419187874 -0.0055562499910593
v 0.0072965733706951 0.0061225518584251 -0.0055562499910593
v 0.0047625000588596 0.0082488916814327 -0.0055562499910593
v 0.0253999996930361 -0.0000000000005642 0.0039687501266599
v 0.0248061623424292 0.0054602492600679 0.0039687501266599
v 0.0230524148792028 0.0106651829555631 0.0039687501266599
v 0.0202207639813423 0.0153714250773191 0.0039687501266599
v 0.0164436120539904 0.0193589162081480 0.0039687501266599
v 0.0118975741788745 0.0224412064999342 0.0039687501266599
v 0.0067952196113765 0.0244741700589657 0.0039687501266599
v 0.0013751282822341 0.0253627486526966 0.0039687501266599
v -0.0041092624887824 0.0250653941184282 0.0039687501266599
v -0.0094015095382929 0.0235960092395544 0.0039687501266599
v -0.0142541518434882 0.0210233014076948 0.0039687501266599
v -0.0184402856975794 0.0174675658345222 0.0039687501266599
v -0.0217641722410917 0.0130950678139925 0.0039687501266599
v -0.0240703914314508 0.0081102587282658 0.0039687501266599
v -0.0252511035650969 0.0027462230063975 0.0039687501266599
v -0.0252511035650969 -0.0027462230063975 0.0039687501266599
v -0.0240703914314508 -0.0081102587282658 0.0039687501266599
v -0.0217641722410917 -0.0130950678139925 0.0039687501266599
v -0.0184402856975794 -0.0174675658345222 0.0039687501266599
v -0.0142541518434882 -0.0210233014076948 0.0039687501266599
v -0.0094015095382929 -0.0235960092395544 0.0039687501266599
v -0.0041092624887824 -0.0250653941184282 0.0039687501266599
v 0.0013751282822341 -0.0253627486526966 0.0039687501266599
v 0.0067952196113765 -0.0244741700589657 0.0039687501266599
v 0.0118975741788745 -0.0224412064999342 0.0039687501266599
v 0.0164436120539904 -0.0193589162081480 0.0039687501266599
v 0.0202207639813423 -0.0153714250773191 0.0039687501266599
v 0.0230524148792028 -0.0106651829555631 0.0039687501266599
v 0.0248061623424292 -0.0054602492600679 0.0039687501266599
v 0.0160085130482912 0.0164941251277924 0.0039687501266599
v 0.0160085130482912 0.0107812779024243 0.0039687501266599
v 0.0126537308096886 -0.0154824312776327 0.0039687501266599
v 0.0128068635240197 -0.0160539317876101 0.0039687501266599
v 0.0160085130482912 -0.0145992152392864 0.0039687501266599
v 0.0194440279155970 0.0051421890966594 0.0039687501266599
v 0.0188725274056196 0.0049890559166670 0.0039687501266599
v 0.0160085130482912 -0.0046492218971252 0.0039687501266599
v 0.0183010268956423 0.0051421890966594 0.0039687501266599
v 0.0198623947799206 0.0067035560496151 0.0039687501266599
v 0.0200155284255743 0.0061320560052991 0.0039687501266599
v 0.0198623947799206 0.0055605559609830 0.0039687501266599
v 0.0183010268956423 0.0071219229139388 0.0039687501266599
v 0.0188725274056196 0.0072750560939312 0.0039687501266599
v 0.0194440279155970 0.0071219229139388 0.0039687501266599
v 0.0178826600313187 0.0055605559609830 0.0039687501266599
v 0.0177295282483101 0.0061320560052991 0.0039687501266599
v 0.0178826600313187 0.0067035560496151 0.0039687501266599
v 0.0126537308096886 -0.0166254304349422 0.0039687501266599
v 0.0122353639453650 -0.0170437972992659 0.0039687501266599
v 0.0116638634353876 -0.0171969309449196 0.0039687501266599
v 0.0058319317176938 -0.0212984662503004 0.0039687501266599
v 0.0110923638567328 -0.0170437972992659 0.0039687501266599
v 0.0106739969924092 -0.0166254304349422 0.0039687501266599
v 0.0058319317176938 -0.0145992152392864 0.0039687501266599
v 0.0105208633467555 -0.0160539317876101 0.0039687501266599
v 0.0106739969924092 -0.0154824312776327 0.0039687501266599
v 0.0110923638567328 -0.0150640634819865 0.0039687501266599
v 0.0116638634353876 -0.0149109307676554 0.0039687501266599
v 0.0122353639453650 -0.0150640634819865 0.0039687501266599
v -0.0116638634353876 -0.0149109307676554 0.0039687501266599
v -0.0110923638567328 -0.0150640634819865 0.0039687501266599
v -0.0058319317176938 -0.0145992152392864 0.0039687501266599
v -0.0128068635240197 -0.0160539317876101 0.0039687501266599
v -0.0126537308096886 -0.0154824312776327 0.0039687501266599
v -0.0160085130482912 -0.0145992152392864 0.0039687501266599
v -0.0122353639453650 -0.0150640634819865 0.0039687501266599
v -0.0106739969924092 -0.0154824312776327 0.0039687501266599
v -0.0105208633467555 -0.0160539317876101 0.0039687501266599
v -0.0058319317176938 -0.0212984662503004 0.0039687501266599
v -0.0106739969924092 -0.0166254304349422 0.0039687501266599
v -0.0110923638567328 -0.0170437972992659 0.0039687501266599
v -0.0116638634353876 -0.0171969309449196 0.0039687501266599
v -0.0122353639453650 -0.0170437972992659 0.0039687501266599
v -0.0126537308096886 -0.0166254304349422 0.0039687501266599
v -0.0227077640593052 -0.0046492218971252 0.0039687501266599
v -0.0227077640593052 0.0107812779024243 0.0039687501266599
v 0.0005714999861084 0.0208336170762777 0.0039687501266599
v 0.0009898670250550 0.0204152502119541 0.0039687501266599
v 0.0011429999722168 0.0198437497019768 0.0039687501266599
v 0.0058319317176938 0.0164941251277924 0.0039687501266599
v 0.0009898670250550 0.0192722491919994 0.0039687501266599
v -0.0009898670250550 0.0192722491919994 0.0039687501266599
v -0.0058319317176938 0.0164941251277924 0.0039687501266599
v -0.0160085130482912 0.0164941251277924 0.0039687501266599
v 0.0005714999861084 0.0188538823276758 0.0039687501266599
v 0.0000000000004154 0.0187007505446672 0.0039687501266599
v -0.0005714999861084 0.0188538823276758 0.0039687501266599
v -0.0011429999722168 0.0198437497019768 0.0039687501266599
v -0.0009898670250550 0.0204152502119541 0.0039687501266599
v -0.0005714999861084 0.0208336170762777 0.0039687501266599
v 0.0000000000004662 0.0209867507219315 0.0039687501266599
v -0.0160085130482912 0.0107812779024243 0.0039687501266599
v -0.0160085130482912 -0.0046492218971252 0.0039687501266599
v -0.0178826600313187 0.0055605559609830 0.0039687501266599
v -0.0183010268956423 0.0051421890966594 0.0039687501266599
v -0.0188725274056196 0.0049890559166670 0.0039687501266599
v -0.0194440279155970 0.0071219229139388 0.0039687501266599
v -0.0188725274056196 0.0072750560939312 0.0039687501266599
v -0.0177295282483101 0.0061320560052991 0.0039687501266599
v -0.0183010268956423 0.0071219229139388 0.0039687501266599
v -0.0178826600313187 0.0067035560496151 0.0039687501266599
v -0.0194440279155970 0.0051421890966594 0.0039687501266599
v -0.0198623947799206 0.0055605559609830 0.0039687501266599
v -0.0200155284255743 0.0061320560052991 0.0039687501266599
v -0.0198623947799206 0.0067035560496151 0.0039687501266599
# 409 vertices, 0 vertices normals

f 1 2 3
f 3 2 4
f 3 4 5
f 5 4 6
f 5 6 7
f 7 6 8
f 7 8 9
f 9 8 10
f 9 10 11
f 11 10 12
f 11 12 13
f 13 12 14
f 13 14 15
f 15 14 16
f 15 16 17
f 17 16 18
f 17 18 19
f 19 18 20
f 19 20 21
f 21 20 22
f 21 22 23
f 23 22 24
f 23 24 25
f 25 24 26
f 25 26 27
f 27 26 28
f 27 28 29
f 29 28 30
f 29 30 31
f 31 30 32
f 31 32 33
f 33 32 34
f 33 34 35
f 35 34 36
f 35 36 37
f 37 36 38
f 37 38 39
f 39 38 40
f 39 40 41
f 41 40 42
f 41 42 43
f 43 42 44
f 43 44 1
f 1 44 2
f 45 46 47
f 47 46 48
f 47 48 49
f 49 48 50
f 49 50 51
f 51 50 52
f 51 52 53
f 53 52 54
f 53 54 55
f 55 54 56
f 55 56 57
f 57 56 58
f 57 58 59
f 59 58 60
f 59 60 61
f 61 60 62
f 61 62 63
f 63 62 64
f 63 64 65
f 65 64 66
f 65 66 67
f 67 66 68
f 67 68 69
f 69 68 70
f 69 70 71
f 71 70 72
f 71 72 73
f 73 72 74
f 73 74 45
f 45 74 46
f 75 76 77
f 77 76 78
f 77 78 79
f 79 78 80
f 79 80 81
f 81 80 82
f 81 82 83
f 83 82 84
f 83 84 85
f 85 84 86
f 85 86 87
f 87 86 88
f 87 88 89
f 89 88 90
f 89 90 91
f 91 90 92
f 91 92 93
f 93 92 94
f 93 94 95
f 95 94 96
f 95 96 97
f 97 96 98
f 97 98 99
f 99 98 100
f 99 100 101
f 101 100 102
f 101 102 103
f 103 102 104
f 103 104 105
f 105 104 106
f 105 106 107
f 107 106 108
f 107 108 109
f 109 108 110
f 109 110 111
f 111 110 112
f 111 112 113
f 113 112 114
f 113 114 115
f 115 114 116
f 115 116 117
f 117 116 118
f 117 118 119
f 119 118 120
f 119 120 121
f 121 120 122
f 121 122 123
f 123 122 124
f 123 124 125
f 125 124 126
f 125 126 127
f 127 126 128
f 127 128 129
f 129 128 130
f 129 130 131
f 131 130 132
f 131 132 133
f 133 132 134
f 133 134 135
f 135 134 136
f 135 136 137
f 137 136 138
f 137 138 139
f 139 138 140
f 139 140 141
f 141 140 142
f 141 142 143
f 143 142 144
f 143 144 145
f 145 144 146
f 145 146 147
f 147 146 148
f 147 148 149
f 149 148 150
f 149 150 151
f 151 150 75
f 151 75 77
f 126 124 152
f 112 110 153
f 92 154 155
f 156 157 158
f 159 160 161
f 160 162 161
f 161 162 163
f 161 163 134
f 163 164 134
f 134 164 165
f 134 165 136
f 165 166 136
f 136 166 167
f 136 167 138
f 138 167 168
f 138 168 169
f 169 168 170
f 169 146 144
f 144 142 169
f 169 142 140
f 169 140 138
f 171 172 75
f 173 174 175
f 176 177 178
f 75 172 76
f 76 172 179
f 76 179 78
f 78 179 180
f 78 180 80
f 80 180 181
f 80 181 173
f 174 182 175
f 175 182 183
f 175 183 176
f 176 183 184
f 176 184 177
f 146 169 148
f 148 169 185
f 148 185 150
f 150 185 176
f 150 176 75
f 75 176 178
f 75 178 171
f 173 175 80
f 80 175 186
f 80 186 82
f 154 86 186
f 186 86 84
f 186 84 82
f 92 90 154
f 154 90 88
f 154 88 86
f 98 96 187
f 187 96 94
f 110 108 153
f 153 108 106
f 153 106 188
f 188 106 104
f 188 104 189
f 189 104 102
f 189 102 100
f 152 118 190
f 190 118 116
f 190 116 191
f 191 116 114
f 191 114 192
f 192 114 112
f 124 122 152
f 152 122 120
f 152 120 118
f 132 130 193
f 193 130 128
f 49 194 47
f 47 194 195
f 47 195 45
f 196 197 71
f 198 65 67
f 198 67 197
f 197 67 69
f 197 69 71
f 65 198 63
f 63 198 188
f 63 188 61
f 199 200 59
f 49 51 194
f 194 51 53
f 194 53 201
f 201 53 55
f 201 55 200
f 200 55 57
f 200 57 59
f 202 187 155
f 155 187 94
f 155 94 92
f 203 199 204
f 204 199 187
f 204 187 205
f 205 187 202
f 203 206 199
f 199 206 207
f 199 207 200
f 200 207 208
f 209 210 186
f 186 210 211
f 186 211 154
f 154 211 212
f 154 212 155
f 155 212 213
f 155 213 202
f 214 215 190
f 215 216 190
f 190 216 217
f 190 217 152
f 152 217 218
f 152 218 219
f 128 126 193
f 193 126 152
f 193 152 220
f 220 152 219
f 196 221 222
f 220 223 193
f 193 223 224
f 193 224 196
f 196 224 225
f 196 225 221
f 153 226 227
f 228 229 198
f 112 153 192
f 192 153 227
f 192 227 230
f 230 228 192
f 192 228 198
f 192 198 191
f 191 198 197
f 191 197 190
f 190 197 196
f 190 196 214
f 214 196 222
f 231 232 188
f 188 232 233
f 188 233 153
f 153 233 234
f 153 234 226
f 229 235 198
f 198 235 236
f 198 236 188
f 188 236 237
f 188 237 231
f 71 73 196
f 196 73 238
f 196 238 193
f 193 238 161
f 193 161 132
f 132 161 134
f 100 98 189
f 189 98 187
f 189 187 188
f 188 187 199
f 188 199 61
f 61 199 59
f 73 45 238
f 238 45 195
f 238 195 161
f 161 195 158
f 161 158 159
f 159 158 157
f 208 209 200
f 200 209 186
f 200 186 201
f 201 186 175
f 201 175 194
f 194 175 176
f 194 176 195
f 195 176 185
f 195 185 158
f 158 185 169
f 158 169 156
f 156 169 170
f 239 139 240
f 240 139 141
f 240 141 241
f 241 141 143
f 241 143 242
f 243 131 244
f 244 131 133
f 244 133 245
f 245 133 135
f 245 135 239
f 239 135 137
f 239 137 139
f 246 123 247
f 247 123 125
f 247 125 248
f 248 125 127
f 248 127 243
f 243 127 129
f 243 129 131
f 249 113 250
f 250 113 115
f 250 115 251
f 251 115 117
f 251 117 252
f 252 117 119
f 252 119 246
f 246 119 121
f 246 121 123
f 253 105 254
f 254 105 107
f 254 107 255
f 255 107 109
f 255 109 249
f 249 109 111
f 249 111 113
f 143 145 242
f 242 145 147
f 242 147 256
f 256 147 149
f 256 149 257
f 257 149 151
f 257 151 258
f 258 151 77
f 258 77 259
f 77 79 259
f 259 79 81
f 259 81 260
f 260 81 83
f 260 83 261
f 261 83 85
f 261 85 262
f 263 97 264
f 264 97 99
f 264 99 265
f 265 99 101
f 265 101 253
f 253 101 103
f 253 103 105
f 85 87 262
f 262 87 89
f 262 89 266
f 266 89 91
f 266 91 267
f 267 91 93
f 267 93 263
f 263 93 95
f 263 95 97
f 268 30 269
f 269 30 28
f 269 28 270
f 270 28 26
f 270 26 271
f 271 26 24
f 271 24 272
f 272 24 22
f 272 22 273
f 274 40 275
f 275 40 38
f 275 38 276
f 276 38 36
f 276 36 277
f 277 36 34
f 277 34 268
f 268 34 32
f 268 32 30
f 278 8 279
f 279 8 6
f 279 6 280
f 280 6 4
f 280 4 281
f 281 4 2
f 281 2 282
f 282 2 44
f 282 44 274
f 274 44 42
f 274 42 40
f 22 20 273
f 273 20 18
f 273 18 283
f 283 18 16
f 283 16 284
f 284 16 14
f 284 14 285
f 285 14 12
f 285 12 278
f 278 12 10
f 278 10 8
f 60 286 62
f 62 286 287
f 62 287 64
f 64 287 288
f 64 288 66
f 66 288 289
f 66 289 68
f 68 289 290
f 68 290 70
f 52 291 54
f 54 291 292
f 54 292 56
f 56 292 293
f 56 293 58
f 58 293 294
f 58 294 60
f 60 294 295
f 60 295 286
f 290 296 70
f 70 296 297
f 70 297 72
f 72 297 298
f 72 298 74
f 74 298 299
f 74 299 300
f 300 299 301
f 300 301 48
f 48 301 302
f 48 302 50
f 50 302 303
f 50 303 52
f 52 303 304
f 52 304 291
f 301 271 302
f 302 271 272
f 302 272 303
f 303 272 273
f 303 273 304
f 304 273 283
f 304 283 291
f 291 283 284
f 291 284 292
f 292 284 285
f 292 285 293
f 293 285 278
f 293 278 294
f 294 278 279
f 294 279 295
f 295 279 280
f 295 280 286
f 286 280 281
f 286 281 287
f 287 281 282
f 287 282 288
f 288 282 274
f 288 274 289
f 289 274 275
f 289 275 290
f 290 275 276
f 290 276 296
f 296 276 277
f 296 277 297
f 297 277 268
f 297 268 298
f 298 268 269
f 298 269 299
f 299 269 270
f 299 270 301
f 301 270 271
f 305 245 306
f 306 245 239
f 306 239 307
f 307 239 240
f 307 240 308
f 308 240 241
f 308 241 309
f 309 241 242
f 309 242 310
f 310 242 256
f 310 256 311
f 311 256 257
f 311 257 312
f 312 257 258
f 312 258 313
f 313 258 259
f 313 259 314
f 314 259 260
f 314 260 315
f 315 260 261
f 315 261 316
f 316 261 262
f 316 262 317
f 317 262 266
f 317 266 318
f 318 266 267
f 318 267 319
f 319 267 263
f 319 263 320
f 320 263 264
f 320 264 321
f 321 264 265
f 321 265 322
f 322 265 253
f 322 253 323
f 323 253 254
f 323 254 324
f 324 254 255
f 324 255 325
f 325 255 249
f 325 249 326
f 326 249 250
f 326 250 327
f 327 250 251
f 327 251 328
f 328 251 252
f 328 252 329
f 329 252 246
f 329 246 330
f 330 246 247
f 330 247 331
f 331 247 248
f 331 248 332
f 332 248 243
f 332 243 333
f 333 243 244
f 333 244 305
f 305 244 245
f 308 334 335
f 336 337 338
f 339 340 341
f 341 340 342
f 307 343 306
f 306 343 344
f 306 344 305
f 305 344 345
f 305 345 333
f 335 346 308
f 308 346 347
f 308 347 307
f 307 347 348
f 307 348 343
f 342 349 341
f 341 349 350
f 341 350 335
f 335 350 351
f 335 351 346
f 345 339 333
f 333 339 341
f 333 341 332
f 332 341 338
f 337 330 338
f 338 330 331
f 338 331 332
f 337 352 330
f 330 352 353
f 330 353 329
f 329 353 354
f 329 354 355
f 354 356 355
f 355 356 357
f 355 357 358
f 358 357 359
f 358 359 360
f 360 361 358
f 358 361 362
f 358 362 338
f 338 362 363
f 338 363 336
f 326 327 355
f 355 327 328
f 355 328 329
f 364 365 366
f 367 368 369
f 369 368 370
f 365 371 366
f 366 371 372
f 366 372 373
f 373 372 374
f 373 374 325
f 374 375 325
f 325 375 376
f 325 376 324
f 324 376 377
f 324 377 323
f 323 377 378
f 319 320 379
f 379 320 321
f 379 321 322
f 319 379 318
f 318 379 380
f 318 380 317
f 311 312 381
f 382 383 384
f 384 383 385
f 386 314 387
f 387 314 315
f 387 315 388
f 385 389 384
f 384 389 390
f 384 390 387
f 387 390 391
f 387 391 386
f 386 392 314
f 314 392 393
f 314 393 313
f 313 393 394
f 313 394 312
f 312 394 395
f 312 395 381
f 381 382 311
f 311 382 384
f 311 384 310
f 310 384 334
f 310 334 309
f 309 334 308
f 19 335 17
f 17 335 334
f 17 334 15
f 15 334 384
f 15 384 13
f 13 384 11
f 11 384 387
f 11 387 9
f 9 387 7
f 7 387 388
f 7 388 396
f 1 3 396
f 396 3 5
f 396 5 7
f 35 37 366
f 366 37 369
f 366 369 364
f 364 369 370
f 37 39 369
f 369 39 41
f 369 41 397
f 397 41 43
f 397 43 1
f 19 21 335
f 335 21 23
f 335 23 341
f 341 23 25
f 341 25 338
f 25 27 338
f 338 27 29
f 338 29 358
f 358 29 31
f 358 31 33
f 398 399 397
f 397 399 400
f 401 402 396
f 1 396 397
f 397 396 403
f 397 403 398
f 402 404 396
f 396 404 405
f 396 405 403
f 378 367 323
f 323 367 369
f 323 369 322
f 322 369 397
f 322 397 379
f 379 397 400
f 379 400 406
f 315 316 388
f 388 316 317
f 388 317 396
f 396 317 380
f 396 380 401
f 406 407 379
f 379 407 408
f 379 408 380
f 380 408 409
f 380 409 401
f 33 35 358
f 358 35 366
f 358 366 355
f 355 366 373
f 355 373 326
f 326 373 325
f 208 403 209
f 209 403 405
f 209 405 210
f 210 405 404
f 210 404 211
f 211 404 402
f 211 402 212
f 212 402 401
f 212 401 213
f 213 401 409
f 213 409 202
f 202 409 408
f 202 408 205
f 205 408 407
f 205 407 204
f 204 407 406
f 204 406 203
f 203 406 400
f 203 400 206
f 206 400 399
f 206 399 207
f 207 399 398
f 207 398 208
f 208 398 403
f 229 372 235
f 235 372 371
f 235 371 236
f 236 371 365
f 236 365 237
f 237 365 364
f 237 364 231
f 231 364 370
f 231 370 232
f 232 370 368
f 232 368 233
f 233 368 367
f 233 367 234
f 234 367 378
f 234 378 226
f 226 378 377
f 226 377 227
f 227 377 376
f 227 376 230
f 230 376 375
f 230 375 228
f 228 375 374
f 228 374 229
f 229 374 372
f 220 337 223
f 223 337 336
f 223 336 224
f 224 336 363
f 224 363 225
f 225 363 362
f 225 362 221
f 221 362 361
f 221 361 222
f 222 361 360
f 222 360 214
f 214 360 359
f 214 359 215
f 215 359 357
f 215 357 216
f 216 357 356
f 216 356 217
f 217 356 354
f 217 354 218
f 218 354 353
f 218 353 219
f 219 353 352
f 219 352 220
f 220 352 337
f 166 344 167
f 167 344 343
f 167 343 168
f 168 343 348
f 168 348 170
f 170 348 347
f 170 347 156
f 156 347 346
f 156 346 157
f 157 346 351
f 157 351 159
f 159 351 350
f 159 350 160
f 160 350 349
f 160 349 162
f 162 349 342
f 162 342 163
f 163 342 340
f 163 340 164
f 164 340 339
f 164 339 165
f 165 339 345
f 165 345 166
f 166 345 344
f 178 383 171
f 171 383 382
f 171 382 172
f 172 382 381
f 172 381 179
f 179 381 395
f 179 395 180
f 180 395 394
f 180 394 181
f 181 394 393
f 181 393 173
f 173 393 392
f 173 392 174
f 174 392 386
f 174 386 182
f 182 386 391
f 182 391 183
f 183 391 390
f 183 390 184
f 184 390 389
f 184 389 177
f 177 389 385
f 177 385 178
f 178 385 383
# 836 faces, 0 coords texture

# End of File
