####
#
# OBJ File Generated by Meshlab
#
####
# Object TLA.obj
#
# Vertices: 166
# Faces: 332
#
####
v 0.0452797561883926 -0.1365162134170532 -0.0083228508010507
v 0.0434188917279243 -0.1365162134170532 0.0088215153664351
v 0.0420524142682552 -0.1365162134170532 -0.0089266765862703
v 0.0420524142682552 -0.1365162134170532 0.0089267231523991
v 0.0406859368085861 -0.1365162134170532 -0.0088214678689837
v 0.0388250723481178 -0.1365162134170532 0.0083228982985020
v 0.0364582650363445 -0.1365162134170532 -0.0069563733413815
v 0.0350960195064545 -0.1365162134170532 0.0055941734462976
v 0.0332309231162071 -0.1365162134170532 0.0013665012083948
v 0.0337295420467854 -0.1365162134170532 -0.0032273177057505
v 0.0503752902150154 -0.1365162134170532 0.0032273649703711
v 0.0476465672254562 -0.1365162134170532 0.0069564203731716
v 0.0508739054203033 -0.1365162134170532 -0.0013664540601894
v 0.0490088127553463 -0.1365162134170532 -0.0055941264145076
v 0.0457687340676785 -0.1284669786691666 -0.0082557909190655
v 0.0456009358167648 -0.1287889927625656 -0.0083404583856463
v 0.0457416996359825 -0.1285238415002823 0.0082698026672006
v 0.0420497246086597 -0.1226352155208588 0.0091694602742791
v 0.0414598099887371 -0.1226782649755478 0.0091473599895835
v 0.0420524142682552 -0.1226352080702782 -0.0091694174334407
v 0.0403176322579384 -0.1230203062295914 0.0089783044531941
v 0.0408753491938114 -0.1228078082203865 -0.0090819131582975
v 0.0400000065565109 -0.1231859028339386 0.0089007494971156
v 0.0399959310889244 -0.1231882572174072 -0.0088996207341552
v 0.0441071055829525 -0.1231872141361237 -0.0089000985026360
v 0.0447199568152428 -0.1236216574907303 -0.0087106693536043
v 0.0451694428920746 -0.1240717396140099 0.0085369367152452
v 0.0451767593622208 -0.1240803152322769 -0.0085338130593300
v 0.0456010103225708 -0.1246815696358681 0.0083404621109366
v 0.0455994457006454 -0.1246788650751114 -0.0083411894738674
v 0.0458776839077473 -0.1252596527338028 0.0081982649862766
v 0.0449545532464981 -0.1238390803337097 0.0086238207295537
v 0.0441088937222958 -0.1231882572174072 0.0088996635749936
v 0.0435674972832203 -0.1229254156351089 -0.0090239783748984
v 0.0437823720276356 -0.1230180561542511 0.0089793754741549
v 0.0432304553687572 -0.1228080987930298 0.0090818097814918
v 0.0457712411880493 -0.1250088512897491 -0.0082544889301062
v 0.0460676588118076 -0.1259058713912964 -0.0080928346142173
v 0.0461524166166782 -0.1267352104187012 0.0080437473952770
v 0.0461524128913879 -0.1267395019531250 -0.0080437017604709
v 0.0460652820765972 -0.1275759935379028 -0.0080941943451762
v 0.0453696064651012 -0.1291448324918747 -0.0084495004266500
v 0.0451679155230522 -0.1294004917144775 0.0085375867784023
v 0.0456021279096603 -0.1287869364023209 0.0083399219438434
v 0.0447177961468697 -0.1298506259918213 -0.0087114321067929
v 0.0441060177981853 -0.1302838325500488 0.0089004337787628
v 0.0444329939782619 -0.1300733089447021 0.0088060451671481
v 0.0420576557517052 -0.1308352053165436 0.0091694621369243
v 0.0427985936403275 -0.1307667493820190 0.0091343997046351
v 0.0420435480773449 -0.1308352053165436 -0.0091694118455052
v 0.0437865443527699 -0.1304504275321960 0.0089784534648061
v 0.0438101589679718 -0.1304393112659454 -0.0089731113985181
v 0.0441051274538040 -0.1302843540906906 -0.0089006228372455
v 0.0399977639317513 -0.1302832365036011 -0.0089001078158617
v 0.0399969145655632 -0.1302827447652817 0.0088999290019274
v 0.0405317880213261 -0.1305427998304367 -0.0090229036286473
v 0.0403226837515831 -0.1304524838924408 0.0089794304221869
v 0.0410444140434265 -0.1307093799114227 0.0091053741052747
v 0.0393801368772984 -0.1298447102308273 -0.0087089948356152
v 0.0389246158301830 -0.1293860375881195 -0.0085323546081781
v 0.0393991917371750 -0.1298609822988510 0.0087157562375069
v 0.0389381237328053 -0.1294018924236298 0.0085380943492055
v 0.0385040156543255 -0.1287892013788223 0.0083405645564198
v 0.0385053977370262 -0.1287915855646133 -0.0083411950618029
v 0.0382365435361862 -0.1282349228858948 0.0082033220678568
v 0.0383329652249813 -0.1284602433443069 -0.0082541648298502
v 0.0380347259342670 -0.1275526285171509 -0.0080914348363876
v 0.0397971943020821 -0.1233111843466759 0.0088439965620637
v 0.0389343202114105 -0.1240729838609695 0.0085364924743772
v 0.0391504876315594 -0.1238388642668724 -0.0086238626390696
v 0.0385021753609180 -0.1246844083070755 0.0083396611735225
v 0.0385038144886494 -0.1246815696358681 -0.0083404192700982
v 0.0384264253079891 -0.1248215287923813 0.0083020068705082
v 0.0382275991141796 -0.1252584755420685 -0.0081984698772430
v 0.0379590094089508 -0.1265027523040771 0.0080476189032197
v 0.0379524156451225 -0.1267352104187012 -0.0080436998978257
v 0.0379524156451225 -0.1267352104187012 0.0080437473952770
v 0.0379524230957031 -0.1267425268888474 0.0080437511205673
v 0.0420421026647091 -0.1311371475458145 -0.0099296709522605
v 0.0415723100304604 -0.1311147809028625 -0.0099180629476905
v 0.0373558327555656 -0.1274886429309845 -0.0087487548589706
v 0.0377279408276081 -0.1285872757434845 -0.0089385407045484
v 0.0380325913429260 -0.1291011869907379 -0.0090796239674091
v 0.0407356321811676 -0.1309658885002136 -0.0098419804126024
v 0.0404966957867146 -0.1308961510658264 -0.0098070502281189
v 0.0394781678915024 -0.1304401159286499 -0.0095901908352971
v 0.0389454513788223 -0.1300737112760544 -0.0094310808926821
v 0.0420524142682552 -0.1223332658410072 -0.0099296765401959
v 0.0407430045306683 -0.1225025877356529 -0.0098429685458541
v 0.0405106171965599 -0.1225698664784431 -0.0098092528060079
v 0.0372854955494404 -0.1267281919717789 -0.0087106293067336
v 0.0373582877218723 -0.1259688287973404 -0.0087500736117363
v 0.0377325080335140 -0.1248740851879120 -0.0089407498016953
v 0.0381184704601765 -0.1242491826415062 -0.0091171646490693
v 0.0389507301151752 -0.1233925297856331 -0.0094328233972192
v 0.0398838669061661 -0.1228151246905327 -0.0096899941563606
v 0.0433589220046997 -0.1309686005115509 -0.0098433494567871
v 0.0442119762301445 -0.1306595355272293 -0.0096919964998960
v 0.0451513566076756 -0.1300800591707230 -0.0094337202608585
v 0.0456913039088249 -0.1295787543058395 -0.0092388866469264
v 0.0459787696599960 -0.1292314529418945 -0.0091204317286611
v 0.0463732481002808 -0.1285945028066635 -0.0089402999728918
v 0.0467438586056232 -0.1275154650211334 -0.0087515097111464
v 0.0468193367123604 -0.1267398297786713 -0.0087106265127659
v 0.0467464886605740 -0.1259685605764389 -0.0087501006200910
v 0.0463761612772942 -0.1248817071318626 -0.0089388918131590
v 0.0460623651742935 -0.1243549883365631 -0.0090839900076389
v 0.0456943251192570 -0.1238949820399284 -0.0092376964166760
v 0.0451538749039173 -0.1233923584222794 -0.0094328951090574
v 0.0446350239217281 -0.1230352744460106 -0.0095879454165697
v 0.0433625653386116 -0.1225027814507484 -0.0098428679630160
v 0.0425434634089470 -0.1223566830158234 -0.0099175302311778
v 0.0420524142682552 -0.1355132162570953 0.0099297240376472
v 0.0435724295675755 -0.1355132162570953 0.0098126940429211
v 0.0482751205563545 -0.1355132162570953 0.0077380379661918
v 0.0513104461133480 -0.1355132162570953 0.0035899875219911
v 0.0518650859594345 -0.1355132162570953 -0.0015199908521026
v 0.0497904308140278 -0.1355132162570953 -0.0062226825393736
v 0.0456423796713352 -0.1355132162570953 -0.0092580057680607
v 0.0420524142682552 -0.1355132162570953 -0.0099296765401959
v 0.0405324026942253 -0.1355132162570953 -0.0098126465454698
v 0.0358297079801559 -0.1355132162570953 -0.0077379909344018
v 0.0327943861484528 -0.1355132162570953 -0.0035899404902011
v 0.0322397463023663 -0.1355132162570953 0.0015200380003080
v 0.0343144014477730 -0.1355132162570953 0.0062227300368249
v 0.0384624525904655 -0.1355132162570953 0.0092580523341894
v 0.0372854992747307 -0.1267430633306503 0.0087106749415398
v 0.0375720895826817 -0.1252318918704987 0.0088614933192730
v 0.0468193404376507 -0.1267352104187012 0.0087106712162495
v 0.0466743223369122 -0.1256577074527740 0.0087884776294231
v 0.0457405745983124 -0.1239463388919830 0.0092193745076656
v 0.0400354452431202 -0.1227467209100723 0.0097227171063423
v 0.0390434190630913 -0.1233210563659668 0.0094628399237990
v 0.0385635532438755 -0.1237356215715408 0.0092966239899397
v 0.0384375452995300 -0.1238656714558601 0.0092483563348651
v 0.0411765836179256 -0.1224081963300705 0.0098910229280591
v 0.0420492887496948 -0.1223332658410072 0.0099297231063247
v 0.0433911941945553 -0.1225104331970215 0.0098390588536859
v 0.0435903519392014 -0.1225686520338058 0.0098099010065198
v 0.0440637767314911 -0.1227443069219589 0.0097238793969154
v 0.0453132167458534 -0.1235242635011673 0.0093790479004383
v 0.0465356148779392 -0.1282311975955963 0.0088600385934114
v 0.0374600142240524 -0.1279154121875763 0.0088039319962263
v 0.0384500958025455 -0.1296181827783585 0.0092532513663173
v 0.0387618243694305 -0.1299201399087906 0.0093686385080218
v 0.0400413200259209 -0.1307262331247330 0.0097239343449473
v 0.0455449074506760 -0.1297312080860138 0.0092952614650130
v 0.0450393669307232 -0.1301658302545547 0.0094698211178184
v 0.0440686233341694 -0.1307240426540375 0.0097228754311800
v 0.0436163395643234 -0.1308935135602951 0.0098057929426432
v 0.0406811609864235 -0.1309511065483093 0.0098345857113600
v 0.0420585088431835 -0.1311371624469757 0.0099297212436795
v 0.0428853444755077 -0.1310694515705109 0.0098947277292609
v 0.0482751205563545 0.1569569855928421 0.0077380379661918
v 0.0384624525904655 0.1569569855928421 0.0092580523341894
v 0.0435724295675755 0.1569569855928421 0.0098126940429211
v 0.0343144014477730 0.1569569855928421 0.0062227300368249
v 0.0358297079801559 0.1569569855928421 -0.0077379909344018
v 0.0456423796713352 0.1569569855928421 -0.0092580057680607
v 0.0405324026942253 0.1569569855928421 -0.0098126465454698
v 0.0322397463023663 0.1569569855928421 0.0015200380003080
v 0.0327943861484528 0.1569569855928421 -0.0035899404902011
v 0.0497904308140278 0.1569569855928421 -0.0062226825393736
v 0.0518650859594345 0.1569569855928421 -0.0015199908521026
v 0.0519821159541607 0.1569569855928421 0.0000000235767992
v 0.0513104461133480 0.1569569855928421 0.0035899875219911
# 166 vertices, 0 vertices normals

f 1 2 3
f 3 2 4
f 3 4 5
f 5 4 6
f 5 6 7
f 8 9 6
f 6 9 10
f 6 10 7
f 11 12 13
f 13 12 2
f 13 2 14
f 14 2 1
f 15 16 17
f 18 19 20
f 20 19 21
f 20 21 22
f 22 21 23
f 22 23 24
f 25 26 27
f 27 26 28
f 27 28 29
f 29 28 30
f 29 30 31
f 27 32 25
f 25 32 33
f 25 33 34
f 34 33 35
f 34 35 20
f 20 35 36
f 20 36 18
f 30 37 31
f 31 37 38
f 31 38 39
f 39 38 40
f 39 40 17
f 17 40 41
f 17 41 15
f 42 43 16
f 16 43 44
f 16 44 17
f 45 46 42
f 42 46 47
f 42 47 43
f 48 49 50
f 50 49 51
f 50 51 52
f 52 51 46
f 52 46 53
f 53 46 45
f 54 55 56
f 56 55 57
f 56 57 50
f 50 57 58
f 50 58 48
f 54 59 55
f 55 59 60
f 55 60 61
f 61 60 62
f 62 60 63
f 63 60 64
f 63 64 65
f 65 64 66
f 65 66 67
f 23 68 24
f 24 68 69
f 24 69 70
f 70 69 71
f 70 71 72
f 72 71 73
f 72 73 74
f 74 73 75
f 74 75 76
f 76 75 77
f 76 77 67
f 67 77 78
f 67 78 65
f 50 79 80
f 50 80 56
f 76 67 81
f 81 67 82
f 82 67 66
f 82 66 83
f 80 84 56
f 56 84 85
f 56 85 54
f 54 85 86
f 54 86 59
f 59 86 87
f 59 87 60
f 60 87 83
f 60 83 64
f 64 83 66
f 88 20 89
f 89 20 22
f 89 22 90
f 90 22 24
f 81 91 76
f 76 91 92
f 76 92 74
f 74 92 93
f 74 93 72
f 72 93 94
f 72 94 70
f 70 94 95
f 70 95 24
f 24 95 96
f 24 96 90
f 79 50 97
f 97 50 52
f 97 52 98
f 98 52 53
f 98 53 99
f 99 53 45
f 99 45 100
f 100 45 42
f 100 42 101
f 101 42 16
f 101 16 102
f 102 16 15
f 102 15 103
f 103 15 41
f 103 41 104
f 104 41 40
f 104 40 105
f 105 40 38
f 105 38 106
f 106 38 37
f 106 37 107
f 107 37 30
f 107 30 108
f 108 30 28
f 108 28 109
f 109 28 26
f 109 26 110
f 110 26 25
f 110 25 111
f 111 25 34
f 111 34 112
f 112 34 20
f 112 20 88
f 113 2 114
f 114 2 12
f 114 12 115
f 115 12 11
f 115 11 116
f 116 11 13
f 116 13 117
f 117 13 14
f 117 14 118
f 118 14 1
f 118 1 119
f 119 1 3
f 119 3 120
f 120 3 5
f 120 5 121
f 121 5 7
f 121 7 122
f 122 7 10
f 122 10 123
f 123 10 9
f 123 9 124
f 124 9 8
f 124 8 125
f 125 8 6
f 125 6 126
f 126 6 4
f 126 4 113
f 113 4 2
f 78 77 127
f 127 77 75
f 127 75 128
f 39 129 31
f 31 129 130
f 31 130 29
f 29 130 131
f 132 133 68
f 68 133 134
f 68 134 69
f 69 134 135
f 69 135 71
f 71 135 128
f 71 128 73
f 73 128 75
f 68 23 132
f 132 23 21
f 132 21 136
f 136 21 19
f 136 19 137
f 137 19 18
f 137 18 138
f 138 18 36
f 138 36 139
f 139 36 35
f 139 35 140
f 140 35 33
f 140 33 141
f 141 33 32
f 141 32 131
f 131 32 27
f 131 27 29
f 142 129 39
f 78 127 65
f 65 127 143
f 65 143 63
f 63 143 144
f 63 144 62
f 62 144 61
f 61 144 145
f 61 145 55
f 55 145 146
f 55 146 57
f 39 17 142
f 142 17 44
f 142 44 147
f 147 44 43
f 147 43 148
f 148 43 47
f 148 47 149
f 47 46 149
f 149 46 51
f 149 51 150
f 150 51 49
f 57 146 58
f 58 146 151
f 58 151 48
f 48 151 152
f 48 152 49
f 49 152 153
f 49 153 150
f 154 115 116
f 141 131 154
f 131 130 154
f 154 130 129
f 154 129 115
f 115 129 142
f 115 142 147
f 147 148 115
f 115 148 149
f 115 149 114
f 155 135 134
f 134 133 155
f 155 133 132
f 155 132 156
f 156 132 136
f 156 136 137
f 137 138 156
f 156 138 139
f 156 139 154
f 154 139 140
f 154 140 141
f 135 155 128
f 128 155 157
f 128 157 127
f 149 150 114
f 114 150 153
f 114 153 113
f 113 153 152
f 113 152 126
f 126 152 151
f 126 151 146
f 146 145 126
f 126 145 144
f 126 144 125
f 125 144 143
f 125 143 127
f 84 80 121
f 121 80 120
f 120 80 79
f 120 79 119
f 119 79 97
f 119 97 98
f 158 95 94
f 94 93 158
f 158 93 92
f 158 92 91
f 81 82 122
f 122 82 83
f 83 87 122
f 122 87 86
f 122 86 121
f 121 86 85
f 121 85 84
f 109 110 159
f 159 110 111
f 159 111 160
f 160 111 112
f 160 112 88
f 88 89 160
f 160 89 90
f 160 90 158
f 158 90 96
f 158 96 95
f 98 99 119
f 119 99 100
f 119 100 118
f 118 100 101
f 118 101 102
f 102 103 118
f 118 103 104
f 118 104 105
f 106 107 159
f 159 107 108
f 159 108 109
f 127 157 125
f 125 157 161
f 125 161 124
f 124 161 162
f 124 162 123
f 123 162 158
f 123 158 122
f 122 158 91
f 122 91 81
f 106 159 105
f 105 159 163
f 105 163 118
f 118 163 164
f 118 164 117
f 117 164 165
f 117 165 116
f 116 165 166
f 116 166 154
f 156 154 166
f 162 165 164
f 160 158 159
f 159 158 162
f 159 162 163
f 163 162 164
f 157 155 161
f 161 155 156
f 161 156 162
f 162 156 166
f 162 166 165
# 332 faces, 0 coords texture

# End of File
