####
#
# OBJ File Generated by Meshlab
#
####
# Object TR_Wheel.obj
#
# Vertices: 408
# Faces: 836
#
####
v -0.0142874997109175 -0.0000000000003173 0.0039687501266599
v -0.0142874997109175 -0.0000000000003173 -0.0039687501266599
v -0.0137087563052773 0.0040252539329231 0.0039687501266599
v -0.0137087563052773 0.0040252539329231 -0.0039687501266599
v -0.0120194097980857 0.0077244057320058 0.0039687501266599
v -0.0120194097980857 0.0077244057320058 -0.0039687501266599
v -0.0093563226982951 0.0107977716252208 0.0039687501266599
v -0.0093563226982951 0.0107977716252208 -0.0039687501266599
v -0.0059352419339120 0.0129963671788573 0.0039687501266599
v -0.0059352419339120 0.0129963671788573 -0.0039687501266599
v -0.0020333232823759 0.0141420736908913 0.0039687501266599
v -0.0020333232823759 0.0141420736908913 -0.0039687501266599
v 0.0020333232823759 0.0141420736908913 0.0039687501266599
v 0.0020333232823759 0.0141420736908913 -0.0039687501266599
v 0.0059352419339120 0.0129963671788573 0.0039687501266599
v 0.0059352419339120 0.0129963671788573 -0.0039687501266599
v 0.0093563226982951 0.0107977716252208 0.0039687501266599
v 0.0093563226982951 0.0107977716252208 -0.0039687501266599
v 0.0120194097980857 0.0077244057320058 0.0039687501266599
v 0.0120194097980857 0.0077244057320058 -0.0039687501266599
v 0.0137087563052773 0.0040252539329231 0.0039687501266599
v 0.0137087563052773 0.0040252539329231 -0.0039687501266599
v 0.0142874997109175 0.0000000000003173 0.0039687501266599
v 0.0142874997109175 0.0000000000003173 -0.0039687501266599
v 0.0137087563052773 -0.0040252539329231 0.0039687501266599
v 0.0137087563052773 -0.0040252539329231 -0.0039687501266599
v 0.0120194097980857 -0.0077244057320058 0.0039687501266599
v 0.0120194097980857 -0.0077244057320058 -0.0039687501266599
v 0.0093563226982951 -0.0107977716252208 0.0039687501266599
v 0.0093563226982951 -0.0107977716252208 -0.0039687501266599
v 0.0059352419339120 -0.0129963671788573 0.0039687501266599
v 0.0059352419339120 -0.0129963671788573 -0.0039687501266599
v 0.0020333232823759 -0.0141420736908913 0.0039687501266599
v 0.0020333232823759 -0.0141420736908913 -0.0039687501266599
v -0.0020333232823759 -0.0141420736908913 0.0039687501266599
v -0.0020333232823759 -0.0141420736908913 -0.0039687501266599
v -0.0059352419339120 -0.0129963671788573 0.0039687501266599
v -0.0059352419339120 -0.0129963671788573 -0.0039687501266599
v -0.0093563226982951 -0.0107977716252208 0.0039687501266599
v -0.0093563226982951 -0.0107977716252208 -0.0039687501266599
v -0.0120194097980857 -0.0077244057320058 0.0039687501266599
v -0.0120194097980857 -0.0077244057320058 -0.0039687501266599
v -0.0137087563052773 -0.0040252539329231 0.0039687501266599
v -0.0137087563052773 -0.0040252539329231 -0.0039687501266599
v 0.0063499999232590 0.0000000000001410 -0.0152399996295571
v 0.0063499999232590 0.0000000000001410 -0.0055562499910593
v 0.0058010136708617 0.0025827777571976 -0.0152399996295571
v 0.0058010136708617 0.0025827777571976 -0.0055562499910593
v 0.0042489795014262 0.0047189695760608 -0.0152399996295571
v 0.0042489795014262 0.0047189695760608 -0.0055562499910593
v 0.0019622580148280 0.0060392087325454 -0.0152399996295571
v 0.0019622580148280 0.0060392087325454 -0.0055562499910593
v -0.0006637557526119 0.0063152140937746 -0.0152399996295571
v -0.0006637557526119 0.0063152140937746 -0.0055562499910593
v -0.0031749999616295 0.0054992614313960 -0.0152399996295571
v -0.0031749999616295 0.0054992614313960 -0.0055562499910593
v -0.0051372577436268 0.0037324363365769 -0.0152399996295571
v -0.0051372577436268 0.0037324363365769 -0.0055562499910593
v -0.0062112370505929 0.0013202392728999 -0.0152399996295571
v -0.0062112370505929 0.0013202392728999 -0.0055562499910593
v -0.0062112370505929 -0.0013202392728999 -0.0152399996295571
v -0.0062112370505929 -0.0013202392728999 -0.0055562499910593
v -0.0051372577436268 -0.0037324363365769 -0.0152399996295571
v -0.0051372577436268 -0.0037324363365769 -0.0055562499910593
v -0.0031749999616295 -0.0054992614313960 -0.0152399996295571
v -0.0031749999616295 -0.0054992614313960 -0.0055562499910593
v -0.0006637557526119 -0.0063152140937746 -0.0152399996295571
v -0.0006637557526119 -0.0063152140937746 -0.0055562499910593
v 0.0019622580148280 -0.0060392087325454 -0.0152399996295571
v 0.0019622580148280 -0.0060392087325454 -0.0055562499910593
v 0.0042489795014262 -0.0047189695760608 -0.0152399996295571
v 0.0042489795014262 -0.0047189695760608 -0.0055562499910593
v 0.0058010136708617 -0.0025827777571976 -0.0152399996295571
v 0.0058010136708617 -0.0025827777571976 -0.0055562499910593
v 0.0037492080591619 0.0427619554102421 -0.0152399996295571
v 0.0035448009148240 0.0427793860435486 -0.0152399996295571
v 0.0035448009148240 0.0427793860435486 0.0152399996295571
v -0.0035448009148240 0.0427793860435486 -0.0152399996295571
v -0.0035448009148240 0.0427793860435486 0.0152399996295571
v -0.0105377100408077 0.0416124761104584 -0.0152399996295571
v -0.0105377100408077 0.0416124761104584 0.0152399996295571
v -0.0172431785613298 0.0393104851245880 -0.0152399996295571
v -0.0172431785613298 0.0393104851245880 0.0152399996295571
v -0.0234782975167036 0.0359362065792084 -0.0152399996295571
v -0.0234782975167036 0.0359362065792084 0.0152399996295571
v -0.0290729887783527 0.0315816849470139 -0.0152399996295571
v -0.0290729887783527 0.0315816849470139 0.0152399996295571
v -0.0338746458292007 0.0263656955212355 -0.0152399996295571
v -0.0338746458292007 0.0263656955212355 0.0152399996295571
v -0.0377522893249989 0.0204305183142424 -0.0152399996295571
v -0.0377522893249989 0.0204305183142424 0.0152399996295571
v -0.0406001508235931 0.0139380497857928 -0.0152399996295571
v -0.0406001508235931 0.0139380497857928 0.0152399996295571
v -0.0423405468463898 0.0070653874427080 -0.0152399996295571
v -0.0423405468463898 0.0070653874427080 0.0152399996295571
v -0.0429259985685349 -0.0000000000009535 -0.0152399996295571
v -0.0429259985685349 -0.0000000000009535 0.0152399996295571
v -0.0423405468463898 -0.0070653874427080 -0.0152399996295571
v -0.0423405468463898 -0.0070653874427080 0.0152399996295571
v -0.0406001508235931 -0.0139380497857928 -0.0152399996295571
v -0.0406001508235931 -0.0139380497857928 0.0152399996295571
v -0.0377522893249989 -0.0204305183142424 -0.0152399996295571
v -0.0377522893249989 -0.0204305183142424 0.0152399996295571
v -0.0338746458292007 -0.0263656955212355 -0.0152399996295571
v -0.0338746458292007 -0.0263656955212355 0.0152399996295571
v -0.0290729887783527 -0.0315816849470139 -0.0152399996295571
v -0.0290729887783527 -0.0315816849470139 0.0152399996295571
v -0.0234782975167036 -0.0359362065792084 -0.0152399996295571
v -0.0234782975167036 -0.0359362065792084 0.0152399996295571
v -0.0172431785613298 -0.0393104851245880 -0.0152399996295571
v -0.0172431785613298 -0.0393104851245880 0.0152399996295571
v -0.0105377100408077 -0.0416124761104584 -0.0152399996295571
v -0.0105377100408077 -0.0416124761104584 0.0152399996295571
v -0.0035448009148240 -0.0427793860435486 -0.0152399996295571
v -0.0035448009148240 -0.0427793860435486 0.0152399996295571
v 0.0035448009148240 -0.0427793860435486 -0.0152399996295571
v 0.0035448009148240 -0.0427793860435486 0.0152399996295571
v 0.0105377100408077 -0.0416124761104584 -0.0152399996295571
v 0.0105377100408077 -0.0416124761104584 0.0152399996295571
v 0.0172431785613298 -0.0393104851245880 -0.0152399996295571
v 0.0172431785613298 -0.0393104851245880 0.0152399996295571
v 0.0234782975167036 -0.0359362065792084 -0.0152399996295571
v 0.0234782975167036 -0.0359362065792084 0.0152399996295571
v 0.0290729887783527 -0.0315816849470139 -0.0152399996295571
v 0.0290729887783527 -0.0315816849470139 0.0152399996295571
v 0.0338746458292007 -0.0263656955212355 -0.0152399996295571
v 0.0338746458292007 -0.0263656955212355 0.0152399996295571
v 0.0377522893249989 -0.0204305183142424 -0.0152399996295571
v 0.0377522893249989 -0.0204305183142424 0.0152399996295571
v 0.0406001508235931 -0.0139380497857928 -0.0152399996295571
v 0.0406001508235931 -0.0139380497857928 0.0152399996295571
v 0.0423405468463898 -0.0070653874427080 -0.0152399996295571
v 0.0423405468463898 -0.0070653874427080 0.0152399996295571
v 0.0429259985685349 0.0000000000009535 -0.0152399996295571
v 0.0429259985685349 0.0000000000009535 0.0152399996295571
v 0.0423405468463898 0.0070653874427080 -0.0152399996295571
v 0.0423405468463898 0.0070653874427080 0.0152399996295571
v 0.0406001508235931 0.0139380497857928 -0.0152399996295571
v 0.0406001508235931 0.0139380497857928 0.0152399996295571
v 0.0377522893249989 0.0204305183142424 -0.0152399996295571
v 0.0377522893249989 0.0204305183142424 0.0152399996295571
v 0.0338746458292007 0.0263656955212355 -0.0152399996295571
v 0.0338746458292007 0.0263656955212355 0.0152399996295571
v 0.0290729887783527 0.0315816849470139 -0.0152399996295571
v 0.0290729887783527 0.0315816849470139 0.0152399996295571
v 0.0234782975167036 0.0359362065792084 -0.0152399996295571
v 0.0234782975167036 0.0359362065792084 0.0152399996295571
v 0.0172431785613298 0.0393104851245880 -0.0152399996295571
v 0.0172431785613298 0.0393104851245880 0.0152399996295571
v 0.0105377100408077 0.0416124761104584 -0.0152399996295571
v 0.0105377100408077 0.0416124761104584 0.0152399996295571
v 0.0152681954205036 -0.0300614647567272 -0.0152399996295571
v -0.0152681954205036 -0.0300614647567272 -0.0152399996295571
v -0.0314707644283772 0.0129879033192992 -0.0152399996295571
v -0.0314707644283772 0.0068125277757645 -0.0152399996295571
v 0.0183010268956423 0.0071219229139388 -0.0152399996295571
v 0.0178826600313187 0.0067035560496151 -0.0152399996295571
v 0.0152681954205036 0.0068125277757645 -0.0152399996295571
v 0.0177295282483101 0.0061320560052991 -0.0152399996295571
v 0.0178826600313187 0.0055605559609830 -0.0152399996295571
v 0.0152681954205036 -0.0006804720032960 -0.0152399996295571
v 0.0183010268956423 0.0051421890966594 -0.0152399996295571
v 0.0188725274056196 0.0049890559166670 -0.0152399996295571
v 0.0194440279155970 0.0051421890966594 -0.0152399996295571
v 0.0198623947799206 0.0055605559609830 -0.0152399996295571
v 0.0200155284255743 0.0061320560052991 -0.0152399996295571
v 0.0198623947799206 0.0067035560496151 -0.0152399996295571
v 0.0194440279155970 0.0071219229139388 -0.0152399996295571
v 0.0152681954205036 0.0129879033192992 -0.0152399996295571
v 0.0188725274056196 0.0072750560939312 -0.0152399996295571
v 0.0009898670250550 0.0204152502119541 -0.0152399996295571
v 0.0005714999861084 0.0208336170762777 -0.0152399996295571
v -0.0011429999722168 0.0198437497019768 -0.0152399996295571
v -0.0009898670250550 0.0192722491919994 -0.0152399996295571
v -0.0037465000059456 0.0129879033192992 -0.0152399996295571
v 0.0037465000059456 0.0129879033192992 -0.0152399996295571
v 0.0009898670250550 0.0192722491919994 -0.0152399996295571
v 0.0011429999722168 0.0198437497019768 -0.0152399996295571
v -0.0000000000004662 0.0209867507219315 -0.0152399996295571
v -0.0005714999861084 0.0208336170762777 -0.0152399996295571
v -0.0009898670250550 0.0204152502119541 -0.0152399996295571
v -0.0005714999861084 0.0188538823276758 -0.0152399996295571
v -0.0000000000004154 0.0187007505446672 -0.0152399996295571
v 0.0005714999861084 0.0188538823276758 -0.0152399996295571
v 0.0084354318678379 0.0129879033192992 -0.0152399996295571
v -0.0152681954205036 0.0129879033192992 -0.0152399996295571
v -0.0314707644283772 -0.0006804720032960 -0.0152399996295571
v -0.0152681954205036 -0.0106304651126266 -0.0152399996295571
v -0.0314707644283772 -0.0106304651126266 -0.0152399996295571
v 0.0084354318678379 -0.0300614647567272 -0.0152399996295571
v 0.0037465000059456 -0.0300614647567272 -0.0152399996295571
v -0.0037465000059456 -0.0300614647567272 -0.0152399996295571
v 0.0152681954205036 -0.0106304651126266 -0.0152399996295571
v 0.0037465000059456 0.0068125277757645 -0.0152399996295571
v 0.0084354318678379 0.0068125277757645 -0.0152399996295571
v 0.0084354318678379 -0.0106304651126266 -0.0152399996295571
v 0.0037465000059456 -0.0106304651126266 -0.0152399996295571
v -0.0037465000059456 -0.0106304651126266 -0.0152399996295571
v -0.0152681954205036 -0.0006804720032960 -0.0152399996295571
v -0.0152681954205036 0.0068125277757645 -0.0152399996295571
v -0.0037465000059456 0.0068125277757645 -0.0152399996295571
v -0.0200155284255743 0.0061320560052991 -0.0152399996295571
v -0.0188725274056196 0.0049890559166670 -0.0152399996295571
v -0.0194440279155970 0.0051421890966594 -0.0152399996295571
v -0.0198623947799206 0.0055605559609830 -0.0152399996295571
v -0.0183010268956423 0.0051421890966594 -0.0152399996295571
v -0.0178826600313187 0.0055605559609830 -0.0152399996295571
v -0.0177295282483101 0.0061320560052991 -0.0152399996295571
v -0.0178826600313187 0.0067035560496151 -0.0152399996295571
v -0.0183010268956423 0.0071219229139388 -0.0152399996295571
v -0.0188725274056196 0.0072750560939312 -0.0152399996295571
v -0.0194440279155970 0.0071219229139388 -0.0152399996295571
v -0.0198623947799206 0.0067035560496151 -0.0152399996295571
v 0.0105208633467555 -0.0160539317876101 -0.0152399996295571
v 0.0106739969924092 -0.0166254304349422 -0.0152399996295571
v 0.0110923638567328 -0.0170437972992659 -0.0152399996295571
v 0.0116638634353876 -0.0171969309449196 -0.0152399996295571
v 0.0122353639453650 -0.0170437972992659 -0.0152399996295571
v 0.0126537308096886 -0.0166254304349422 -0.0152399996295571
v 0.0128068635240197 -0.0160539317876101 -0.0152399996295571
v 0.0110923638567328 -0.0150640634819865 -0.0152399996295571
v 0.0106739969924092 -0.0154824312776327 -0.0152399996295571
v 0.0126537308096886 -0.0154824312776327 -0.0152399996295571
v 0.0122353639453650 -0.0150640634819865 -0.0152399996295571
v 0.0116638634353876 -0.0149109307676554 -0.0152399996295571
v -0.0122353639453650 -0.0170437972992659 -0.0152399996295571
v -0.0116638634353876 -0.0171969309449196 -0.0152399996295571
v -0.0106739969924092 -0.0166254304349422 -0.0152399996295571
v -0.0105208633467555 -0.0160539317876101 -0.0152399996295571
v -0.0110923638567328 -0.0170437972992659 -0.0152399996295571
v -0.0122353639453650 -0.0150640634819865 -0.0152399996295571
v -0.0126537308096886 -0.0154824312776327 -0.0152399996295571
v -0.0128068635240197 -0.0160539317876101 -0.0152399996295571
v -0.0126537308096886 -0.0166254304349422 -0.0152399996295571
v -0.0106739969924092 -0.0154824312776327 -0.0152399996295571
v -0.0110923638567328 -0.0150640634819865 -0.0152399996295571
v -0.0116638634353876 -0.0149109307676554 -0.0152399996295571
v 0.0084354318678379 -0.0006804720032960 -0.0152399996295571
v 0.0248061623424292 0.0054602492600679 0.0152399996295571
v 0.0230524148792028 0.0106651829555631 0.0152399996295571
v 0.0202207639813423 0.0153714250773191 0.0152399996295571
v 0.0164436120539904 0.0193589162081480 0.0152399996295571
v 0.0230524148792028 -0.0106651829555631 0.0152399996295571
v 0.0248061623424292 -0.0054602492600679 0.0152399996295571
v 0.0253999996930361 0.0000000000005642 0.0152399996295571
v 0.0118975741788745 -0.0224412064999342 0.0152399996295571
v 0.0164436120539904 -0.0193589162081480 0.0152399996295571
v 0.0202207639813423 -0.0153714250773191 0.0152399996295571
v -0.0094015095382929 -0.0235960092395544 0.0152399996295571
v -0.0041092624887824 -0.0250653941184282 0.0152399996295571
v 0.0013751282822341 -0.0253627486526966 0.0152399996295571
v 0.0067952196113765 -0.0244741700589657 0.0152399996295571
v -0.0217641722410917 -0.0130950678139925 0.0152399996295571
v -0.0184402856975794 -0.0174675658345222 0.0152399996295571
v -0.0142541518434882 -0.0210233014076948 0.0152399996295571
v 0.0118975741788745 0.0224412064999342 0.0152399996295571
v 0.0067952196113765 0.0244741700589657 0.0152399996295571
v 0.0013751282822341 0.0253627486526966 0.0152399996295571
v -0.0041092624887824 0.0250653941184282 0.0152399996295571
v -0.0094015095382929 0.0235960092395544 0.0152399996295571
v -0.0142541518434882 0.0210233014076948 0.0152399996295571
v -0.0184402856975794 0.0174675658345222 0.0152399996295571
v -0.0252511035650969 0.0027462230063975 0.0152399996295571
v -0.0252511035650969 -0.0027462230063975 0.0152399996295571
v -0.0240703914314508 -0.0081102587282658 0.0152399996295571
v -0.0217641722410917 0.0130950678139925 0.0152399996295571
v -0.0240703914314508 0.0081102587282658 0.0152399996295571
v 0.0047625000588596 -0.0082488916814327 -0.0039687501266599
v 0.0072965733706951 -0.0061225518584251 -0.0039687501266599
v 0.0089505724608898 -0.0032577419187874 -0.0039687501266599
v 0.0095250001177192 0.0000000000002116 -0.0039687501266599
v 0.0089505724608898 0.0032577419187874 -0.0039687501266599
v 0.0072965733706951 0.0061225518584251 -0.0039687501266599
v -0.0072965733706951 -0.0061225518584251 -0.0039687501266599
v -0.0047625000588596 -0.0082488916814327 -0.0039687501266599
v -0.0016539988573641 -0.0093802940100431 -0.0039687501266599
v 0.0016539988573641 -0.0093802940100431 -0.0039687501266599
v -0.0047625000588596 0.0082488916814327 -0.0039687501266599
v -0.0072965733706951 0.0061225518584251 -0.0039687501266599
v -0.0089505724608898 0.0032577419187874 -0.0039687501266599
v -0.0095250001177192 -0.0000000000002116 -0.0039687501266599
v -0.0089505724608898 -0.0032577419187874 -0.0039687501266599
v 0.0047625000588596 0.0082488916814327 -0.0039687501266599
v 0.0016539988573641 0.0093802940100431 -0.0039687501266599
v -0.0016539988573641 0.0093802940100431 -0.0039687501266599
v -0.0095250001177192 -0.0000000000002116 -0.0055562499910593
v -0.0089505724608898 -0.0032577419187874 -0.0055562499910593
v -0.0072965733706951 -0.0061225518584251 -0.0055562499910593
v -0.0047625000588596 -0.0082488916814327 -0.0055562499910593
v -0.0016539988573641 -0.0093802940100431 -0.0055562499910593
v 0.0016539988573641 0.0093802940100431 -0.0055562499910593
v -0.0016539988573641 0.0093802940100431 -0.0055562499910593
v -0.0047625000588596 0.0082488916814327 -0.0055562499910593
v -0.0072965733706951 0.0061225518584251 -0.0055562499910593
v -0.0089505724608898 0.0032577419187874 -0.0055562499910593
v 0.0016539988573641 -0.0093802940100431 -0.0055562499910593
v 0.0047625000588596 -0.0082488916814327 -0.0055562499910593
v 0.0072965733706951 -0.0061225518584251 -0.0055562499910593
v 0.0089505724608898 -0.0032577419187874 -0.0055562499910593
v 0.0095250001177192 0.0000000000002116 -0.0055562499910593
v 0.0089505724608898 0.0032577419187874 -0.0055562499910593
v 0.0072965733706951 0.0061225518584251 -0.0055562499910593
v 0.0047625000588596 0.0082488916814327 -0.0055562499910593
v 0.0253999996930361 0.0000000000005642 0.0039687501266599
v 0.0248061623424292 0.0054602492600679 0.0039687501266599
v 0.0230524148792028 0.0106651829555631 0.0039687501266599
v 0.0202207639813423 0.0153714250773191 0.0039687501266599
v 0.0164436120539904 0.0193589162081480 0.0039687501266599
v 0.0118975741788745 0.0224412064999342 0.0039687501266599
v 0.0067952196113765 0.0244741700589657 0.0039687501266599
v 0.0013751282822341 0.0253627486526966 0.0039687501266599
v -0.0041092624887824 0.0250653941184282 0.0039687501266599
v -0.0094015095382929 0.0235960092395544 0.0039687501266599
v -0.0142541518434882 0.0210233014076948 0.0039687501266599
v -0.0184402856975794 0.0174675658345222 0.0039687501266599
v -0.0217641722410917 0.0130950678139925 0.0039687501266599
v -0.0240703914314508 0.0081102587282658 0.0039687501266599
v -0.0252511035650969 0.0027462230063975 0.0039687501266599
v -0.0252511035650969 -0.0027462230063975 0.0039687501266599
v -0.0240703914314508 -0.0081102587282658 0.0039687501266599
v -0.0217641722410917 -0.0130950678139925 0.0039687501266599
v -0.0184402856975794 -0.0174675658345222 0.0039687501266599
v -0.0142541518434882 -0.0210233014076948 0.0039687501266599
v -0.0094015095382929 -0.0235960092395544 0.0039687501266599
v -0.0041092624887824 -0.0250653941184282 0.0039687501266599
v 0.0013751282822341 -0.0253627486526966 0.0039687501266599
v 0.0067952196113765 -0.0244741700589657 0.0039687501266599
v 0.0118975741788745 -0.0224412064999342 0.0039687501266599
v 0.0164436120539904 -0.0193589162081480 0.0039687501266599
v 0.0202207639813423 -0.0153714250773191 0.0039687501266599
v 0.0230524148792028 -0.0106651829555631 0.0039687501266599
v 0.0248061623424292 -0.0054602492600679 0.0039687501266599
v 0.0160085130482912 0.0164941251277924 0.0039687501266599
v 0.0160085130482912 0.0107812779024243 0.0039687501266599
v 0.0126537308096886 -0.0154824312776327 0.0039687501266599
v 0.0128068635240197 -0.0160539317876101 0.0039687501266599
v 0.0160085130482912 -0.0145992152392864 0.0039687501266599
v 0.0194440279155970 0.0051421890966594 0.0039687501266599
v 0.0188725274056196 0.0049890559166670 0.0039687501266599
v 0.0160085130482912 -0.0046492218971252 0.0039687501266599
v 0.0183010268956423 0.0051421890966594 0.0039687501266599
v 0.0198623947799206 0.0067035560496151 0.0039687501266599
v 0.0200155284255743 0.0061320560052991 0.0039687501266599
v 0.0198623947799206 0.0055605559609830 0.0039687501266599
v 0.0183010268956423 0.0071219229139388 0.0039687501266599
v 0.0188725274056196 0.0072750560939312 0.0039687501266599
v 0.0194440279155970 0.0071219229139388 0.0039687501266599
v 0.0178826600313187 0.0055605559609830 0.0039687501266599
v 0.0177295282483101 0.0061320560052991 0.0039687501266599
v 0.0178826600313187 0.0067035560496151 0.0039687501266599
v 0.0126537308096886 -0.0166254304349422 0.0039687501266599
v 0.0122353639453650 -0.0170437972992659 0.0039687501266599
v 0.0116638634353876 -0.0171969309449196 0.0039687501266599
v 0.0058319317176938 -0.0212984662503004 0.0039687501266599
v 0.0110923638567328 -0.0170437972992659 0.0039687501266599
v 0.0106739969924092 -0.0166254304349422 0.0039687501266599
v 0.0058319317176938 -0.0145992152392864 0.0039687501266599
v 0.0105208633467555 -0.0160539317876101 0.0039687501266599
v 0.0106739969924092 -0.0154824312776327 0.0039687501266599
v 0.0110923638567328 -0.0150640634819865 0.0039687501266599
v 0.0116638634353876 -0.0149109307676554 0.0039687501266599
v 0.0122353639453650 -0.0150640634819865 0.0039687501266599
v -0.0116638634353876 -0.0149109307676554 0.0039687501266599
v -0.0110923638567328 -0.0150640634819865 0.0039687501266599
v -0.0058319317176938 -0.0145992152392864 0.0039687501266599
v -0.0128068635240197 -0.0160539317876101 0.0039687501266599
v -0.0126537308096886 -0.0154824312776327 0.0039687501266599
v -0.0160085130482912 -0.0145992152392864 0.0039687501266599
v -0.0122353639453650 -0.0150640634819865 0.0039687501266599
v -0.0106739969924092 -0.0154824312776327 0.0039687501266599
v -0.0105208633467555 -0.0160539317876101 0.0039687501266599
v -0.0058319317176938 -0.0212984662503004 0.0039687501266599
v -0.0106739969924092 -0.0166254304349422 0.0039687501266599
v -0.0110923638567328 -0.0170437972992659 0.0039687501266599
v -0.0116638634353876 -0.0171969309449196 0.0039687501266599
v -0.0122353639453650 -0.0170437972992659 0.0039687501266599
v -0.0126537308096886 -0.0166254304349422 0.0039687501266599
v -0.0227077640593052 -0.0046492218971252 0.0039687501266599
v -0.0227077640593052 0.0107812779024243 0.0039687501266599
v 0.0005714999861084 0.0208336170762777 0.0039687501266599
v 0.0009898670250550 0.0204152502119541 0.0039687501266599
v 0.0011429999722168 0.0198437497019768 0.0039687501266599
v 0.0058319317176938 0.0164941251277924 0.0039687501266599
v 0.0009898670250550 0.0192722491919994 0.0039687501266599
v -0.0009898670250550 0.0192722491919994 0.0039687501266599
v -0.0058319317176938 0.0164941251277924 0.0039687501266599
v -0.0160085130482912 0.0164941251277924 0.0039687501266599
v 0.0005714999861084 0.0188538823276758 0.0039687501266599
v -0.0000000000004154 0.0187007505446672 0.0039687501266599
v -0.0005714999861084 0.0188538823276758 0.0039687501266599
v -0.0011429999722168 0.0198437497019768 0.0039687501266599
v -0.0009898670250550 0.0204152502119541 0.0039687501266599
v -0.0005714999861084 0.0208336170762777 0.0039687501266599
v -0.0000000000004661 0.0209867507219315 0.0039687501266599
v -0.0160085130482912 0.0107812779024243 0.0039687501266599
v -0.0160085130482912 -0.0046492218971252 0.0039687501266599
v -0.0178826600313187 0.0055605559609830 0.0039687501266599
v -0.0183010268956423 0.0051421890966594 0.0039687501266599
v -0.0188725274056196 0.0049890559166670 0.0039687501266599
v -0.0194440279155970 0.0071219229139388 0.0039687501266599
v -0.0188725274056196 0.0072750560939312 0.0039687501266599
v -0.0177295282483101 0.0061320560052991 0.0039687501266599
v -0.0183010268956423 0.0071219229139388 0.0039687501266599
v -0.0178826600313187 0.0067035560496151 0.0039687501266599
v -0.0194440279155970 0.0051421890966594 0.0039687501266599
v -0.0198623947799206 0.0055605559609830 0.0039687501266599
v -0.0200155284255743 0.0061320560052991 0.0039687501266599
v -0.0198623947799206 0.0067035560496151 0.0039687501266599
# 408 vertices, 0 vertices normals

f 1 2 3
f 3 2 4
f 3 4 5
f 5 4 6
f 5 6 7
f 7 6 8
f 7 8 9
f 9 8 10
f 9 10 11
f 11 10 12
f 11 12 13
f 13 12 14
f 13 14 15
f 15 14 16
f 15 16 17
f 17 16 18
f 17 18 19
f 19 18 20
f 19 20 21
f 21 20 22
f 21 22 23
f 23 22 24
f 23 24 25
f 25 24 26
f 25 26 27
f 27 26 28
f 27 28 29
f 29 28 30
f 29 30 31
f 31 30 32
f 31 32 33
f 33 32 34
f 33 34 35
f 35 34 36
f 35 36 37
f 37 36 38
f 37 38 39
f 39 38 40
f 39 40 41
f 41 40 42
f 41 42 43
f 43 42 44
f 43 44 1
f 1 44 2
f 45 46 47
f 47 46 48
f 47 48 49
f 49 48 50
f 49 50 51
f 51 50 52
f 51 52 53
f 53 52 54
f 53 54 55
f 55 54 56
f 55 56 57
f 57 56 58
f 57 58 59
f 59 58 60
f 59 60 61
f 61 60 62
f 61 62 63
f 63 62 64
f 63 64 65
f 65 64 66
f 65 66 67
f 67 66 68
f 67 68 69
f 69 68 70
f 69 70 71
f 71 70 72
f 71 72 73
f 73 72 74
f 73 74 45
f 45 74 46
f 75 76 77
f 77 76 78
f 77 78 79
f 79 78 80
f 79 80 81
f 81 80 82
f 81 82 83
f 83 82 84
f 83 84 85
f 85 84 86
f 85 86 87
f 87 86 88
f 87 88 89
f 89 88 90
f 89 90 91
f 91 90 92
f 91 92 93
f 93 92 94
f 93 94 95
f 95 94 96
f 95 96 97
f 97 96 98
f 97 98 99
f 99 98 100
f 99 100 101
f 101 100 102
f 101 102 103
f 103 102 104
f 103 104 105
f 105 104 106
f 105 106 107
f 107 106 108
f 107 108 109
f 109 108 110
f 109 110 111
f 111 110 112
f 111 112 113
f 113 112 114
f 113 114 115
f 115 114 116
f 115 116 117
f 117 116 118
f 117 118 119
f 119 118 120
f 119 120 121
f 121 120 122
f 121 122 123
f 123 122 124
f 123 124 125
f 125 124 126
f 125 126 127
f 127 126 128
f 127 128 129
f 129 128 130
f 129 130 131
f 131 130 132
f 131 132 133
f 133 132 134
f 133 134 135
f 135 134 136
f 135 136 137
f 137 136 138
f 137 138 139
f 139 138 140
f 139 140 141
f 141 140 142
f 141 142 143
f 143 142 144
f 143 144 145
f 145 144 146
f 145 146 147
f 147 146 148
f 147 148 149
f 149 148 150
f 149 150 151
f 151 150 75
f 151 75 77
f 126 124 152
f 112 110 153
f 92 154 155
f 156 157 158
f 159 160 161
f 160 162 161
f 161 162 163
f 161 163 134
f 163 164 134
f 134 164 165
f 134 165 136
f 165 166 136
f 136 166 167
f 136 167 138
f 138 167 168
f 138 168 169
f 169 168 170
f 169 146 144
f 144 142 169
f 169 142 140
f 169 140 138
f 171 172 75
f 173 174 175
f 176 177 178
f 75 172 76
f 76 172 179
f 76 179 78
f 78 179 180
f 78 180 80
f 80 180 181
f 80 181 173
f 174 182 175
f 175 182 183
f 175 183 176
f 176 183 184
f 176 184 177
f 146 169 148
f 148 169 185
f 148 185 150
f 150 185 176
f 150 176 75
f 75 176 178
f 75 178 171
f 173 175 80
f 80 175 186
f 80 186 82
f 154 86 186
f 186 86 84
f 186 84 82
f 92 90 154
f 154 90 88
f 154 88 86
f 98 96 187
f 187 96 94
f 110 108 153
f 153 108 106
f 153 106 188
f 188 106 104
f 188 104 189
f 189 104 102
f 189 102 100
f 152 118 190
f 190 118 116
f 190 116 191
f 191 116 114
f 191 114 192
f 192 114 112
f 124 122 152
f 152 122 120
f 152 120 118
f 132 130 193
f 193 130 128
f 49 194 47
f 47 194 195
f 47 195 45
f 196 197 71
f 198 65 67
f 198 67 197
f 197 67 69
f 197 69 71
f 65 198 63
f 63 198 188
f 63 188 61
f 199 200 59
f 49 51 194
f 194 51 53
f 194 53 201
f 201 53 55
f 201 55 200
f 200 55 57
f 200 57 59
f 202 187 155
f 155 187 94
f 155 94 92
f 203 199 204
f 204 199 187
f 204 187 205
f 205 187 202
f 203 206 199
f 199 206 207
f 199 207 200
f 200 207 208
f 209 210 186
f 186 210 211
f 186 211 154
f 154 211 212
f 154 212 155
f 155 212 213
f 155 213 202
f 214 215 190
f 215 216 190
f 190 216 217
f 190 217 152
f 152 217 218
f 152 218 219
f 128 126 193
f 193 126 152
f 193 152 220
f 220 152 219
f 196 221 222
f 220 223 193
f 193 223 224
f 193 224 196
f 196 224 225
f 196 225 221
f 153 226 227
f 228 229 198
f 112 153 192
f 192 153 227
f 192 227 230
f 230 228 192
f 192 228 198
f 192 198 191
f 191 198 197
f 191 197 190
f 190 197 196
f 190 196 214
f 214 196 222
f 231 232 188
f 188 232 233
f 188 233 153
f 153 233 234
f 153 234 226
f 229 235 198
f 198 235 236
f 198 236 188
f 188 236 237
f 188 237 231
f 71 73 196
f 196 73 238
f 196 238 193
f 193 238 161
f 193 161 132
f 132 161 134
f 100 98 189
f 189 98 187
f 189 187 188
f 188 187 199
f 188 199 61
f 61 199 59
f 73 45 238
f 238 45 195
f 238 195 161
f 161 195 158
f 161 158 159
f 159 158 157
f 208 209 200
f 200 209 186
f 200 186 201
f 201 186 175
f 201 175 194
f 194 175 176
f 194 176 195
f 195 176 185
f 195 185 158
f 158 185 169
f 158 169 156
f 156 169 170
f 239 139 240
f 240 139 141
f 240 141 241
f 241 141 143
f 241 143 242
f 243 131 244
f 244 131 133
f 244 133 245
f 245 133 135
f 245 135 239
f 239 135 137
f 239 137 139
f 246 123 247
f 247 123 125
f 247 125 248
f 248 125 127
f 248 127 243
f 243 127 129
f 243 129 131
f 249 113 250
f 250 113 115
f 250 115 251
f 251 115 117
f 251 117 252
f 252 117 119
f 252 119 246
f 246 119 121
f 246 121 123
f 253 105 254
f 254 105 107
f 254 107 255
f 255 107 109
f 255 109 249
f 249 109 111
f 249 111 113
f 143 145 242
f 242 145 147
f 242 147 256
f 256 147 149
f 256 149 257
f 257 149 151
f 257 151 258
f 258 151 77
f 258 77 259
f 77 79 259
f 259 79 81
f 259 81 260
f 260 81 83
f 260 83 261
f 261 83 85
f 261 85 262
f 263 97 264
f 264 97 99
f 264 99 265
f 265 99 101
f 265 101 253
f 253 101 103
f 253 103 105
f 85 87 262
f 262 87 89
f 262 89 266
f 266 89 91
f 266 91 267
f 267 91 93
f 267 93 263
f 263 93 95
f 263 95 97
f 268 30 269
f 269 30 28
f 269 28 270
f 270 28 26
f 270 26 271
f 271 26 24
f 271 24 272
f 272 24 22
f 272 22 273
f 274 40 275
f 275 40 38
f 275 38 276
f 276 38 36
f 276 36 277
f 277 36 34
f 277 34 268
f 268 34 32
f 268 32 30
f 278 8 279
f 279 8 6
f 279 6 280
f 280 6 4
f 280 4 281
f 281 4 2
f 281 2 282
f 282 2 44
f 282 44 274
f 274 44 42
f 274 42 40
f 22 20 273
f 273 20 18
f 273 18 283
f 283 18 16
f 283 16 284
f 284 16 14
f 284 14 285
f 285 14 12
f 285 12 278
f 278 12 10
f 278 10 8
f 60 286 62
f 62 286 287
f 62 287 64
f 64 287 288
f 64 288 66
f 66 288 289
f 66 289 68
f 68 289 290
f 68 290 70
f 52 291 54
f 54 291 292
f 54 292 56
f 56 292 293
f 56 293 58
f 58 293 294
f 58 294 60
f 60 294 295
f 60 295 286
f 290 296 70
f 70 296 297
f 70 297 72
f 72 297 298
f 72 298 74
f 74 298 299
f 74 299 46
f 46 299 300
f 46 300 48
f 48 300 301
f 48 301 50
f 50 301 302
f 50 302 52
f 52 302 303
f 52 303 291
f 300 271 301
f 301 271 272
f 301 272 302
f 302 272 273
f 302 273 303
f 303 273 283
f 303 283 291
f 291 283 284
f 291 284 292
f 292 284 285
f 292 285 293
f 293 285 278
f 293 278 294
f 294 278 279
f 294 279 295
f 295 279 280
f 295 280 286
f 286 280 281
f 286 281 287
f 287 281 282
f 287 282 288
f 288 282 274
f 288 274 289
f 289 274 275
f 289 275 290
f 290 275 276
f 290 276 296
f 296 276 277
f 296 277 297
f 297 277 268
f 297 268 298
f 298 268 269
f 298 269 299
f 299 269 270
f 299 270 300
f 300 270 271
f 304 245 305
f 305 245 239
f 305 239 306
f 306 239 240
f 306 240 307
f 307 240 241
f 307 241 308
f 308 241 242
f 308 242 309
f 309 242 256
f 309 256 310
f 310 256 257
f 310 257 311
f 311 257 258
f 311 258 312
f 312 258 259
f 312 259 313
f 313 259 260
f 313 260 314
f 314 260 261
f 314 261 315
f 315 261 262
f 315 262 316
f 316 262 266
f 316 266 317
f 317 266 267
f 317 267 318
f 318 267 263
f 318 263 319
f 319 263 264
f 319 264 320
f 320 264 265
f 320 265 321
f 321 265 253
f 321 253 322
f 322 253 254
f 322 254 323
f 323 254 255
f 323 255 324
f 324 255 249
f 324 249 325
f 325 249 250
f 325 250 326
f 326 250 251
f 326 251 327
f 327 251 252
f 327 252 328
f 328 252 246
f 328 246 329
f 329 246 247
f 329 247 330
f 330 247 248
f 330 248 331
f 331 248 243
f 331 243 332
f 332 243 244
f 332 244 304
f 304 244 245
f 307 333 334
f 335 336 337
f 338 339 340
f 340 339 341
f 306 342 305
f 305 342 343
f 305 343 304
f 304 343 344
f 304 344 332
f 334 345 307
f 307 345 346
f 307 346 306
f 306 346 347
f 306 347 342
f 341 348 340
f 340 348 349
f 340 349 334
f 334 349 350
f 334 350 345
f 344 338 332
f 332 338 340
f 332 340 331
f 331 340 337
f 336 329 337
f 337 329 330
f 337 330 331
f 336 351 329
f 329 351 352
f 329 352 328
f 328 352 353
f 328 353 354
f 353 355 354
f 354 355 356
f 354 356 357
f 357 356 358
f 357 358 359
f 359 360 357
f 357 360 361
f 357 361 337
f 337 361 362
f 337 362 335
f 325 326 354
f 354 326 327
f 354 327 328
f 363 364 365
f 366 367 368
f 368 367 369
f 364 370 365
f 365 370 371
f 365 371 372
f 372 371 373
f 372 373 324
f 373 374 324
f 324 374 375
f 324 375 323
f 323 375 376
f 323 376 322
f 322 376 377
f 318 319 378
f 378 319 320
f 378 320 321
f 318 378 317
f 317 378 379
f 317 379 316
f 310 311 380
f 381 382 383
f 383 382 384
f 385 313 386
f 386 313 314
f 386 314 387
f 384 388 383
f 383 388 389
f 383 389 386
f 386 389 390
f 386 390 385
f 385 391 313
f 313 391 392
f 313 392 312
f 312 392 393
f 312 393 311
f 311 393 394
f 311 394 380
f 380 381 310
f 310 381 383
f 310 383 309
f 309 383 333
f 309 333 308
f 308 333 307
f 19 334 17
f 17 334 333
f 17 333 15
f 15 333 383
f 15 383 13
f 13 383 11
f 11 383 386
f 11 386 9
f 9 386 7
f 7 386 387
f 7 387 395
f 1 3 395
f 395 3 5
f 395 5 7
f 35 37 365
f 365 37 368
f 365 368 363
f 363 368 369
f 37 39 368
f 368 39 41
f 368 41 396
f 396 41 43
f 396 43 1
f 19 21 334
f 334 21 23
f 334 23 340
f 340 23 25
f 340 25 337
f 25 27 337
f 337 27 29
f 337 29 357
f 357 29 31
f 357 31 33
f 397 398 396
f 396 398 399
f 400 401 395
f 1 395 396
f 396 395 402
f 396 402 397
f 401 403 395
f 395 403 404
f 395 404 402
f 377 366 322
f 322 366 368
f 322 368 321
f 321 368 396
f 321 396 378
f 378 396 399
f 378 399 405
f 314 315 387
f 387 315 316
f 387 316 395
f 395 316 379
f 395 379 400
f 405 406 378
f 378 406 407
f 378 407 379
f 379 407 408
f 379 408 400
f 33 35 357
f 357 35 365
f 357 365 354
f 354 365 372
f 354 372 325
f 325 372 324
f 208 402 209
f 209 402 404
f 209 404 210
f 210 404 403
f 210 403 211
f 211 403 401
f 211 401 212
f 212 401 400
f 212 400 213
f 213 400 408
f 213 408 202
f 202 408 407
f 202 407 205
f 205 407 406
f 205 406 204
f 204 406 405
f 204 405 203
f 203 405 399
f 203 399 206
f 206 399 398
f 206 398 207
f 207 398 397
f 207 397 208
f 208 397 402
f 229 371 235
f 235 371 370
f 235 370 236
f 236 370 364
f 236 364 237
f 237 364 363
f 237 363 231
f 231 363 369
f 231 369 232
f 232 369 367
f 232 367 233
f 233 367 366
f 233 366 234
f 234 366 377
f 234 377 226
f 226 377 376
f 226 376 227
f 227 376 375
f 227 375 230
f 230 375 374
f 230 374 228
f 228 374 373
f 228 373 229
f 229 373 371
f 220 336 223
f 223 336 335
f 223 335 224
f 224 335 362
f 224 362 225
f 225 362 361
f 225 361 221
f 221 361 360
f 221 360 222
f 222 360 359
f 222 359 214
f 214 359 358
f 214 358 215
f 215 358 356
f 215 356 216
f 216 356 355
f 216 355 217
f 217 355 353
f 217 353 218
f 218 353 352
f 218 352 219
f 219 352 351
f 219 351 220
f 220 351 336
f 166 343 167
f 167 343 342
f 167 342 168
f 168 342 347
f 168 347 170
f 170 347 346
f 170 346 156
f 156 346 345
f 156 345 157
f 157 345 350
f 157 350 159
f 159 350 349
f 159 349 160
f 160 349 348
f 160 348 162
f 162 348 341
f 162 341 163
f 163 341 339
f 163 339 164
f 164 339 338
f 164 338 165
f 165 338 344
f 165 344 166
f 166 344 343
f 178 382 171
f 171 382 381
f 171 381 172
f 172 381 380
f 172 380 179
f 179 380 394
f 179 394 180
f 180 394 393
f 180 393 181
f 181 393 392
f 181 392 173
f 173 392 391
f 173 391 174
f 174 391 385
f 174 385 182
f 182 385 390
f 182 390 183
f 183 390 389
f 183 389 184
f 184 389 388
f 184 388 177
f 177 388 384
f 177 384 178
f 178 384 382
# 836 faces, 0 coords texture

# End of File
